<?xml version="1.0" encoding="UTF-8" standalone="no"?>
<!-- Created with Inkscape (http://www.inkscape.org/) -->
<svg
   xmlns:svg="http://www.w3.org/2000/svg"
   xmlns="http://www.w3.org/2000/svg"
   version="1.0"
   width="748.73621"
   height="400.42914"
   id="svg2">
  <defs
     id="defs4" />
  <path
     d="M 224.82073,387.04583 C 160.85907,387.56338 109.09061,375.46881 106.51528,372.89344 C 105.09955,371.47773 104.86547,159.39721 104.07478,159.66076 L 88.463048,198.22001 C 88.463048,198.22001 63.048557,195.88531 43.543238,189.73901 C 24.260933,183.66299 9.6270509,176.49427 10.653879,175.193 C 11.916157,173.59339 45.725772,64.241865 70.726701,45.676112 C 80.128062,38.694638 169.18843,19.744746 171.18259,21.602578 C 172.29654,22.640395 193.44262,42.415652 223.28114,41.781697 C 253.43284,41.147741 276.13016,22.198586 276.13016,22.198586 C 276.13016,22.198586 348.23989,34.907587 367.3371,47.154982 C 384.64011,58.25172 413.65152,141.43681 424.63912,177.34457 C 420.75042,179.89814 412.64519,184.44629 390.77384,190.78602 C 368.9025,197.12578 356.88763,197.73966 351.02302,197.80711 C 350.37216,195.37811 342.22041,178.74296 339.25551,168.59258 C 337.0623,161.08407 335.43798,158.76376 335.43798,163.13935 C 335.43798,164.35228 334.50936,190.70039 333.37441,221.6907 L 332.07608,376.12271 C 332.07608,376.12271 289.6682,386.52827 224.82073,387.04583 z M 416.04003,372.43859 C 416.04003,325.37565 416.05661,198.34016 416.05661,185.03818 C 422.86256,181.76202 422.8053,181.67068 428.08346,178.62333 C 416.15671,141.69924 397.82604,89.184964 383.43975,63.787382 C 379.61968,57.043432 382.97604,60.918079 376.68732,51.529535 C 379.74033,45.845938 380.29372,41.123751 386.60327,38.80732 C 399.80544,33.960394 461.78157,18.51917 482.07594,16.586076 C 494.44785,21.417309 503.70088,24.30687 537.916,24.134111 C 571.90968,23.961353 587.09572,16.420037 587.09572,16.420037 C 587.09572,16.420037 665.89962,30.073916 679.01593,40.866635 C 693.35013,52.661477 731.28601,164.9707 733.97532,175.00736 C 733.06398,176.67459 722.34433,182.05022 702.07417,187.64477 C 681.65848,193.27949 661.35931,193.05074 661.35931,193.05074 C 661.35931,193.05074 647.92718,156.62797 647.92019,156.98113 L 643.62332,374.24156 C 643.62332,374.24156 598.914,387.1643 538.92206,387.49011 C 478.9284,387.81592 433.14041,380.60261 416.04003,372.43859 z "
     style="fill:#000000;fill-opacity:1;stroke:#000000;stroke-width:0.98820847;stroke-opacity:1"
     id="path1939" />
  <g
     transform="matrix(1.379259,0,0,1.379259,-123.8798,-99.34595)"
     id="g1891">
    <g
       transform="matrix(0.64336,0,0,0.64336,-23.4021,22.40989)"
       id="g2916">
      <path
         d="M 364.83216,319.33838 C 364.29775,314.84935 360.77066,311.48258 369.8556,308.43645 C 352.8614,291.49569 357.00354,263.6462 357.67108,254.03364 C 358.33909,244.41428 367.10339,235.4095 372.20699,232.44353 C 387.2506,215.36918 395.50722,211.28095 420.83819,210.10525 C 446.16917,208.92954 464.65143,220.25934 473.31713,228.91643 C 481.92917,237.51991 486.58355,245.7112 490.09756,256.27816 C 495.37361,272.14368 485.39476,295.07623 483.15025,312.39108 C 491.70079,316.8801 476.97066,334.75943 469.46939,330.9885 C 465.42791,328.95683 470.93901,326.04521 469.79003,322.86548 C 468.64105,319.68575 464.63299,316.37242 451.62013,322.11731 C 455.81524,329.99984 447.87928,343.17302 447.87928,343.17302 C 447.87928,343.17302 447.2647,376.86749 444.45906,388.59776 C 441.3385,389.43391 436.65669,390.09411 436.65669,390.09411 C 436.65669,390.09411 436.38949,353.62071 437.51174,337.08076 C 439.54034,335.90955 438.58465,335.47753 442.00077,335.47753 C 437.18991,330.66666 435.64131,333.79414 433.87777,334.08807 C 434.14496,340.47425 436.17572,378.97841 431.74013,390.41475 C 427.51695,390.41475 426.60981,390.0941 426.60981,390.0941 C 426.60981,390.0941 426.04868,348.14302 426.71668,334.51559 C 425.34455,334.51559 423.724,334.72936 423.724,334.72936 C 423.724,334.72936 425.00659,378.23023 422.01389,390.30787 C 419.12808,390.20099 415.4941,389.98722 415.4941,389.98722 L 413.784,334.62248 C 413.784,334.62248 412.65261,335.38139 411.00507,336.33259 C 412.55485,344.74953 412.92894,376.54684 411.4326,388.81152 C 406.30227,387.82286 404.48529,384.96378 404.48529,384.96378 C 404.48529,384.96378 402.74845,346.80699 402.13389,340.18032 C 400.3398,335.77786 397.88534,331.1221 401.27883,329.38527 C 400.93146,325.61769 397.57372,324.26556 401.17195,321.26226 C 397.56469,312.51131 380.54377,328.74398 380.54377,328.74398 C 380.54377,328.74398 384.17775,329.51887 387.91861,329.8128 C 388.07931,329.94212 383.96399,334.72936 380.43689,331.20227 C 376.80291,327.56829 374.82559,330.90834 371.24506,333.23302 C 366.80946,330.74802 360.23624,321.90355 364.83216,319.33838 z "
         style="fill:#ffffff;fill-opacity:1;fill-rule:evenodd;stroke:none;stroke-width:0.5;stroke-linecap:butt;stroke-linejoin:round;stroke-miterlimit:4;stroke-dasharray:none;stroke-opacity:1"
         id="path1978" />
      <path
         d="M 459.42251,301.48914 C 445.66694,303.75494 438.68745,303.06564 428.85432,296.78634 C 449.58938,287.30058 445.43162,290.17682 456.64358,281.92978 C 467.85554,273.68272 473.45073,272.63106 481.86767,271.45536 C 481.62718,289.4115 481.1246,297.932 459.42251,301.48914 z "
         style="fill:#000000;fill-opacity:1;fill-rule:evenodd;stroke:none;stroke-width:0.5;stroke-linecap:butt;stroke-linejoin:miter;stroke-miterlimit:4;stroke-dasharray:none;stroke-opacity:1"
         id="path3769" />
      <path
         d="M 389.41495,301.42284 C 403.16161,303.74206 412.92894,301.71675 419.76937,296.82692 C 399.03431,287.34116 400.81359,287.89244 391.65947,282.29101 C 384.29525,277.78481 376.13489,272.03035 367.71796,270.85465 C 365.71393,286.03186 366.43028,297.54506 389.41495,301.42284 z "
         style="fill:#000000;fill-rule:evenodd;stroke:none;stroke-width:0.5;stroke-linecap:butt;stroke-linejoin:miter;stroke-miterlimit:4;stroke-dasharray:none;stroke-opacity:1"
         id="path3773" />
      <path
         d="M 423.29648,300.95473 C 423.29648,300.95473 423.29648,307.01881 423.29648,313.13925 C 417.54599,318.721 419.15855,323.9701 418.48679,323.39989 C 410.36378,315.08984 415.12002,312.31091 417.52485,310.36032 C 418.68008,302.38526 423.29648,300.95473 423.29648,300.95473 z "
         style="fill:#000000;fill-rule:evenodd;stroke:none;stroke-width:0.5;stroke-linecap:butt;stroke-linejoin:round;stroke-miterlimit:4;stroke-dasharray:none;stroke-opacity:1"
         id="path3775" />
      <path
         d="M 425.88573,301.57473 C 425.88573,306.06575 425.77884,306.89064 425.77884,313.01108 C 431.52933,318.59283 429.59613,324.16258 430.26789,323.59236 C 438.3909,315.28231 433.10025,311.86209 430.69542,309.9115 C 430.39524,303.00526 428.38704,304.07604 425.88573,301.57473 z "
         style="fill:#000000;fill-rule:evenodd;stroke:none;stroke-width:0.5;stroke-linecap:butt;stroke-linejoin:round;stroke-miterlimit:4;stroke-dasharray:none;stroke-opacity:1"
         id="path4663" />
    </g>
    <path
       d="M 233.53484,131.64102 C 239.79524,140.64845 241.80634,149.64953 244.06994,155.57624 L 245.16366,155.72597 C 244.75003,149.77895 243.59286,145.09063 241.28486,137.24797 C 245.9034,146.1539 246.56191,148.46192 248.37635,154.40003 C 247.05676,145.98896 244.58381,137.08303 240.46137,128.01342 C 248.37635,142.03146 249.69592,146.48381 251.6753,154.23508 C 252.35794,150.5504 252.00519,146.81369 250.35571,141.53663 C 253.25373,147.62194 253.95919,150.70392 253.49862,154.6538 C 257.85832,153.21876 259.9963,150.9945 263.40946,150.90442 C 273.05385,150.65064 288.53231,172.22077 303.75828,172.22077 C 311.87752,172.22077 313.36333,169.76685 313.65516,164.10026 C 314.1627,154.20336 296.65282,135.93221 288.78608,130.60312 C 296.65156,132.37947 327.13818,146.82892 327.39195,163.84649 C 327.64249,177.02092 321.78489,182.94119 311.41465,186.12457 C 300.86299,189.36364 267.0088,189.21408 248.18347,175.33762 C 227.20356,190.93777 191.16637,189.37179 182.56821,186.91926 C 173.91571,184.45123 169.57306,177.0347 169.76972,163.84649 C 170.0235,146.82892 199.71413,132.37947 207.58088,130.60312 C 199.71413,135.93221 182.20428,154.20336 182.71181,164.10026 C 183.00237,169.76685 184.48816,172.22077 192.60869,172.22077 C 207.83465,172.22077 223.31312,150.65064 232.95751,150.90442 C 236.01159,150.98434 238.04806,153.45221 241.56654,154.85174 C 240.41696,148.70172 236.72466,137.16931 233.53484,131.64102 z "
       style="font-size:12px;fill:#ffffff;fill-opacity:1;stroke:none;stroke-width:0.5;stroke-miterlimit:4;stroke-dasharray:none;stroke-opacity:1"
       id="path631" />
  </g>
  <path
     d="M 472.7372,98.82698 L 477.78687,98.82698 L 477.78687,93.508707 L 464.19815,93.508707 L 464.19815,98.82698 L 469.24782,98.82698 L 469.24782,123.57583 L 472.7372,123.57583 L 472.7372,98.82698 M 489.7856,110.0498 L 489.7856,123.57583 L 493.27497,123.57583 L 493.27497,93.508707 L 489.7856,93.508707 L 489.7856,104.89903 L 483.26074,104.89903 L 483.26074,93.508707 L 479.77136,93.508707 L 479.77136,123.57583 L 483.26074,123.57583 L 483.26074,110.0498 L 489.7856,110.0498 M 508.95724,93.508707 L 496.67349,93.508707 L 496.67349,123.57583 L 509.3544,123.57583 L 509.3544,118.25755 L 500.07776,118.25755 L 500.07776,110.46857 L 508.24802,110.46857 L 508.24802,105.15029 L 500.07776,105.15029 L 500.07776,98.82698 L 508.95724,98.82698 L 508.95724,93.508707 M 534.20249,150.90333 L 527.50741,129.79771 L 523.84782,129.79771 L 523.84782,159.86483 L 527.08188,159.86483 L 527.08188,138.29859 L 533.97553,159.86483 L 537.43653,159.86483 L 537.43653,129.79771 L 534.20249,129.79771 L 534.20249,150.90333 M 543.984,129.79771 L 540.49462,129.79771 L 540.49462,159.86483 L 543.984,159.86483 L 543.984,129.79771 M 546.40999,150.6102 C 546.46673,153.03902 546.66531,154.25343 547.17595,155.76097 C 548.25397,158.94356 550.43838,160.66049 553.36038,160.66049 C 557.55897,160.66049 560.14055,156.93349 560.14055,150.90333 C 560.14055,146.46445 558.89232,144.11939 555.77174,142.73747 L 551.68661,140.93678 C 550.41001,140.35052 549.92773,139.513 549.92773,137.79607 C 549.92773,135.53475 551.0625,134.15284 552.90647,134.15284 C 554.9774,134.15284 555.99868,135.53475 556.25401,138.71736 L 559.60154,138.71736 C 559.34622,132.43593 557.01997,129.00207 553.01996,129.00207 C 549.04831,129.00207 546.66531,132.56155 546.66531,138.42422 C 546.66531,141.02054 547.14758,143.07248 548.08376,144.41251 C 548.79298,145.50129 549.84263,146.21319 551.9703,147.09259 L 553.75754,147.84636 C 556.11216,148.85139 556.79302,149.68892 556.79302,151.6571 C 556.79302,154.08592 555.54478,155.50971 553.38875,155.50971 C 551.0625,155.50971 549.89937,153.91842 549.75752,150.6102 L 546.40999,150.6102 M 572.67607,146.33882 L 572.67607,159.86483 L 576.16545,159.86483 L 576.16545,129.79771 L 572.67607,129.79771 L 572.67607,141.18804 L 566.15122,141.18804 L 566.15122,129.79771 L 562.66184,129.79771 L 562.66184,159.86483 L 566.15122,159.86483 L 566.15122,146.33882 L 572.67607,146.33882 M 591.84771,129.79771 L 579.56397,129.79771 L 579.56397,159.86483 L 592.24488,159.86483 L 592.24488,154.54655 L 582.96823,154.54655 L 582.96823,146.75758 L 591.13849,146.75758 L 591.13849,141.4393 L 582.96823,141.4393 L 582.96823,135.11599 L 591.84771,135.11599 L 591.84771,129.79771 M 595.07822,159.86483 L 598.4825,159.86483 L 598.4825,148.1395 L 602.08534,148.1395 C 603.36194,148.1395 604.07116,148.51639 604.43997,149.47954 C 604.72365,150.19143 604.80876,151.15459 604.80876,153.83466 C 604.83713,156.68224 604.92224,158.14791 605.20594,159.86483 L 609.0641,159.86483 L 609.0641,159.06919 C 608.46835,158.65043 608.35488,157.98041 608.32651,155.34221 C 608.35488,148.307 608.07119,146.92509 606.19884,145.45942 C 606.85133,144.99878 607.13501,144.70565 607.47544,144.11939 C 608.32651,142.65371 608.78041,140.64366 608.78041,138.34046 C 608.78041,133.14782 606.70948,129.79771 603.50379,129.79771 L 595.07822,129.79771 L 595.07822,159.86483 M 598.4825,143.0306 L 598.4825,134.94849 L 602.85131,134.94849 C 604.41159,134.94849 605.29104,136.41415 605.29104,139.01048 C 605.29104,141.7743 604.43996,143.0306 602.59598,143.0306 L 598.4825,143.0306"
     style="font-size:35.05480957px;font-style:normal;font-variant:normal;font-weight:bold;font-stretch:condensed;text-align:start;line-height:80.00000119%;writing-mode:lr-tb;text-anchor:start;fill:none;fill-opacity:1;stroke:#ffffff;stroke-width:0.9832356px;stroke-linecap:butt;stroke-linejoin:miter;stroke-opacity:1;font-family:Nimbus Sans L"
     id="text7742" />
  <path
     d="M 469.74223,169.76216 L 469.74223,173.29073 L 468.74278,173.29073 L 468.74278,169.79348 C 468.74278,169.24019 468.63051,168.82609 468.40601,168.55117 C 468.18148,168.27627 467.84471,168.13882 467.39568,168.13882 C 466.85612,168.13882 466.43062,168.30411 466.1192,168.6347 C 465.80777,168.96529 465.65206,169.41592 465.65206,169.98662 L 465.65206,173.29073 L 464.64717,173.29073 L 464.64717,165.16877 L 465.65206,165.16877 L 465.65206,168.35282 C 465.89107,168.00136 466.17171,167.73864 466.494,167.56464 C 466.81991,167.39065 467.19471,167.30365 467.61839,167.30365 C 468.31728,167.30365 468.84598,167.51244 469.20448,167.93003 C 469.56298,168.34413 469.74223,168.95485 469.74223,169.76216 M 472.73517,165.7847 L 472.73517,167.44459 L 474.79383,167.44459 L 474.79383,168.19101 L 472.73517,168.19101 L 472.73517,171.36463 C 472.73516,171.84138 472.80217,172.1476 472.93615,172.28331 C 473.07375,172.41903 473.35077,172.48689 473.76722,172.48689 L 474.79383,172.48689 L 474.79383,173.29073 L 473.76722,173.29073 C 472.99589,173.29073 472.46358,173.15327 472.17026,172.87836 C 471.87695,172.59998 471.73028,172.0954 471.73028,171.36463 L 471.73028,168.19101 L 470.99699,168.19101 L 470.99699,167.44459 L 471.73028,167.44459 L 471.73028,165.7847 L 472.73517,165.7847 M 477.10236,165.7847 L 477.10236,167.44459 L 479.16103,167.44459 L 479.16103,168.19101 L 477.10236,168.19101 L 477.10236,171.36463 C 477.10236,171.84138 477.16935,172.1476 477.30333,172.28331 C 477.44095,172.41903 477.71797,172.48689 478.13441,172.48689 L 479.16103,172.48689 L 479.16103,173.29073 L 478.13441,173.29073 C 477.36308,173.29073 476.83077,173.15327 476.53746,172.87836 C 476.24413,172.59998 476.09747,172.0954 476.09747,171.36463 L 476.09747,168.19101 L 475.36417,168.19101 L 475.36417,167.44459 L 476.09747,167.44459 L 476.09747,165.7847 L 477.10236,165.7847 M 481.44782,172.41381 L 481.44782,175.51435 L 480.44294,175.51435 L 480.44294,167.44459 L 481.44782,167.44459 L 481.44782,168.33194 C 481.65785,167.98397 481.9222,167.72646 482.24088,167.55942 C 482.56316,167.38892 482.94701,167.30365 483.39242,167.30365 C 484.13114,167.30365 484.73046,167.58552 485.19035,168.14926 C 485.65386,168.71299 485.88562,169.4542 485.88563,170.37288 C 485.88562,171.29155 485.65386,172.03277 485.19035,172.5965 C 484.73046,173.16023 484.13114,173.44211 483.39242,173.44211 C 482.94701,173.44211 482.56316,173.35859 482.24088,173.19155 C 481.9222,173.02104 481.65785,172.76179 481.44782,172.41381 M 484.84815,170.37288 C 484.84815,169.66648 484.69605,169.11317 484.39187,168.71299 C 484.09131,168.30933 483.67668,168.1075 483.14799,168.1075 C 482.61929,168.1075 482.20285,168.30933 481.89867,168.71299 C 481.5981,169.11317 481.44782,169.66648 481.44782,170.37288 C 481.44782,171.07928 481.5981,171.63432 481.89867,172.03798 C 482.20285,172.43817 482.61929,172.63826 483.14799,172.63826 C 483.67668,172.63826 484.09131,172.43817 484.39187,172.03798 C 484.69605,171.63432 484.84815,171.07928 484.84815,170.37288 M 487.79763,171.9649 L 488.94375,171.9649 L 488.94375,173.29073 L 487.79763,173.29073 L 487.79763,171.9649 M 487.79763,167.763 L 488.94375,167.763 L 488.94375,169.08881 L 487.79763,169.08881 L 487.79763,167.763 M 493.07737,165.49761 L 494.00078,165.49761 L 491.17623,174.28249 L 490.25282,174.28249 L 493.07737,165.49761 M 496.8362,165.49761 L 497.75961,165.49761 L 494.93505,174.28249 L 494.01164,174.28249 L 496.8362,165.49761 M 503.19686,167.66904 L 503.19686,168.56684 C 502.9144,168.41721 502.63014,168.30585 502.34407,168.23277 C 502.06161,168.15622 501.77553,168.11794 501.48584,168.11794 C 500.83764,168.11794 500.33429,168.31629 499.97579,168.71299 C 499.61728,169.10621 499.43804,169.65952 499.43804,170.37288 C 499.43804,171.08624 499.61728,171.64128 499.97579,172.03798 C 500.33429,172.43121 500.83764,172.62782 501.48584,172.62782 C 501.77553,172.62782 502.06161,172.59128 502.34407,172.51821 C 502.63014,172.44165 502.9144,172.32855 503.19686,172.17892 L 503.19686,173.06627 C 502.91803,173.19155 502.62832,173.28551 502.32777,173.34815 C 502.03082,173.41079 501.71397,173.44211 501.3772,173.44211 C 500.46103,173.44211 499.73317,173.16545 499.19361,172.61216 C 498.65404,172.05886 498.38426,171.31243 498.38426,170.37288 C 498.38426,169.4194 498.65586,168.6695 499.19904,168.12315 C 499.74584,167.57683 500.49362,167.30365 501.44238,167.30365 C 501.75018,167.30365 502.05075,167.33497 502.34407,167.3976 C 502.63738,167.45677 502.92165,167.54724 503.19686,167.66904 M 508.47117,168.34238 C 508.35891,168.27975 508.23578,168.23451 508.1018,168.20667 C 507.97144,168.17536 507.82659,168.1597 507.66725,168.1597 C 507.10235,168.1597 506.6678,168.33717 506.36362,168.69211 C 506.06306,169.04358 505.91278,169.5499 505.91278,170.21106 L 505.91278,173.29073 L 504.90789,173.29073 L 504.90789,167.44459 L 505.91278,167.44459 L 505.91278,168.35282 C 506.12281,167.99788 506.39621,167.73516 506.73299,167.56464 C 507.06975,167.39065 507.47895,167.30365 507.96058,167.30365 C 508.02937,167.30365 508.10542,167.30888 508.18871,167.31931 C 508.272,167.32628 508.36434,167.33845 508.46574,167.35585 L 508.47117,168.34238 M 512.06161,173.83358 C 511.77915,174.52956 511.50394,174.98367 511.23597,175.19595 C 510.968,175.40822 510.6095,175.51435 510.16047,175.51435 L 509.362,175.51435 L 509.362,174.71051 L 509.94863,174.71051 C 510.22384,174.71051 510.43749,174.64787 510.58959,174.5226 C 510.74167,174.39732 510.91005,174.10153 511.09475,173.63523 L 511.27399,173.19677 L 508.81338,167.44459 L 509.87258,167.44459 L 511.77372,172.0171 L 513.67486,167.44459 L 514.73407,167.44459 L 512.06161,173.83358 M 519.99208,167.61683 L 519.99208,168.52508 C 519.70962,168.38589 519.4163,168.2815 519.11212,168.21189 C 518.80794,168.1423 518.4929,168.1075 518.16699,168.1075 C 517.67088,168.1075 517.29789,168.18058 517.04803,168.32673 C 516.80179,168.47289 516.67866,168.69211 516.67867,168.98442 C 516.67866,169.20713 516.76739,169.38286 516.94483,169.51161 C 517.12227,169.63689 517.47896,169.75695 518.01489,169.87178 L 518.3571,169.94486 C 519.06685,170.09101 519.57021,170.29806 519.86715,170.56601 C 520.1677,170.83048 520.31799,171.20108 520.31799,171.67782 C 520.31799,172.22068 520.09347,172.65044 519.64445,172.9671 C 519.19903,173.28377 518.58524,173.44211 517.80306,173.44211 C 517.47714,173.44211 517.13675,173.41079 516.78187,173.34815 C 516.43061,173.28899 516.05943,173.19851 515.66834,173.07671 L 515.66834,172.08496 C 516.03771,172.26939 516.40164,172.40859 516.76015,172.50254 C 517.11864,172.59302 517.47352,172.63826 517.82479,172.63826 C 518.29554,172.63826 518.65765,172.5617 518.91115,172.40859 C 519.16463,172.252 519.29137,172.03277 519.29138,171.7509 C 519.29137,171.48991 519.19903,171.28982 519.01436,171.15062 C 518.83329,171.01143 518.43314,170.87745 517.81392,170.7487 L 517.46628,170.67041 C 516.84705,170.54514 516.39983,170.35374 516.12462,170.09623 C 515.8494,169.83524 515.7118,169.47855 515.7118,169.02617 C 515.7118,168.47637 515.91459,168.05183 516.32016,167.75256 C 516.72574,167.45329 517.30151,167.30365 518.04749,167.30365 C 518.41685,167.30365 518.76448,167.32976 519.0904,167.38195 C 519.4163,167.43415 519.71687,167.51244 519.99208,167.61683 M 524.27237,168.11794 C 523.73642,168.11794 523.31274,168.31977 523.00132,168.72343 C 522.68989,169.12361 522.53418,169.67344 522.53418,170.37288 C 522.53418,171.07232 522.68807,171.62388 522.99588,172.02754 C 523.3073,172.42773 523.7328,172.62782 524.27237,172.62782 C 524.80468,172.62782 525.22655,172.42599 525.53798,172.02233 C 525.8494,171.61867 526.00511,171.06884 526.00512,170.37288 C 526.00511,169.68039 525.8494,169.13232 525.53798,168.72865 C 525.22655,168.32151 524.80468,168.11794 524.27237,168.11794 M 524.27237,167.30365 C 525.14145,167.30365 525.82405,167.57508 526.32016,168.11794 C 526.81626,168.6608 527.06432,169.41244 527.06432,170.37288 C 527.06432,171.32983 526.81626,172.08148 526.32016,172.62782 C 525.82405,173.17067 525.14145,173.44211 524.27237,173.44211 C 523.39964,173.44211 522.71524,173.17067 522.21913,172.62782 C 521.72665,172.08148 521.4804,171.32983 521.4804,170.37288 C 521.4804,169.41244 521.72665,168.6608 522.21913,168.11794 C 522.71524,167.57508 523.39964,167.30365 524.27237,167.30365 M 528.71559,165.16877 L 529.71506,165.16877 L 529.71506,173.29073 L 528.71559,173.29073 L 528.71559,165.16877 M 531.9421,171.9649 L 533.08822,171.9649 L 533.08822,173.29073 L 531.9421,173.29073 L 531.9421,171.9649 M 535.34243,167.44459 L 536.34188,167.44459 L 536.34188,173.29073 L 535.34243,173.29073 L 535.34243,167.44459 M 535.34243,165.16877 L 536.34188,165.16877 L 536.34188,166.38497 L 535.34243,166.38497 L 535.34243,165.16877 M 543.48474,169.76216 L 543.48474,173.29073 L 542.48527,173.29073 L 542.48527,169.79348 C 542.48527,169.24019 542.37301,168.82609 542.14851,168.55117 C 541.92399,168.27627 541.58721,168.13882 541.13819,168.13882 C 540.59862,168.13882 540.17313,168.30411 539.8617,168.6347 C 539.55028,168.96529 539.39456,169.41592 539.39457,169.98662 L 539.39457,173.29073 L 538.38968,173.29073 L 538.38968,167.44459 L 539.39457,167.44459 L 539.39457,168.35282 C 539.63356,168.00136 539.91421,167.73864 540.2365,167.56464 C 540.56241,167.39065 540.93721,167.30365 541.36089,167.30365 C 542.05978,167.30365 542.58848,167.51244 542.94699,167.93003 C 543.30547,168.34413 543.48473,168.95485 543.48474,169.76216 M 548.56893,165.16877 L 548.56893,165.96739 L 547.61292,165.96739 C 547.25442,165.9674 547.00456,166.037 546.86334,166.17618 C 546.72572,166.31538 546.65692,166.56593 546.65693,166.92783 L 546.65693,167.44459 L 548.30276,167.44459 L 548.30276,168.19101 L 546.65693,168.19101 L 546.65693,173.29073 L 545.65204,173.29073 L 545.65204,168.19101 L 544.69603,168.19101 L 544.69603,167.44459 L 545.65204,167.44459 L 545.65204,167.03745 C 545.65204,166.38672 545.80955,165.91346 546.1246,165.61767 C 546.43964,165.31841 546.93938,165.16878 547.62379,165.16877 L 548.56893,165.16877 M 548.28647,169.93442 L 551.21423,169.93442 L 551.21423,170.79046 L 548.28647,170.79046 L 548.28647,169.93442 M 557.18925,167.66904 L 557.18925,168.56684 C 556.90678,168.41721 556.62251,168.30585 556.33644,168.23277 C 556.05399,168.15622 555.76791,168.11794 555.47821,168.11794 C 554.83002,168.11794 554.32666,168.31629 553.96816,168.71299 C 553.60967,169.10621 553.43041,169.65952 553.43041,170.37288 C 553.43041,171.08624 553.60967,171.64128 553.96816,172.03798 C 554.32666,172.43121 554.83002,172.62782 555.47821,172.62782 C 555.76791,172.62782 556.05399,172.59128 556.33644,172.51821 C 556.62251,172.44165 556.90678,172.32855 557.18925,172.17892 L 557.18925,173.06627 C 556.9104,173.19155 556.62071,173.28551 556.32015,173.34815 C 556.02321,173.41079 555.70635,173.44211 555.36958,173.44211 C 554.45341,173.44211 553.72554,173.16545 553.18598,172.61216 C 552.64643,172.05886 552.37664,171.31243 552.37664,170.37288 C 552.37664,169.4194 552.64823,168.6695 553.19142,168.12315 C 553.73822,167.57683 554.486,167.30365 555.43476,167.30365 C 555.74257,167.30365 556.04312,167.33497 556.33644,167.3976 C 556.62976,167.45677 556.91402,167.54724 557.18925,167.66904 M 562.46355,168.34238 C 562.35128,168.27975 562.22817,168.23451 562.09419,168.20667 C 561.96381,168.17536 561.81897,168.1597 561.65964,168.1597 C 561.09472,168.1597 560.66017,168.33717 560.356,168.69211 C 560.05543,169.04358 559.90516,169.5499 559.90516,170.21106 L 559.90516,173.29073 L 558.90027,173.29073 L 558.90027,167.44459 L 559.90516,167.44459 L 559.90516,168.35282 C 560.11519,167.99788 560.38859,167.73516 560.72536,167.56464 C 561.06213,167.39065 561.47133,167.30365 561.95296,167.30365 C 562.02176,167.30365 562.0978,167.30888 562.18109,167.31931 C 562.26438,167.32628 562.35672,167.33845 562.45812,167.35585 L 562.46355,168.34238 M 562.6428,171.9649 L 563.78892,171.9649 L 563.78892,173.29073 L 562.6428,173.29073 L 562.6428,171.9649 M 565.93991,170.98359 L 565.93991,167.44459 L 566.93938,167.44459 L 566.93938,170.94705 C 566.93937,171.50035 567.05163,171.91619 567.27614,172.19457 C 567.50066,172.46949 567.83743,172.60694 568.28646,172.60694 C 568.82602,172.60694 569.25152,172.44165 569.56295,172.11106 C 569.87799,171.78047 570.0355,171.32983 570.03551,170.75914 L 570.03551,167.44459 L 571.03497,167.44459 L 571.03497,173.29073 L 570.03551,173.29073 L 570.03551,172.39293 C 569.79289,172.74788 569.51043,173.01234 569.18815,173.18633 C 568.86948,173.35684 568.4983,173.44211 568.07463,173.44211 C 567.37573,173.44211 566.84522,173.23331 566.4831,172.81573 C 566.12097,172.39815 565.93991,171.78743 565.93991,170.98359 M 577.48256,167.66904 L 577.48256,168.56684 C 577.2001,168.41721 576.91584,168.30585 576.62976,168.23277 C 576.3473,168.15622 576.06123,168.11794 575.77153,168.11794 C 575.12333,168.11794 574.61999,168.31629 574.26149,168.71299 C 573.90298,169.10621 573.72373,169.65952 573.72374,170.37288 C 573.72373,171.08624 573.90298,171.64128 574.26149,172.03798 C 574.61999,172.43121 575.12333,172.62782 575.77153,172.62782 C 576.06123,172.62782 576.3473,172.59128 576.62976,172.51821 C 576.91584,172.44165 577.2001,172.32855 577.48256,172.17892 L 577.48256,173.06627 C 577.20372,173.19155 576.91402,173.28551 576.61347,173.34815 C 576.31652,173.41079 575.99966,173.44211 575.6629,173.44211 C 574.74672,173.44211 574.01886,173.16545 573.4793,172.61216 C 572.93974,172.05886 572.66996,171.31243 572.66996,170.37288 C 572.66996,169.4194 572.94155,168.6695 573.48473,168.12315 C 574.03153,167.57683 574.77932,167.30365 575.72808,167.30365 C 576.03588,167.30365 576.33643,167.33497 576.62976,167.3976 C 576.92307,167.45677 577.20734,167.54724 577.48256,167.66904 M 579.2316,165.16877 L 580.23106,165.16877 L 580.23106,173.29073 L 579.2316,173.29073 L 579.2316,165.16877 M 587.05343,168.56684 C 587.3033,168.13534 587.60205,167.81693 587.94969,167.61162 C 588.29732,167.40631 588.70651,167.30365 589.17729,167.30365 C 589.81099,167.30365 590.29986,167.51767 590.64388,167.94568 C 590.98788,168.37023 591.15989,168.97573 591.1599,169.76216 L 591.1599,173.29073 L 590.15501,173.29073 L 590.15501,169.79348 C 590.155,169.23323 590.0518,168.81739 589.8454,168.54596 C 589.63898,168.27454 589.32394,168.13882 588.90026,168.13882 C 588.38241,168.13882 587.97322,168.30411 587.67266,168.6347 C 587.3721,168.96529 587.22181,169.41592 587.22182,169.98662 L 587.22182,173.29073 L 586.21693,173.29073 L 586.21693,169.79348 C 586.21693,169.22975 586.11373,168.81391 585.90732,168.54596 C 585.70091,168.27454 585.38224,168.13882 584.95132,168.13882 C 584.44073,168.13882 584.03515,168.30585 583.73459,168.63991 C 583.43403,168.9705 583.28375,169.4194 583.28375,169.98662 L 583.28375,173.29073 L 582.27886,173.29073 L 582.27886,167.44459 L 583.28375,167.44459 L 583.28375,168.35282 C 583.51188,167.9944 583.78528,167.72994 584.10396,167.55942 C 584.42262,167.38892 584.80104,167.30365 585.23921,167.30365 C 585.68099,167.30365 586.05579,167.41153 586.36359,167.62727 C 586.67501,167.84304 586.90496,168.15622 587.05343,168.56684 M 593.30003,171.9649 L 594.44615,171.9649 L 594.44615,173.29073 L 593.30003,173.29073 L 593.30003,171.9649 M 601.90406,170.12754 L 601.90406,170.59733 L 597.30873,170.59733 C 597.35219,171.2585 597.5586,171.76308 597.92796,172.11106 C 598.30094,172.45557 598.81878,172.62782 599.48147,172.62782 C 599.86531,172.62782 600.23648,172.58258 600.59499,172.4921 C 600.95711,172.40163 601.31561,172.26591 601.67049,172.08496 L 601.67049,172.9932 C 601.31199,173.13935 600.94443,173.25071 600.56783,173.32727 C 600.19122,173.40383 599.80918,173.44211 599.42172,173.44211 C 598.45123,173.44211 597.68172,173.17067 597.11319,172.62782 C 596.54828,172.08496 596.26582,171.35071 596.26582,170.42507 C 596.26582,169.46812 596.5338,168.70951 597.06973,168.14926 C 597.60929,167.58552 598.33534,167.30365 599.24789,167.30365 C 600.06629,167.30365 600.71267,167.55768 601.18706,168.06574 C 601.66506,168.57032 601.90406,169.25759 601.90406,170.12754 M 600.9046,169.84568 C 600.89736,169.32023 600.74346,168.9009 600.4429,168.58771 C 600.14596,168.27454 599.75125,168.11794 599.25876,168.11794 C 598.70109,168.11794 598.25387,168.26931 597.9171,168.57205 C 597.58395,168.87481 597.39201,169.30108 597.34133,169.8509 L 600.9046,169.84568 M 607.42279,167.61683 L 607.42279,168.52508 C 607.14033,168.38589 606.84702,168.2815 606.54283,168.21189 C 606.23865,168.1423 605.9236,168.1075 605.5977,168.1075 C 605.10159,168.1075 604.7286,168.18058 604.47874,168.32673 C 604.23249,168.47289 604.10937,168.69211 604.10937,168.98442 C 604.10937,169.20713 604.19809,169.38286 604.37553,169.51161 C 604.55297,169.63689 604.90966,169.75695 605.44561,169.87178 L 605.78781,169.94486 C 606.49757,170.09101 607.00091,170.29806 607.29785,170.56601 C 607.59841,170.83048 607.74869,171.20108 607.7487,171.67782 C 607.74869,172.22068 607.52418,172.65044 607.07515,172.9671 C 606.62974,173.28377 606.01594,173.44211 605.23376,173.44211 C 604.90785,173.44211 604.56746,173.41079 604.21258,173.34815 C 603.86132,173.28899 603.49015,173.19851 603.09906,173.07671 L 603.09906,172.08496 C 603.46842,172.26939 603.83235,172.40859 604.19085,172.50254 C 604.54935,172.59302 604.90423,172.63826 605.25549,172.63826 C 605.72625,172.63826 606.08837,172.5617 606.34186,172.40859 C 606.59533,172.252 606.72208,172.03277 606.72208,171.7509 C 606.72208,171.48991 606.62974,171.28982 606.44506,171.15062 C 606.26399,171.01143 605.86385,170.87745 605.24463,170.7487 L 604.89699,170.67041 C 604.27776,170.54514 603.83054,170.35374 603.55533,170.09623 C 603.28012,169.83524 603.14251,169.47855 603.14251,169.02617 C 603.14251,168.47637 603.3453,168.05183 603.75088,167.75256 C 604.15645,167.45329 604.73222,167.30365 605.4782,167.30365 C 605.84755,167.30365 606.1952,167.32976 606.52111,167.38195 C 606.84702,167.43415 607.14757,167.51244 607.42279,167.61683"
     style="font-size:10.90507317px;font-style:normal;font-weight:normal;fill:#ffffff;fill-opacity:1;stroke:none;stroke-width:1px;stroke-linecap:butt;stroke-linejoin:miter;stroke-opacity:1;font-family:Bitstream Vera Sans"
     id="text3819" />
  <path
     d="M 482.94701,143.46627 L 474.66424,143.46627 L 474.66424,148.71868 L 479.37294,148.71868 C 479.25948,150.44147 478.97582,151.49195 478.35177,152.58445 C 477.33061,154.43329 475.7705,155.5258 474.12529,155.5258 C 470.69305,155.5258 468.22523,151.07175 468.22523,144.76886 C 468.22523,138.17183 470.40939,134.18 474.01183,134.18 C 475.48684,134.18 476.73494,134.81029 477.671,136.02885 C 478.26668,136.7852 478.5787,137.49953 478.94745,139.09626 L 482.94701,139.09626 C 482.43643,132.79337 478.97581,128.80153 473.98346,128.80153 C 468.02668,128.80153 463.97039,135.31453 463.97039,144.8529 C 463.97039,154.13916 468.05505,160.90428 473.64307,160.90428 C 476.42291,160.90428 478.29504,159.4336 479.88352,155.98801 L 480.3941,160.02186 L 482.94701,160.02186 L 482.94701,143.46627 M 499.32374,159.93783 L 503.57859,159.93783 L 503.57859,129.30576 L 499.32374,129.30576 L 499.32374,150.14733 L 491.12607,129.30576 L 486.75776,129.30576 L 486.75776,159.93783 L 491.01261,159.93783 L 491.01261,138.7601 L 499.32374,159.93783 M 519.6238,129.30576 L 519.6238,150.06329 C 519.6238,153.76099 518.34735,155.5258 515.68098,155.5258 C 513.01461,155.5258 511.73815,153.76099 511.73815,150.06329 L 511.73815,129.30576 L 507.4833,129.30576 L 507.4833,150.06329 C 507.4833,153.50888 508.10735,155.946 509.49726,157.79484 C 511.00064,159.81177 513.1848,160.90428 515.68098,160.90428 C 518.17715,160.90428 520.36131,159.81177 521.86469,157.79484 C 523.25461,155.946 523.87865,153.50888 523.87865,150.06329 L 523.87865,129.30576 L 519.6238,129.30576"
     style="font-size:34.52397156px;font-style:normal;font-variant:normal;font-weight:bold;font-stretch:normal;text-align:start;line-height:100%;writing-mode:lr-tb;text-anchor:start;fill:#ffffff;fill-opacity:1;stroke:none;stroke-width:1px;stroke-linecap:butt;stroke-linejoin:miter;stroke-opacity:1;font-family:Nimbus Sans L"
     id="text1882" />
</svg>
