<?xml version="1.0" encoding="UTF-8" standalone="no"?>
<!-- Created with Inkscape (http://www.inkscape.org/) -->

<svg
   xmlns:dc="http://purl.org/dc/elements/1.1/"
   xmlns:cc="http://creativecommons.org/ns#"
   xmlns:rdf="http://www.w3.org/1999/02/22-rdf-syntax-ns#"
   xmlns:svg="http://www.w3.org/2000/svg"
   xmlns="http://www.w3.org/2000/svg"
   xmlns:sodipodi="http://sodipodi.sourceforge.net/DTD/sodipodi-0.dtd"
   xmlns:inkscape="http://www.inkscape.org/namespaces/inkscape"
   width="147.9375"
   height="154.5"
   id="svg2283"
   sodipodi:version="0.32"
   inkscape:version="0.48.1 r9760"
   version="1.0"
   sodipodi:docname="logoweb.svg"
   inkscape:output_extension="org.inkscape.output.svg.inkscape"
   inkscape:export-filename="/home/david/Desktop/crysol_logo.png"
   inkscape:export-xdpi="88.574356"
   inkscape:export-ydpi="88.574356"
   sodipodi:modified="TRUE">
  <defs
     id="defs2285">
    <inkscape:perspective
       sodipodi:type="inkscape:persp3d"
       inkscape:vp_x="0 : 69.09449 : 1"
       inkscape:vp_y="0 : 1000 : 0"
       inkscape:vp_z="435.82675 : 69.09449 : 1"
       inkscape:persp3d-origin="217.91338 : 46.062993 : 1"
       id="perspective32" />
    <filter
       inkscape:collect="always"
       id="filter3310"
       color-interpolation-filters="sRGB">
      <feGaussianBlur
         inkscape:collect="always"
         stdDeviation="1.7375586"
         id="feGaussianBlur3312" />
    </filter>
  </defs>
  <sodipodi:namedview
     id="base"
     pagecolor="#ffffff"
     bordercolor="#666666"
     borderopacity="1.0"
     inkscape:pageopacity="0.0"
     inkscape:pageshadow="2"
     inkscape:zoom="1.2606431"
     inkscape:cx="376.48236"
     inkscape:cy="3.2268411"
     inkscape:document-units="px"
     inkscape:current-layer="layer1"
     width="123mm"
     height="39mm"
     units="mm"
     inkscape:window-width="1278"
     inkscape:window-height="740"
     inkscape:window-x="0"
     inkscape:window-y="26"
     showgrid="false"
     fit-margin-top="0"
     fit-margin-left="0"
     fit-margin-right="0"
     fit-margin-bottom="0"
     inkscape:window-maximized="0" />
  <metadata
     id="metadata2288">
    <rdf:RDF>
      <cc:Work
         rdf:about="">
        <dc:format>image/svg+xml</dc:format>
        <dc:type
           rdf:resource="http://purl.org/dc/dcmitype/StillImage" />
        <dc:title></dc:title>
      </cc:Work>
    </rdf:RDF>
  </metadata>
  <g
     inkscape:label="Capa 1"
     inkscape:groupmode="layer"
     id="layer1"
     transform="translate(-28.15625,8.28125)">
    <g
       id="g3050">
      <g
         transform="translate(-2.0379599,0.6078593)"
         style="stroke:none;filter:url(#filter3310)"
         id="use3249">
        <path
           style="font-size:12px;fill-opacity:1;stroke:none"
           d="M 74.537448,2.6982069 C 63.670112,2.6080437 50.474711,4.7027016 45.575986,12.72629 c -6.07422,9.948952 -6.103988,17.549149 -0.627443,23.314481 2.249822,2.368458 8.150576,6.726743 15.90624,10.853663 L 69.914181,31.923862 C 65.953365,31.825678 62.230031,31.151894 59.19261,29.359044 53.012233,25.711059 52.98239,23.179808 55.306861,18.736541 59.366572,10.976202 80.906653,4.9373095 89.287875,4.4154163 86.743413,3.5971539 81.057857,2.7523082 74.537448,2.6982069 z M 151.09655,40.895198 c 3.59324,7.589843 8.70701,29.362559 3.87474,36.66691 -2.7677,4.181638 -5.0045,5.375633 -11.18391,1.728223 -2.47871,-1.463069 -4.51938,-3.681765 -6.27443,-6.30746 l -8.29986,13.73771 c 5.71864,3.485587 10.89527,5.811653 14.156,6.593656 9.32266,2.235817 16.44199,0.364461 22.16967,-9.774904 7.45166,-13.065745 -9.25393,-37.758776 -14.44221,-42.644135 z"
           id="path3438"
           sodipodi:nodetypes="cssccssccccsccscc"
           inkscape:connector-curvature="0" />
        <path
           style="fill-opacity:1;stroke:none"
           d="m 57.938397,109.06487 c -0.135206,0 -1.139585,1.79064 -2.233063,3.98069 -1.525518,3.05534 -1.990341,4.16194 -1.990341,4.7574 0,0.42681 0.393214,5.51473 0.873805,11.3049 0.480598,5.79016 0.873813,10.74 0.873813,11.00148 0,1.42797 0.365937,-0.42572 1.086187,-5.50984 0.444743,-3.13933 0.859875,-5.9102 0.922357,-6.15914 0.08626,-0.34369 2.090154,-1.68706 8.325448,-5.5766 4.516343,-2.81726 8.32857,-5.23396 8.477158,-5.37028 0.223474,-0.20502 -1.138684,-0.95392 -7.906748,-4.3387 -4.500148,-2.25057 -8.293409,-4.08991 -8.428616,-4.08991 z"
           id="path3440"
           sodipodi:nodetypes="csssssssssc"
           inkscape:connector-curvature="0" />
      </g>
      <path
         id="use3251"
         d="m 111.40548,69.865889 c -0.15228,0 -1.86292,2.65822 -1.86292,2.8945 0,0.1623 1.62624,1.1799 2.71852,1.69906 2.1078,1.00184 3.95224,-1.12041 2.2634,-2.60322 -0.6392,-0.56122 -2.88155,-1.99034 -3.119,-1.99034 z"
         style="fill-opacity:1;stroke:none;filter:url(#filter3310)"
         inkscape:connector-curvature="0" />
      <path
         id="use3253"
         d="m 74.50527,31.442599 c -0.06588,0.07117 -4.92823,8.09084 -25.33437,41.79109 -5.68193,9.38357 -10.30585,17.08177 -10.27332,17.10602 0.03253,0.02424 6.04627,3.65637 13.36199,8.07059 14.90396,8.992881 31.248047,18.904671 39.709739,24.084341 3.097167,1.89587 5.674869,3.46043 5.728301,3.47096 0.05343,0.0105 2.33236,-3.67364 5.06687,-8.18588 24.55979,-40.526381 30.6744,-50.696451 30.53475,-50.820451 -0.36536,-0.32441 -58.73239,-35.58319 -58.79396,-35.51667 z m 4.454,19.13276 c 2.862859,0.0049 4.341558,0.3 7.542664,1.50489 3.925646,1.47761 9.588007,5.35878 12.348618,8.46502 1.613388,1.81539 3.178868,4.21945 3.828978,5.87394 0.28326,0.72088 0.56785,1.30819 0.63108,1.30464 0.0632,-0.0036 0.99447,-1.41872 2.06923,-3.14328 1.07476,-1.72456 2.09416,-3.22464 2.2634,-3.3314 0.31779,-0.20045 3.31412,1.58416 9.7636,5.81326 4.47551,2.9347 5.43703,4.17362 5.43703,6.9844 0,1.37879 -0.0772,1.70767 -0.66143,2.89448 -1.27431,2.5885 -3.04118,3.79561 -5.78898,3.95034 -1.52497,0.08588 -1.58854,0.10766 -1.3896,0.47938 0.38543,0.72017 0.41583,3.32619 0.0789,7.13611 -0.18415,2.08225 -0.37556,3.85203 -0.42477,3.93214 -0.0492,0.0801 -0.21962,0.14562 -0.37622,0.14563 -0.37119,0 -6.72149,-4.00162 -6.92372,-4.36297 -0.0852,-0.15224 -0.0225,-1.66205 0.13957,-3.3496 0.16207,-1.68756 0.29697,-3.83067 0.29734,-4.76347 6.2e-4,-1.58347 -0.0388,-1.73195 -0.54613,-2.29982 l -0.54007,-0.61288 -2.19058,3.52558 c -1.20385,1.939 -2.50022,4.1135 -2.88236,4.83022 -4.316644,8.09594 -8.174292,12.36039 -13.550097,14.982171 -2.616637,1.27613 -4.156822,1.8203 -6.377585,2.2452 -4.244228,0.81205 -9.092248,-0.13859 -14.108368,-2.76099 -3.89805,-2.037891 -5.39991,-3.055291 -8.22836,-5.582671 -4.39266,-3.92506 -6.60992,-9.27753 -6.27444,-15.15207 0.19509,-3.41594 1.22289,-7.49875 1.9236,-7.6337 0.46173,-0.08892 13.00997,3.24547 13.31344,3.53772 0.20522,0.19764 0.16178,0.55836 -0.24879,1.97214 -0.56866,1.95818 -0.79478,4.16315 -0.59468,5.7647 0.27635,2.21179 2.11981,4.379 4.94552,5.81326 1.20908,0.61369 1.34888,0.64321 3.5013,0.64322 2.12567,0 2.30116,-0.03053 3.313194,-0.58254 1.94788,-1.06249 4.727704,-4.23165 7.330273,-8.3558 0.854616,-1.35425 1.659334,-3.18265 2.28768,-5.20037 0.459025,-1.47398 0.519586,-1.93136 0.430838,-3.30105 -0.200022,-3.08727 -1.694409,-5.46007 -4.429723,-7.04508 -2.874799,-1.66585 -6.226698,-1.36212 -9.096102,0.82526 -0.46925,0.35772 -0.98008,0.64928 -1.13474,0.64928 -0.15465,0 -2.4132,-2.11681 -5.0244,-4.70278 -3.48645,-3.45278 -4.73222,-4.80532 -4.69065,-5.09115 0.08981,-0.61741 2.75482,-2.55415 5.28533,-3.83505 3.34892,-1.69516 5.29197,-2.17226 8.75022,-2.16631 z"
         style="fill-opacity:1;stroke:none;filter:url(#filter3310)"
         inkscape:connector-curvature="0" />
      <g
         transform="translate(-2.52409,-0.84137)"
         style="stroke:none"
         id="use3231">
        <path
           style="font-size:12px;fill-opacity:1;stroke:none"
           d="M 74.537448,2.6982069 C 63.670112,2.6080437 50.474711,4.7027016 45.575986,12.72629 c -6.07422,9.948952 -6.103988,17.549149 -0.627443,23.314481 2.249822,2.368458 8.150576,6.726743 15.90624,10.853663 L 69.914181,31.923862 C 65.953365,31.825678 62.230031,31.151894 59.19261,29.359044 53.012233,25.711059 52.98239,23.179808 55.306861,18.736541 59.366572,10.976202 80.906653,4.9373095 89.287875,4.4154163 86.743413,3.5971539 81.057857,2.7523082 74.537448,2.6982069 z M 151.09655,40.895198 c 3.59324,7.589843 8.70701,29.362559 3.87474,36.66691 -2.7677,4.181638 -5.0045,5.375633 -11.18391,1.728223 -2.47871,-1.463069 -4.51938,-3.681765 -6.27443,-6.30746 l -8.29986,13.73771 c 5.71864,3.485587 10.89527,5.811653 14.156,6.593656 9.32266,2.235817 16.44199,0.364461 22.16967,-9.774904 7.45166,-13.065745 -9.25393,-37.758776 -14.44221,-42.644135 z"
           id="path3444"
           sodipodi:nodetypes="cssccssccccsccscc"
           inkscape:connector-curvature="0" />
        <path
           style="fill-opacity:1;stroke:none"
           d="m 57.938397,109.06487 c -0.135206,0 -1.139585,1.79064 -2.233063,3.98069 -1.525518,3.05534 -1.990341,4.16194 -1.990341,4.7574 0,0.42681 0.393214,5.51473 0.873805,11.3049 0.480598,5.79016 0.873813,10.74 0.873813,11.00148 0,1.42797 0.365937,-0.42572 1.086187,-5.50984 0.444743,-3.13933 0.859875,-5.9102 0.922357,-6.15914 0.08626,-0.34369 2.090154,-1.68706 8.325448,-5.5766 4.516343,-2.81726 8.32857,-5.23396 8.477158,-5.37028 0.223474,-0.20502 -1.138684,-0.95392 -7.906748,-4.3387 -4.500148,-2.25057 -8.293409,-4.08991 -8.428616,-4.08991 z"
           id="path3446"
           sodipodi:nodetypes="csssssssssc"
           inkscape:connector-curvature="0" />
      </g>
      <g
         transform="translate(140.50786,129.85057)"
         style="fill:#d8e5ff;fill-opacity:1;stroke:#ffffff;stroke-opacity:1"
         id="g3245">
        <path
           id="use3233"
           d="m -29.58851,-61.43391 c -0.15228,0 -1.86292,2.65822 -1.86292,2.8945 0,0.1623 1.62624,1.1799 2.71852,1.69906 2.1078,1.00184 3.95224,-1.12041 2.2634,-2.60322 -0.6392,-0.56122 -2.88155,-1.99034 -3.119,-1.99034 z"
           style="fill:#d8e5ff;fill-opacity:1;stroke:none"
           inkscape:connector-curvature="0" />
        <path
           id="use3235"
           d="m -66.488722,-99.8572 c -0.06588,0.07117 -4.92823,8.09084 -25.33437,41.79109 -5.68193,9.38357 -10.305848,17.08177 -10.273318,17.10602 0.0325,0.02424 6.046268,3.65637 13.361988,8.07059 14.90396,8.99288 31.248047,18.90467 39.709739,24.08434 3.097167,1.89587 5.674869,3.46043 5.728301,3.47096 0.05343,0.01054 2.332362,-3.67364 5.066872,-8.18588 24.55979,-40.52638 30.6744,-50.69645 30.53475,-50.82045 -0.36536,-0.32441 -58.732392,-35.58319 -58.793962,-35.51667 z m 4.454,19.13276 c 2.862859,0.0049 4.341558,0.3 7.542664,1.50489 3.925646,1.47761 9.588007,5.35878 12.348618,8.46502 1.61339,1.81539 3.17887,4.21945 3.82898,5.87394 0.28326,0.72088 0.56785,1.30819 0.63108,1.30464 0.06322,-0.0036 0.99447,-1.41872 2.06923,-3.14328 1.07476,-1.72456 2.09416,-3.22464 2.2634,-3.3314 0.31779,-0.20045 3.31412,1.58416 9.7636,5.81326 4.47551,2.9347 5.43703,4.17362 5.43703,6.9844 0,1.37879 -0.07716,1.70767 -0.66143,2.89448 -1.27431,2.5885 -3.04118,3.79561 -5.78898,3.95034 -1.52497,0.08588 -1.58854,0.10766 -1.3896,0.47938 0.38543,0.72017 0.41583,3.32619 0.07889,7.13611 -0.18415,2.08225 -0.37556,3.85203 -0.42477,3.93214 -0.0492,0.0801 -0.21962,0.14562 -0.37622,0.14563 -0.37119,0 -6.72149,-4.00162 -6.92372,-4.36297 -0.08519,-0.15224 -0.0225,-1.66205 0.13957,-3.3496 0.16207,-1.68756 0.29697,-3.83067 0.29734,-4.76347 6.2e-4,-1.58347 -0.03875,-1.73195 -0.54613,-2.29982 l -0.54007,-0.61288 -2.19058,3.52558 c -1.20385,1.939 -2.50022,4.1135 -2.88236,4.83022 -4.316646,8.09594 -8.174294,12.36039 -13.550099,14.98217 -2.616637,1.27613 -4.156822,1.8203 -6.377585,2.2452 -4.244228,0.81205 -9.092248,-0.13859 -14.108368,-2.76099 -3.89805,-2.03789 -5.39991,-3.05529 -8.22836,-5.58267 -4.39266,-3.92506 -6.60992,-9.27753 -6.27444,-15.15207 0.19509,-3.41594 1.22289,-7.49875 1.9236,-7.6337 0.46173,-0.08892 13.00997,3.24547 13.31344,3.53772 0.20522,0.19764 0.16178,0.55836 -0.24879,1.97214 -0.56866,1.95818 -0.79478,4.16315 -0.59468,5.7647 0.27635,2.21179 2.11981,4.379 4.94552,5.81326 1.20908,0.61369 1.34888,0.64321 3.5013,0.64322 2.12567,0 2.30116,-0.03053 3.313194,-0.58254 1.94788,-1.06249 4.727704,-4.23165 7.330273,-8.3558 0.854616,-1.35425 1.659334,-3.18265 2.28768,-5.20037 0.459025,-1.47398 0.519586,-1.93136 0.430838,-3.30105 -0.200022,-3.08727 -1.694409,-5.46007 -4.429723,-7.04508 -2.874799,-1.66585 -6.226698,-1.36212 -9.096102,0.82526 -0.46925,0.35772 -0.98008,0.64928 -1.13474,0.64928 -0.15465,0 -2.4132,-2.11681 -5.0244,-4.70278 -3.48645,-3.45278 -4.73222,-4.80532 -4.69065,-5.09115 0.08981,-0.61741 2.75482,-2.55415 5.28533,-3.83505 3.34892,-1.69516 5.29197,-2.17226 8.75022,-2.16631 z"
           style="fill:#d8e5ff;fill-opacity:1;stroke:none"
           inkscape:connector-curvature="0" />
      </g>
    </g>
  </g>
</svg>
