<?xml version="1.0" encoding="UTF-8" standalone="no"?>
<!-- Created with Inkscape (http://www.inkscape.org/) -->

<svg
   xmlns:dc="http://purl.org/dc/elements/1.1/"
   xmlns:cc="http://creativecommons.org/ns#"
   xmlns:rdf="http://www.w3.org/1999/02/22-rdf-syntax-ns#"
   xmlns:svg="http://www.w3.org/2000/svg"
   xmlns="http://www.w3.org/2000/svg"
   xmlns:sodipodi="http://sodipodi.sourceforge.net/DTD/sodipodi-0.dtd"
   xmlns:inkscape="http://www.inkscape.org/namespaces/inkscape"
   id="svg2"
   version="1.1"
   inkscape:version="0.47 r22583"
   width="180"
   height="146"
   sodipodi:docname="ingsoc_0.png">
  <metadata
     id="metadata8">
    <rdf:RDF>
      <cc:Work
         rdf:about="">
        <dc:format>image/svg+xml</dc:format>
        <dc:type
           rdf:resource="http://purl.org/dc/dcmitype/StillImage" />
        <dc:title></dc:title>
      </cc:Work>
    </rdf:RDF>
  </metadata>
  <defs
     id="defs6">
    <inkscape:perspective
       sodipodi:type="inkscape:persp3d"
       inkscape:vp_x="0 : 0.5 : 1"
       inkscape:vp_y="0 : 1000 : 0"
       inkscape:vp_z="1 : 0.5 : 1"
       inkscape:persp3d-origin="0.5 : 0.33333333 : 1"
       id="perspective10" />
  </defs>
  <sodipodi:namedview
     pagecolor="#ffffff"
     bordercolor="#666666"
     borderopacity="1"
     objecttolerance="10"
     gridtolerance="10"
     guidetolerance="10"
     inkscape:pageopacity="0"
     inkscape:pageshadow="2"
     inkscape:window-width="1256"
     inkscape:window-height="753"
     id="namedview4"
     showgrid="false"
     inkscape:zoom="3.4383562"
     inkscape:cx="90"
     inkscape:cy="73"
     inkscape:window-x="1600"
     inkscape:window-y="100"
     inkscape:window-maximized="1"
     inkscape:current-layer="svg2" />
  <g
     id="g3614"
     transform="translate(1.1472445,-2.5871479)">
    <path
       transform="translate(19.641949,16.394068)"
       d="m 69.28814,-1.8601122 2.515173,7.9872557 8.373563,-0.076125 -6.819101,4.86027 2.659973,7.940207 -6.729609,-4.983444 -6.729609,4.983444 2.659973,-7.940208 -6.8191,-4.8602696 8.373563,0.076126 2.515174,-7.9872556 z"
       inkscape:randomized="0"
       inkscape:rounded="0"
       inkscape:flatsided="false"
       sodipodi:arg2="-0.94247777"
       sodipodi:arg1="-1.5707963"
       sodipodi:r2="4.2790685"
       sodipodi:r1="11.449095"
       sodipodi:cy="9.5889826"
       sodipodi:cx="69.288139"
       sodipodi:sides="5"
       id="path2826"
       style="fill:#900000;fill-opacity:1;stroke:#d60750;stroke-width:0.16;stroke-linejoin:round;stroke-miterlimit:4;stroke-opacity:1;stroke-dasharray:none;stroke-dashoffset:0"
       sodipodi:type="star" />
    <rect
       style="fill:#333333;fill-opacity:1;stroke:none"
       id="rect3612"
       width="13.140853"
       height="11.893677"
       x="137.41759"
       y="46.398304" />
    <path
       sodipodi:nodetypes="ccccccc"
       id="path2830"
       d="m 38.04661,32.788136 13.919492,0 37.165132,78.942554 37.072156,-78.942554 13.30085,0 L 89.131234,136.72034 38.04661,32.788136 z"
       style="fill:#000000;stroke:none" />
    <path
       style="fill:#000000;stroke:none"
       d="m 53.822029,26.601694 23.199158,0.07733 0.0026,2.617935 c -4.637802,2.013102 -5.557932,6.762817 -4.363427,9.390578 l 16.470869,36.233829 c 0,0 9.785876,-24.618989 15.932201,-36.148199 1.62635,-3.050702 -0.77709,-8.690549 -4.40413,-9.141088 l 0.17968,-3.030386 22.88983,0 -34.597581,73.309323 -35.3092,-73.309323 z"
       id="path2832"
       sodipodi:nodetypes="cccscsccccc" />
    <rect
       y="46.398304"
       x="28.151421"
       height="11.893677"
       width="13.140853"
       id="rect3610"
       style="fill:#333333;fill-opacity:1;stroke:none" />
    <path
       sodipodi:nodetypes="ccccccccccccccc"
       id="path2828"
       d="m 10.826271,46.398305 30.468221,0 -9.743645,7.423729 113.985173,0 -8.11971,-7.423729 29.46293,0 -7.26907,15.035431 7.26907,13.886179 -20.56992,0 0,6.650424 -114.44915,0 0,-6.650424 -21.033899,0 8.017189,-13.886179 -8.017189,-15.035431 z"
       style="fill:#900000;fill-opacity:1;stroke:none" />
    <text
       transform="scale(0.94031704,1.0634711)"
       id="text3606"
       y="71.176277"
       x="43.516876"
       style="font-size:20.71666145px;font-style:normal;font-weight:normal;fill:#f9f9f9;fill-opacity:1;stroke:none;font-family:Bitstream Vera Sans"
       xml:space="preserve"><tspan
         style="fill:#f9f9f9;font-family:Arial Black;-inkscape-font-specification:Arial Black"
         y="71.176277"
         x="43.516876"
         id="tspan3608"
         sodipodi:role="line">INGSOFT</tspan></text>
  </g>
</svg>
