<?xml version="1.0" encoding="UTF-8" standalone="no"?>
<!-- Created with Inkscape (http://www.inkscape.org/) -->

<svg
   xmlns:dc="http://purl.org/dc/elements/1.1/"
   xmlns:cc="http://creativecommons.org/ns#"
   xmlns:rdf="http://www.w3.org/1999/02/22-rdf-syntax-ns#"
   xmlns:svg="http://www.w3.org/2000/svg"
   xmlns="http://www.w3.org/2000/svg"
   xmlns:sodipodi="http://sodipodi.sourceforge.net/DTD/sodipodi-0.dtd"
   xmlns:inkscape="http://www.inkscape.org/namespaces/inkscape"
   version="1.0"
   width="748.73621"
   height="400.42914"
   id="svg2"
   inkscape:version="0.47 r22583"
   sodipodi:docname="debian-time.svg">
  <sodipodi:namedview
     pagecolor="#ffffff"
     bordercolor="#666666"
     borderopacity="1"
     objecttolerance="10"
     gridtolerance="10"
     guidetolerance="10"
     inkscape:pageopacity="0"
     inkscape:pageshadow="2"
     inkscape:window-width="1280"
     inkscape:window-height="977"
     id="namedview6"
     showgrid="false"
     showguides="true"
     inkscape:guide-bbox="true"
     inkscape:snap-bbox="true"
     inkscape:snap-bbox-midpoints="true"
     inkscape:snap-bbox-edge-midpoints="true"
     inkscape:bbox-nodes="true"
     inkscape:bbox-paths="true"
     inkscape:snap-midpoints="true"
     inkscape:snap-global="false"
     inkscape:zoom="1"
     inkscape:cx="380.31506"
     inkscape:cy="205.64697"
     inkscape:window-x="0"
     inkscape:window-y="24"
     inkscape:window-maximized="1"
     inkscape:current-layer="layer2">
    <sodipodi:guide
       id="guide3592"
       position="221.95779,325.13817"
       orientation="1,0" />
    <sodipodi:guide
       id="guide3615"
       position="172.76715,227.35677"
       orientation="0,1" />
    <sodipodi:guide
       orientation="0,1"
       position="252,312"
       id="guide3068" />
  </sodipodi:namedview>
  <metadata
     id="metadata8">
    <rdf:RDF>
      <cc:Work
         rdf:about="">
        <dc:format>image/svg+xml</dc:format>
        <dc:type
           rdf:resource="http://purl.org/dc/dcmitype/StillImage" />
      </cc:Work>
    </rdf:RDF>
  </metadata>
  <defs
     id="defs4">
    <inkscape:path-effect
       effect="bend_path"
       id="path-effect4096"
       is_visible="true"
       bendpath="m 495.50939,41.429135 c 22.60611,2.052317 45.65227,3.224523 70.8968,0"
       prop_scale="1"
       scale_y_rel="false"
       vertical="false"
       bendpath-nodetypes="cc" />
    <inkscape:path-effect
       effect="bend_path"
       id="path-effect3953"
       is_visible="true"
       bendpath="m 460.64529,126.07812 c 32.0717,-30.908812 92.59167,-55.390887 145.125,0"
       prop_scale="1"
       scale_y_rel="false"
       vertical="false"
       bendpath-nodetypes="cc" />
    <marker
       style="overflow:visible"
       id="TriangleOutL"
       refX="0.0"
       refY="0.0"
       orient="auto"
       inkscape:stockid="TriangleOutL">
      <path
         transform="scale(0.8)"
         style="fill-rule:evenodd;stroke:#000000;stroke-width:1.0pt;marker-start:none"
         d="M 5.77,0.0 L -2.88,5.0 L -2.88,-5.0 L 5.77,0.0 z "
         id="path3773" />
    </marker>
    <marker
       style="overflow:visible"
       id="Arrow2Lstart"
       refX="0.0"
       refY="0.0"
       orient="auto"
       inkscape:stockid="Arrow2Lstart">
      <path
         transform="scale(1.1) translate(1,0)"
         d="M 8.7185878,4.0337352 L -2.2072895,0.016013256 L 8.7185884,-4.0017078 C 6.9730900,-1.6296469 6.9831476,1.6157441 8.7185878,4.0337352 z "
         style="font-size:12.0;fill-rule:evenodd;stroke-width:0.62500000;stroke-linejoin:round"
         id="path3648" />
    </marker>
    <marker
       style="overflow:visible;"
       id="Arrow1Lend"
       refX="0.0"
       refY="0.0"
       orient="auto"
       inkscape:stockid="Arrow1Lend">
      <path
         transform="scale(0.8) rotate(180) translate(12.5,0)"
         style="fill-rule:evenodd;stroke:#000000;stroke-width:1.0pt;marker-start:none;"
         d="M 0.0,0.0 L 5.0,-5.0 L -12.5,0.0 L 5.0,5.0 L 0.0,0.0 z "
         id="path3633" />
    </marker>
    <marker
       style="overflow:visible"
       id="Arrow1Lstart"
       refX="0.0"
       refY="0.0"
       orient="auto"
       inkscape:stockid="Arrow1Lstart">
      <path
         transform="scale(0.8) translate(12.5,0)"
         style="fill-rule:evenodd;stroke:#000000;stroke-width:1.0pt;marker-start:none"
         d="M 0.0,0.0 L 5.0,-5.0 L -12.5,0.0 L 5.0,5.0 L 0.0,0.0 z "
         id="path3630" />
    </marker>
    <inkscape:perspective
       id="perspective10"
       inkscape:persp3d-origin="374.3681 : 133.47638 : 1"
       inkscape:vp_z="748.73621 : 200.21457 : 1"
       inkscape:vp_y="0 : 1000 : 0"
       inkscape:vp_x="0 : 200.21457 : 1"
       sodipodi:type="inkscape:persp3d" />
    <marker
       style="overflow:visible;"
       id="Arrow1LendC"
       refX="0.0"
       refY="0.0"
       orient="auto"
       inkscape:stockid="Arrow1LendC">
      <path
         transform="scale(0.8) rotate(180) translate(12.5,0)"
         style="marker-start:none;stroke:#ffffff;stroke-width:1.0pt;fill:#ffffff;fill-rule:evenodd"
         d="M 0.0,0.0 L 5.0,-5.0 L -12.5,0.0 L 5.0,5.0 L 0.0,0.0 z "
         id="path4843" />
    </marker>
    <marker
       style="overflow:visible;"
       id="Arrow1Lendv"
       refX="0.0"
       refY="0.0"
       orient="auto"
       inkscape:stockid="Arrow1Lendv">
      <path
         transform="scale(0.8) rotate(180) translate(12.5,0)"
         style="marker-start:none;stroke:#ffffff;stroke-width:1.0pt;fill:#ffffff;fill-rule:evenodd"
         d="M 0.0,0.0 L 5.0,-5.0 L -12.5,0.0 L 5.0,5.0 L 0.0,0.0 z "
         id="path5288" />
    </marker>
    <marker
       style="overflow:visible"
       id="TriangleOutLT"
       refX="0.0"
       refY="0.0"
       orient="auto"
       inkscape:stockid="TriangleOutLT">
      <path
         transform="scale(0.8)"
         style="marker-start:none;stroke:#ffffff;stroke-width:1.0pt;fill:#ffffff;fill-rule:evenodd"
         d="M 5.77,0.0 L -2.88,5.0 L -2.88,-5.0 L 5.77,0.0 z "
         id="path5555" />
    </marker>
    <inkscape:perspective
       id="perspective6057"
       inkscape:persp3d-origin="162 : 134.33333 : 1"
       inkscape:vp_z="324 : 201.5 : 1"
       inkscape:vp_y="0 : 1000 : 0"
       inkscape:vp_x="0 : 201.5 : 1"
       sodipodi:type="inkscape:persp3d" />
    <inkscape:perspective
       id="perspective2979"
       inkscape:persp3d-origin="175 : 154.60409 : 1"
       inkscape:vp_z="350 : 231.90613 : 1"
       inkscape:vp_y="0 : 1000 : 0"
       inkscape:vp_x="0 : 231.90613 : 1"
       sodipodi:type="inkscape:persp3d" />
    <inkscape:perspective
       id="perspective2831"
       inkscape:persp3d-origin="0.5 : 0.33333333 : 1"
       inkscape:vp_z="1 : 0.5 : 1"
       inkscape:vp_y="0 : 1000 : 0"
       inkscape:vp_x="0 : 0.5 : 1"
       sodipodi:type="inkscape:persp3d" />
  </defs>
  <g
     inkscape:label="shirt"
     id="layer3"
     inkscape:groupmode="layer"
     style="display:inline">
    <g
       style="fill:#000000"
       id="layer1"
       transform="translate(-26.92418,-23.19062)">
      <path
         id="path2222"
         style="fill:#000000;fill-opacity:1;stroke:#000001;stroke-width:0.98820847;stroke-opacity:1"
         d="m 250.26523,411.55698 c -63.96166,0.51755 -115.73012,-11.57702 -118.30545,-14.15239 -1.41573,-1.41571 -1.64981,-213.49623 -2.4405,-213.23268 l -15.61174,38.55925 c 0,0 -23.27931,0.51221 -42.78463,-5.63409 C 51.840609,211.02105 35.071547,201.00542 36.098376,199.70415 37.360654,198.10454 71.170271,88.753015 96.171201,70.187262 105.57256,63.205788 194.63293,44.255896 196.62709,46.113728 c 1.11395,1.037817 22.26003,20.813074 52.09855,20.179119 30.1517,-0.633956 52.84902,-19.583111 52.84902,-19.583111 0,0 72.10973,12.709001 91.20694,24.956396 17.30301,11.096738 46.31442,94.281828 57.30202,130.189588 -3.8887,2.55357 -11.99393,7.10172 -33.86528,13.44145 -21.87134,6.33976 -33.88621,6.95364 -39.75082,7.02109 -0.65086,-2.429 -8.80261,-19.06415 -11.76751,-29.21453 -2.19321,-7.50851 -3.81753,-9.82882 -3.81753,-5.45323 0,1.21293 -0.92862,27.56104 -2.06357,58.55135 l -1.29833,154.43201 c 0,0 -42.40788,10.40556 -107.25535,10.92312 z m 191.2193,-14.60724 c 0,-47.06294 0.0166,-174.09843 0.0166,-187.40041 6.80595,-3.27616 6.74869,-3.3675 12.02685,-6.41485 -11.92675,-36.92409 -30.25742,-89.43837 -44.64371,-114.835948 -3.82007,-6.74395 -0.46371,-2.869303 -6.75243,-12.257847 3.05301,-5.683597 3.6064,-10.405784 9.91595,-12.722215 13.20217,-4.846926 75.1783,-20.28815 95.47267,-22.221244 12.37191,4.831233 21.62494,7.720794 55.84006,7.548035 33.99368,-0.172758 49.17972,-7.714074 49.17972,-7.714074 0,0 78.8039,13.653879 91.92021,24.446598 14.3342,11.794842 52.27008,124.104065 54.95939,134.140725 -0.91134,1.66723 -11.63099,7.04286 -31.90115,12.63741 -20.41569,5.63472 -40.71486,5.40597 -40.71486,5.40597 0,0 -13.43213,-36.42277 -13.43912,-36.06961 l -4.29687,217.26043 c 0,0 -44.70932,12.92274 -104.70126,13.24855 -59.99366,0.32581 -105.78165,-6.8875 -122.88203,-15.05152 z" />
    </g>
    <g
       style="fill:#d62766;fill-opacity:1"
       transform="matrix(0.11370749,0,0,0.11370749,263.59452,104.58865)"
       id="g3965">
      <g
         transform="matrix(3.718833,0,0,3.716135,-1017.019,-1477.584)"
         style="fill:#d62766;fill-opacity:1;stroke-miterlimit:10"
         id="g3967">
        <g
           style="fill:#d62766;fill-opacity:1"
           transform="matrix(0.1,0,0,-0.1,0,840)"
           id="g3969">
          <path
             d="m 3255.46,3850.9 c -17.97,-0.25 3.4,-9.26 26.86,-12.87 6.49,5.07 12.36,10.17 17.6,15.15 -14.61,-3.57 -29.48,-3.65 -44.46,-2.28"
             style="fill:#d62766;fill-opacity:1;stroke:none"
             id="path3971" />
          <path
             d="m 3351.91,3874.94 c 10.71,14.77 18.5,30.94 21.24,47.66 -2.4,-11.92 -8.85,-22.21 -14.96,-33.07 -33.58,-21.15 -3.16,12.56 -0.02,25.37 -36.1,-45.47 -4.96,-27.26 -6.26,-39.96"
             style="fill:#d62766;fill-opacity:1;stroke:none"
             id="path3973" />
          <path
             d="m 3387.51,3967.58 c 2.18,32.36 -6.37,22.13 -9.24,9.78 3.35,-1.74 6,-22.81 9.24,-9.78"
             style="fill:#d62766;fill-opacity:1;stroke:none"
             id="path3975" />
          <path
             d="m 3187.31,4409.88 c 9.59,-1.72 20.74,-3.04 19.16,-5.33 10.49,2.3 12.88,4.42 -19.16,5.33"
             style="fill:#d62766;fill-opacity:1;stroke:none"
             id="path3977" />
          <path
             d="m 3206.47,4404.55 -6.77,-1.4 6.31,0.56 0.46,0.84"
             style="fill:#d62766;fill-opacity:1;stroke:none"
             id="path3979" />
          <path
             d="m 3505.52,3955.31 c 1.07,-29.06 -8.49,-43.16 -17.13,-68.12 l -15.53,-7.76 c -12.7,-24.68 1.24,-15.68 -7.87,-35.31 -19.84,-17.64 -60.2,-55.19 -73.11,-58.63 -9.45,0.21 6.38,11.13 8.45,15.41 -26.56,-18.24 -21.32,-27.38 -61.94,-38.46 l -1.18,2.64 c -100.19,-47.13 -239.35,46.27 -237.52,173.71 -1.07,-8.09 -3.04,-6.07 -5.26,-9.34 -5.17,65.57 30.28,131.43 90.07,158.32 58.49,28.95 127.04,17.07 168.94,-21.97 -23.01,30.14 -68.81,62.09 -123.09,59.1 -53.17,-0.84 -102.91,-34.63 -119.51,-71.31 -27.24,-17.15 -30.4,-66.11 -42.27,-75.07 -15.98,-117.37 30.03,-168.07 107.87,-227.72 12.24,-8.26 3.44,-9.51 5.1,-15.8 -25.86,12.11 -49.54,30.39 -69.01,52.77 10.33,-15.11 21.48,-29.82 35.89,-41.36 -24.38,8.26 -56.95,59.08 -66.46,61.15 42.03,-75.26 170.51,-131.97 237.81,-103.83 -31.14,-1.15 -70.69,-0.64 -105.67,12.29 -14.7,7.55 -34.68,23.22 -31.1,26.15 91.81,-34.3 186.67,-25.98 266.11,37.71 20.22,15.74 42.3,42.52 48.68,42.89 -9.61,-14.45 1.64,-6.95 -5.74,-19.7 20.13,32.48 -8.75,13.22 20.81,56.09 l 10.92,-15.04 c -4.06,26.97 33.49,59.71 29.67,102.35 8.62,13.04 9.61,-14.03 0.47,-44.03 12.68,33.28 3.35,38.63 6.6,66.09 3.52,-9.23 8.15,-19.04 10.52,-28.78 -8.27,32.16 8.46,54.16 12.61,72.85 -4.09,1.81 -12.75,-14.22 -14.72,23.77 0.28,16.5 4.59,8.65 6.24,12.71 -3.24,1.86 -11.74,14.51 -16.91,38.77 3.74,5.7 10.02,-14.78 15.11,-15.62 -3.27,19.29 -8.92,34 -9.16,48.8 -14.9,31.14 -5.27,-4.15 -17.36,13.37 -15.85,49.47 13.16,11.48 15.12,33.96 24.05,-34.83 37.75,-88.81 44.05,-111.17 -4.81,27.26 -12.56,53.67 -22.05,79.22 7.32,-3.07 -11.75,56.09 9.51,16.91 -22.71,83.52 -97.15,161.56 -165.65,198.18 8.37,-7.67 18.96,-17.3 15.16,-18.81 -34.06,20.28 -28.08,21.86 -32.96,30.43 -27.74,11.29 -29.56,-0.91 -47.94,-0.02 -52.3,27.74 -62.38,24.79 -110.51,42.17 l 2.19,-10.23 c -34.65,11.54 -40.38,-4.38 -77.82,-0.04 -2.28,1.78 11.99,6.44 23.75,8.15 -33.5,-4.42 -31.93,6.6 -64.71,-1.22 8.08,5.67 16.62,9.42 25.24,14.24 -27.32,-1.66 -65.22,-15.9 -53.52,-2.95 -44.56,-19.88 -123.7,-47.79 -168.11,-89.43 l -1.4,9.33 c -20.35,-24.43 -88.74,-72.96 -94.19,-104.6 l -5.44,-1.27 c -10.59,-17.93 -17.44,-38.25 -25.84,-56.7 -13.85,-23.6 -20.3,-9.08 -18.33,-12.78 -27.24,-55.23 -40.77,-101.64 -52.46,-139.7 8.33,-12.45 0.2,-74.95 3.35,-124.97 -13.68,-247.05 173.38,-486.91 377.85,-542.28 29.97,-10.72 74.53,-10.31 112.44,-11.41 -44.73,12.8 -50.51,6.78 -94.07,21.98 -31.43,14.8 -38.32,31.7 -60.58,51.01 l 8.81,-15.56 c -43.66,15.44 -25.39,19.12 -60.91,30.37 l 9.41,12.28 c -14.15,1.08 -37.48,23.85 -43.86,36.47 l -15.48,-0.61 c -18.6,22.95 -28.51,39.49 -27.79,52.31 l -5,-8.91 c -5.67,9.73 -68.43,86.07 -35.87,68.3 -6.05,5.53 -14.09,9 -22.81,24.85 l 6.63,7.57 c -15.67,20.16 -28.84,46 -27.84,54.61 8.36,-11.29 14.16,-13.4 19.9,-15.33 -39.57,98.18 -41.79,5.41 -71.76,99.94 l 6.34,0.51 c -4.86,7.32 -7.81,15.27 -11.72,23.07 l 2.76,27.5 c -28.47,32.89 -7.95,140.01 -3.84,198.76 2.85,23.89 23.78,49.32 39.7,89.2 l -9.7,1.67 c 18.54,32.34 105.86,129.88 146.3,124.86 19.59,24.61 -3.89,0.09 -7.72,6.29 43.03,44.53 56.56,31.46 85.6,39.47 31.32,18.59 -26.88,-7.25 -12.03,7.09 54.14,13.83 38.37,31.44 109,38.46 7.45,-4.24 -17.29,-6.55 -23.5,-12.05 45.11,22.07 142.75,17.05 206.16,-12.25 73.6,-34.39 156.27,-136.05 159.53,-231.7 l 3.72,-1 c -1.87,-38.02 5.82,-81.99 -7.52,-122.38 l 9.08,19.12"
             style="fill:#d62766;fill-opacity:1;stroke:none"
             id="path3981" />
          <path
             d="m 3059.32,3826.23 -2.52,-12.6 c 11.81,-16.03 21.18,-33.41 36.26,-45.95 -10.85,21.17 -18.91,29.92 -33.74,58.55"
             style="fill:#d62766;fill-opacity:1;stroke:none"
             id="path3983" />
          <path
             d="m 3087.24,3827.32 c -6.25,6.92 -9.95,15.24 -14.09,23.52 3.96,-14.57 12.07,-27.09 19.62,-39.82 l -5.53,16.3"
             style="fill:#d62766;fill-opacity:1;stroke:none"
             id="path3985" />
          <path
             d="m 3581.28,3934.71 -2.63,-6.62 c -4.84,-34.38 -15.29,-68.4 -31.31,-99.94 17.69,33.28 29.13,69.68 33.94,106.56"
             style="fill:#d62766;fill-opacity:1;stroke:none"
             id="path3987" />
          <path
             d="m 3190.88,4418.5 c 12.15,4.45 29.86,2.44 42.75,5.37 -16.8,-1.41 -33.51,-2.25 -50.04,-4.38 l 7.29,-0.99"
             style="fill:#d62766;fill-opacity:1;stroke:none"
             id="path3989" />
          <path
             d="m 2764.32,4191.68 c 2.8,-25.92 -19.5,-35.98 4.94,-18.89 13.1,29.51 -5.12,8.15 -4.94,18.89"
             style="fill:#d62766;fill-opacity:1;stroke:none"
             id="path3991" />
          <path
             d="m 2735.6,4071.72 c 5.63,17.28 6.65,27.66 8.8,37.66 -15.56,-19.89 -7.16,-24.13 -8.8,-37.66"
             style="fill:#d62766;fill-opacity:1;stroke:none"
             id="path3993" />
        </g>
      </g>
    </g>
  </g>
  <g
     inkscape:label="shape"
     id="layer2"
     inkscape:groupmode="layer">
    <text
       xml:space="preserve"
       style="font-size:15.46740818px;font-style:normal;font-weight:normal;fill:#ffffff;fill-opacity:1;stroke:none;font-family:Bitstream Vera Sans"
       x="156.41101"
       y="179.50114"
       id="text3617"><tspan
         sodipodi:role="line"
         id="tspan3619"
         x="156.41101"
         y="179.50114" /></text>
    <g
       id="g4015"
       transform="translate(-3,4)">
      <path
         sodipodi:type="arc"
         style="fill:none;stroke:#d62766;stroke-width:3;stroke-miterlimit:4;stroke-opacity:1;stroke-dasharray:none;display:inline"
         id="path2818"
         sodipodi:cx="-39.592472"
         sodipodi:cy="126.88116"
         sodipodi:rx="111.57878"
         sodipodi:ry="111.57878"
         d="m 71.986309,126.88116 c 0,61.62326 -49.955522,111.57878 -111.578781,111.57878 -61.623258,0 -111.578778,-49.95552 -111.578778,-111.57878 0,-61.623262 49.95552,-111.578784 111.578778,-111.578784 61.623259,0 111.578781,49.955522 111.578781,111.578784 z"
         transform="matrix(0.66666666,0,0,0.66666666,560.35277,101.58482)" />
      <g
         style="fill:#d62766;fill-opacity:1;display:inline"
         transform="matrix(0.20157259,0,0,0.20157259,496.11777,152.90469)"
         id="layer1-9">
        <g
           transform="matrix(3.718833,0,0,3.716135,-1017.019,-1477.584)"
           style="fill:#d62766;fill-opacity:1;stroke-miterlimit:10"
           id="g6">
          <g
             style="fill:#d62766;fill-opacity:1"
             transform="matrix(0.1,0,0,-0.1,0,840)"
             id="g8">
            <path
               d="m 3255.46,3850.9 c -17.97,-0.25 3.4,-9.26 26.86,-12.87 6.49,5.07 12.36,10.17 17.6,15.15 -14.61,-3.57 -29.48,-3.65 -44.46,-2.28"
               style="fill:#d62766;fill-opacity:1;stroke:none"
               id="path10" />
            <path
               d="m 3351.91,3874.94 c 10.71,14.77 18.5,30.94 21.24,47.66 -2.4,-11.92 -8.85,-22.21 -14.96,-33.07 -33.58,-21.15 -3.16,12.56 -0.02,25.37 -36.1,-45.47 -4.96,-27.26 -6.26,-39.96"
               style="fill:#d62766;fill-opacity:1;stroke:none"
               id="path12" />
            <path
               d="m 3387.51,3967.58 c 2.18,32.36 -6.37,22.13 -9.24,9.78 3.35,-1.74 6,-22.81 9.24,-9.78"
               style="fill:#d62766;fill-opacity:1;stroke:none"
               id="path14" />
            <path
               d="m 3187.31,4409.88 c 9.59,-1.72 20.74,-3.04 19.16,-5.33 10.49,2.3 12.88,4.42 -19.16,5.33"
               style="fill:#d62766;fill-opacity:1;stroke:none"
               id="path16" />
            <path
               d="m 3206.47,4404.55 -6.77,-1.4 6.31,0.56 0.46,0.84"
               style="fill:#d62766;fill-opacity:1;stroke:none"
               id="path18" />
            <path
               d="m 3505.52,3955.31 c 1.07,-29.06 -8.49,-43.16 -17.13,-68.12 l -15.53,-7.76 c -12.7,-24.68 1.24,-15.68 -7.87,-35.31 -19.84,-17.64 -60.2,-55.19 -73.11,-58.63 -9.45,0.21 6.38,11.13 8.45,15.41 -26.56,-18.24 -21.32,-27.38 -61.94,-38.46 l -1.18,2.64 c -100.19,-47.13 -239.35,46.27 -237.52,173.71 -1.07,-8.09 -3.04,-6.07 -5.26,-9.34 -5.17,65.57 30.28,131.43 90.07,158.32 58.49,28.95 127.04,17.07 168.94,-21.97 -23.01,30.14 -68.81,62.09 -123.09,59.1 -53.17,-0.84 -102.91,-34.63 -119.51,-71.31 -27.24,-17.15 -30.4,-66.11 -42.27,-75.07 -15.98,-117.37 30.03,-168.07 107.87,-227.72 12.24,-8.26 3.44,-9.51 5.1,-15.8 -25.86,12.11 -49.54,30.39 -69.01,52.77 10.33,-15.11 21.48,-29.82 35.89,-41.36 -24.38,8.26 -56.95,59.08 -66.46,61.15 42.03,-75.26 170.51,-131.97 237.81,-103.83 -31.14,-1.15 -70.69,-0.64 -105.67,12.29 -14.7,7.55 -34.68,23.22 -31.1,26.15 91.81,-34.3 186.67,-25.98 266.11,37.71 20.22,15.74 42.3,42.52 48.68,42.89 -9.61,-14.45 1.64,-6.95 -5.74,-19.7 20.13,32.48 -8.75,13.22 20.81,56.09 l 10.92,-15.04 c -4.06,26.97 33.49,59.71 29.67,102.35 8.62,13.04 9.61,-14.03 0.47,-44.03 12.68,33.28 3.35,38.63 6.6,66.09 3.52,-9.23 8.15,-19.04 10.52,-28.78 -8.27,32.16 8.46,54.16 12.61,72.85 -4.09,1.81 -12.75,-14.22 -14.72,23.77 0.28,16.5 4.59,8.65 6.24,12.71 -3.24,1.86 -11.74,14.51 -16.91,38.77 3.74,5.7 10.02,-14.78 15.11,-15.62 -3.27,19.29 -8.92,34 -9.16,48.8 -14.9,31.14 -5.27,-4.15 -17.36,13.37 -15.85,49.47 13.16,11.48 15.12,33.96 24.05,-34.83 37.75,-88.81 44.05,-111.17 -4.81,27.26 -12.56,53.67 -22.05,79.22 7.32,-3.07 -11.75,56.09 9.51,16.91 -22.71,83.52 -97.15,161.56 -165.65,198.18 8.37,-7.67 18.96,-17.3 15.16,-18.81 -34.06,20.28 -28.08,21.86 -32.96,30.43 -27.74,11.29 -29.56,-0.91 -47.94,-0.02 -52.3,27.74 -62.38,24.79 -110.51,42.17 l 2.19,-10.23 c -34.65,11.54 -40.38,-4.38 -77.82,-0.04 -2.28,1.78 11.99,6.44 23.75,8.15 -33.5,-4.42 -31.93,6.6 -64.71,-1.22 8.08,5.67 16.62,9.42 25.24,14.24 -27.32,-1.66 -65.22,-15.9 -53.52,-2.95 -44.56,-19.88 -123.7,-47.79 -168.11,-89.43 l -1.4,9.33 c -20.35,-24.43 -88.74,-72.96 -94.19,-104.6 l -5.44,-1.27 c -10.59,-17.93 -17.44,-38.25 -25.84,-56.7 -13.85,-23.6 -20.3,-9.08 -18.33,-12.78 -27.24,-55.23 -40.77,-101.64 -52.46,-139.7 8.33,-12.45 0.2,-74.95 3.35,-124.97 -13.68,-247.05 173.38,-486.91 377.85,-542.28 29.97,-10.72 74.53,-10.31 112.44,-11.41 -44.73,12.8 -50.51,6.78 -94.07,21.98 -31.43,14.8 -38.32,31.7 -60.58,51.01 l 8.81,-15.56 c -43.66,15.44 -25.39,19.12 -60.91,30.37 l 9.41,12.28 c -14.15,1.08 -37.48,23.85 -43.86,36.47 l -15.48,-0.61 c -18.6,22.95 -28.51,39.49 -27.79,52.31 l -5,-8.91 c -5.67,9.73 -68.43,86.07 -35.87,68.3 -6.05,5.53 -14.09,9 -22.81,24.85 l 6.63,7.57 c -15.67,20.16 -28.84,46 -27.84,54.61 8.36,-11.29 14.16,-13.4 19.9,-15.33 -39.57,98.18 -41.79,5.41 -71.76,99.94 l 6.34,0.51 c -4.86,7.32 -7.81,15.27 -11.72,23.07 l 2.76,27.5 c -28.47,32.89 -7.95,140.01 -3.84,198.76 2.85,23.89 23.78,49.32 39.7,89.2 l -9.7,1.67 c 18.54,32.34 105.86,129.88 146.3,124.86 19.59,24.61 -3.89,0.09 -7.72,6.29 43.03,44.53 56.56,31.46 85.6,39.47 31.32,18.59 -26.88,-7.25 -12.03,7.09 54.14,13.83 38.37,31.44 109,38.46 7.45,-4.24 -17.29,-6.55 -23.5,-12.05 45.11,22.07 142.75,17.05 206.16,-12.25 73.6,-34.39 156.27,-136.05 159.53,-231.7 l 3.72,-1 c -1.87,-38.02 5.82,-81.99 -7.52,-122.38 l 9.08,19.12"
               style="fill:#d62766;fill-opacity:1;stroke:none"
               id="path20" />
            <path
               d="m 3059.32,3826.23 -2.52,-12.6 c 11.81,-16.03 21.18,-33.41 36.26,-45.95 -10.85,21.17 -18.91,29.92 -33.74,58.55"
               style="fill:#d62766;fill-opacity:1;stroke:none"
               id="path22" />
            <path
               d="m 3087.24,3827.32 c -6.25,6.92 -9.95,15.24 -14.09,23.52 3.96,-14.57 12.07,-27.09 19.62,-39.82 l -5.53,16.3"
               style="fill:#d62766;fill-opacity:1;stroke:none"
               id="path24" />
            <path
               d="m 3581.28,3934.71 -2.63,-6.62 c -4.84,-34.38 -15.29,-68.4 -31.31,-99.94 17.69,33.28 29.13,69.68 33.94,106.56"
               style="fill:#d62766;fill-opacity:1;stroke:none"
               id="path26" />
            <path
               d="m 3190.88,4418.5 c 12.15,4.45 29.86,2.44 42.75,5.37 -16.8,-1.41 -33.51,-2.25 -50.04,-4.38 l 7.29,-0.99"
               style="fill:#d62766;fill-opacity:1;stroke:none"
               id="path28" />
            <path
               d="m 2764.32,4191.68 c 2.8,-25.92 -19.5,-35.98 4.94,-18.89 13.1,29.51 -5.12,8.15 -4.94,18.89"
               style="fill:#d62766;fill-opacity:1;stroke:none"
               id="path30" />
            <path
               d="m 2735.6,4071.72 c 5.63,17.28 6.65,27.66 8.8,37.66 -15.56,-19.89 -7.16,-24.13 -8.8,-37.66"
               style="fill:#d62766;fill-opacity:1;stroke:none"
               id="path32" />
          </g>
        </g>
      </g>
      <path
         id="path6093"
         d="m 482.87789,121.45707 c 35.7412,-28.210658 87.58442,-22.105936 115.79508,13.63528 28.21065,35.7412 22.10594,87.58443 -13.63527,115.79509 -35.74122,28.21066 -87.58444,22.10594 -115.79509,-13.63527 -28.21066,-35.74122 -22.10594,-87.58444 13.63528,-115.7951 z"
         style="fill:none;stroke:none;display:inline" />
      <polygon
         transform="matrix(0.65338048,-0.22908225,0.22908225,0.65338048,431.29408,32.029694)"
         points="63.098,115.368 59.262,111.532 63.098,107.696 66.934,111.532 66.934,111.532 "
         id="polygon30"
         style="fill:#d62766;display:inline" />
      <path
         inkscape:original-d="m 491.42654,113.9375 c -2.08267,0.9624 -3.37079,1.12052 -4.75,1.25 1.24905,0.51166 1.25,2.63172 1.25,9.53125 l 0,7.875 c 0,2.37139 0.009,3.72528 -0.375,4.75 1.31413,0.51097 2.94821,0.8125 4.90625,0.8125 1.24974,0 4.88779,-0.0231 6.84375,-4.03125 0.92986,-1.85765 1.25,-4.35704 1.25,-6.25 0,-1.15488 -0.13195,-3.67494 -1.0625,-5.28125 -0.89801,-1.50661 -2.33585,-2.28125 -3.875,-2.28125 -3.07761,0 -3.98755,2.5581 -4.46875,3.875 0,-1.63332 0.0244,-7.33164 0.28125,-10.25 z M 473.45779,114 c -1.15211,0.54352 -2.13013,0.87002 -4.3125,1.0625 0.86547,0.93055 0.84375,1.42098 0.84375,5.65625 -0.6086,-0.18902 -1.36991,-0.40625 -2.6875,-0.40625 -5.74188,0 -6.65625,4.99723 -6.65625,8.71875 0,9.04451 4.79378,9.03125 5.5,9.03125 1.98782,0 3.26898,-1.07856 3.8125,-2.96875 l 0.0625,2.84375 c 0.60791,-0.0325 1.22312,-0.0937 2.21875,-0.0937 0.35173,0 0.64938,-10e-4 0.90625,0.0312 0.25411,0 0.52309,0.0299 0.8125,0.0625 -0.51097,-1.02472 -0.90625,-3.30593 -0.90625,-8.3125 0,-4.8764 -0.0106,-13.12345 0.40625,-15.625 z m 79.09375,0.59375 c -1.18712,0.90285 -2.83941,1.32305 -5.1875,1.5625 0,0 0.6875,0.1882 0.6875,1.3125 l 0,3.4375 -2.6875,0 -0.0625,2.375 2.6875,0 0,9.65625 c 0,2.34229 0.76153,4.62898 3.65625,5.0625 1.93466,0.29091 5.4455,-0.20105 5.96875,-0.4375 5.9e-4,-0.51849 0.11107,-2.30624 0.3125,-2.90625 -0.99728,0.67682 -2.75937,1.17305 -4.1875,0.875 -1.27346,-0.26577 -1.53125,-1.84455 -1.53125,-3.125 l 0,-9.125 5.0625,0 0,-2.375 -5.0625,0 0,-4.5 c 0,-1.06184 0.34375,-1.8125 0.34375,-1.8125 z m -25.5625,5.5 c -0.80315,0.41681 -1.61957,0.8101 -4.21875,0.9375 0.35173,0.32196 0.65602,0.62318 0.8125,1.875 0.28939,2.05289 0.15885,10.70527 0.0937,12.46875 -0.0651,1.79602 -0.18192,2.05153 -0.40625,2.5625 0.64114,-0.0976 1.1662,-0.125 1.9375,-0.125 0.96241,0 1.61274,0.0627 2.15625,0.125 -0.32192,-1.12234 -0.31395,-1.48865 -0.34375,-5.59375 0,-4.74693 -0.004,-5.97141 0.25,-7.09375 0.22502,-1.09257 0.82769,-2.4375 2.65625,-2.4375 1.86388,0 2.03145,1.48773 2.09375,2.03125 0.0948,0.76784 0.0937,2.93089 0.0937,4.4375 l 0,3.46875 c 0,0.86547 -0.0614,3.35775 -0.15625,4.09375 -0.0623,0.54628 -0.1226,0.67694 -0.25,1.09375 0.6086,-0.0976 1.00994,-0.15625 1.78125,-0.15625 1.31413,0 1.73197,0.0939 2.4375,0.15625 -0.44586,-0.93055 -0.43895,-2.06645 -0.46875,-3.15625 l 0,-9.65625 c -0.0325,-1.92342 -0.0516,-4.84375 -4.0625,-4.84375 -3.21055,0 -4.02198,2.22381 -4.40625,3.21875 l 0,-3.40625 z m 47.25,0 c -0.80315,0.41681 -1.61957,0.8101 -4.21875,0.9375 0.35173,0.32196 0.65602,0.62318 0.8125,1.875 0.28939,2.05289 0.15885,10.70527 0.0937,12.46875 -0.0651,1.79602 -0.18192,2.05153 -0.40625,2.5625 0.64114,-0.0976 1.1662,-0.125 1.9375,-0.125 0.96241,0 1.61274,0.0627 2.15625,0.125 -0.32192,-1.12234 -0.31395,-1.48865 -0.34375,-5.59375 0,-4.74693 -0.004,-5.97141 0.25,-7.09375 0.22502,-1.09257 0.82769,-2.4375 2.65625,-2.4375 1.86388,0 2.03145,1.48773 2.09375,2.03125 0.0948,0.76784 0.0937,2.93089 0.0937,4.4375 l 0,3.46875 c 0,0.86547 -0.0614,3.35775 -0.15625,4.09375 -0.0623,0.54628 -0.1226,0.67694 -0.25,1.09375 0.3245,-0.052 0.60818,-0.0661 0.90625,-0.0937 0.3043,-0.0196 0.6456,-0.0312 1.03125,-0.0312 0.96241,0 1.61274,0.0627 2.15625,0.125 0.043,0.004 0.0799,-0.004 0.125,0 -0.31541,-0.65829 -0.3687,-1.40714 -0.40625,-2.1875 -0.0308,-0.74476 -0.0495,-1.61636 -0.0625,-3.40625 0,-4.74693 -0.004,-5.97141 0.25,-7.09375 0.22502,-1.09257 0.82769,-2.4375 2.65625,-2.4375 1.86388,0 2.03145,1.48773 2.09375,2.03125 0.0948,0.76784 0.0937,2.93089 0.0937,4.4375 l 1.5e-4,3.46865 c 0,0.86547 -0.0614,3.35775 -0.15625,4.09375 -0.0623,0.54628 -0.1226,0.67694 -0.25,1.09375 0.6086,-0.0976 1.00994,-0.15625 1.78125,-0.15625 1.31413,0 1.73197,0.0939 2.4375,0.15625 -0.44586,-0.93055 -0.43895,-2.06645 -0.46875,-3.15625 l 0,-9.65625 c -0.0325,-1.92342 -0.0516,-4.84375 -4.0625,-4.84375 -3.21055,0 -4.02198,2.22381 -4.40625,3.21875 l -0.0625,0 c -0.22142,-1.61184 -0.99774,-3.21875 -3.96875,-3.21875 -3.21055,0 -4.02198,2.22381 -4.40625,3.21875 l 0,-3.40625 z m -67.84375,0.0312 c -1.21927,0.57606 -1.9648,0.77646 -4.59375,1.03125 0.45212,0.32126 0.74701,0.49878 0.90625,1.71875 0.22224,1.60354 0.1899,9.2377 0.0625,12.09375 -0.0976,2.08544 -0.24331,2.36015 -0.5625,2.96875 0.73531,-0.0976 1.4468,-0.15625 2.46875,-0.15625 0.93055,0 1.3908,0.0614 2.03125,0.15625 -0.69726,-1.31413 -0.65535,-2.4921 -0.59375,-13.5625 0,-2.14706 0.0272,-2.84101 0.28125,-4.25 z m 59.0625,0 c -1.21927,0.57606 -1.9648,0.77646 -4.59375,1.03125 0.45212,0.32126 0.74701,0.49878 0.90625,1.71875 0.22224,1.60354 0.1899,9.2377 0.0625,12.09375 -0.0976,2.08544 -0.24331,2.36015 -0.5625,2.96875 0.73531,-0.0976 1.4468,-0.15625 2.46875,-0.15625 0.93055,0 1.3908,0.0614 2.03125,0.15625 -0.69726,-1.31413 -0.65535,-2.4921 -0.59375,-13.5625 0,-2.14706 0.0272,-2.84101 0.28125,-4.25 z m 34.8125,0.0312 c -6.54226,0 -6.53125,7.2421 -6.53125,8.78125 0,6.50972 2.90355,9.09375 7.8125,9.09375 2.1796,0 3.23644,-0.34075 3.8125,-0.5 -0.0298,-1.15488 0.14919,-1.88006 0.34375,-2.875 -0.67368,0.41681 -1.54325,0.96875 -3.46875,0.96875 -5.00311,0 -5.0625,-4.55123 -5.0625,-6.125 l 8.53125,0 0.0625,-1.90625 c 0,-3.75406 -0.75099,-7.4375 -5.5,-7.4375 z m -85.59375,0.15635 c -3.17247,0 -5.0382,0.95353 -5.96875,1.4375 0.38427,0.70345 0.71336,1.30552 1,2.6875 1.24974,-1.0898 2.86539,-1.65625 4.53125,-1.65625 2.66426,0 2.6875,1.77969 2.6875,4.28125 -0.6086,-0.0298 -1.13176,-0.0937 -2,-0.0937 -4.07325,0 -6.78125,1.54894 -6.78125,5.84375 0,2.02035 0.60745,4.03801 2.40625,4.90625 0.80038,0.35103 1.61813,0.375 1.875,0.375 2.95091,0 3.95183,-2.18458 4.5625,-3.53125 -0.0319,1.40899 -0.001,2.28114 0.0937,3.40625 0.57606,-0.0325 1.13065,-0.125 2.09375,-0.125 0.54351,0 1.08149,0.0924 1.625,0.125 -0.35173,-0.54352 -0.55862,-0.87249 -0.65625,-2.125 -0.0616,-1.2172 -0.0625,-2.45785 -0.0625,-4.15625 l 0.0312,-6.53125 c 0,-2.43924 -0.62341,-4.84375 -5.4375,-4.84375 z m -33.78125,0.0312 c -6.54226,0 -6.53125,7.2421 -6.53125,8.78125 0,6.50972 2.90355,9.09375 7.8125,9.09375 2.1796,0 3.23644,-0.34075 3.8125,-0.5 -0.0298,-1.15488 0.14919,-1.88006 0.34375,-2.875 -0.67368,0.41681 -1.54325,0.96875 -3.46875,0.96875 -5.00311,0 -5.0625,-4.55123 -5.0625,-6.125 l 8.53125,0 0.0625,-1.90625 c 0,-3.75406 -0.75099,-7.4375 -5.5,-7.4375 z m 118.65625,1.9063 c 0.12908,-0.018 0.26392,0 0.40625,0 2.50224,0 2.69008,2.75402 2.625,5.03125 l -5.46875,0 c 0.0305,-2.49515 0.50128,-4.7606 2.4375,-5.03125 z m -119.375,0.1875 c 0.12908,-0.018 0.26392,0 0.40625,0 2.50224,0 2.69008,2.75402 2.625,5.03125 l -5.46875,0 c 0.0305,-2.49515 0.50128,-4.7606 2.4375,-5.03125 z m -12.4375,0.15625 c 1.09049,0 1.70561,0.3084 2.1875,0.5625 l 0.0312,2.09375 c -0.0298,0.0325 -0.0599,5.18388 -0.125,6.53125 -0.0623,1.0898 -0.15897,3.4375 -2.46875,3.4375 -2.37207,0 -2.93321,-2.7216 -3.125,-3.90625 -0.22224,-1.31413 -0.21875,-2.39311 -0.21875,-2.875 0,-1.53846 0.092,-5.84375 3.71875,-5.84375 z m 26.46875,0.625 c 2.43716,0 2.9375,3.37552 2.9375,5.875 0,2.98276 -0.55973,7 -4.28125,7 -0.51098,0 -1.14569,-0.0926 -1.5625,-0.1875 -0.0616,-1.15488 -0.0625,-3.15898 -0.0625,-5.46875 0,-2.75843 0.27567,-4.19726 0.5,-4.90625 0.67092,-2.27446 2.1821,-2.3125 2.46875,-2.3125 z m 20.5625,5.65625 c 0.19009,-0.012 0.34794,0 0.5,0 l 1.71875,0 c -0.0616,2.02035 -0.11001,3.44016 -0.65625,4.5625 -0.67369,1.4443 -1.79207,1.84375 -2.625,1.84375 -1.92619,0 -2.34375,-1.61373 -2.34375,-3.1875 0,-2.63657 2.07563,-3.13462 3.40625,-3.21875 z"
         inkscape:path-effect="#path-effect3953"
         id="path32-8"
         d="m 482.89145,94.992267 c -1.82105,2.0657 -3.09847,2.988371 -4.48833,3.961222 1.57899,-0.339803 2.6384,1.506531 6.08456,7.483561 l 3.93338,6.82208 c 1.18445,2.05432 1.86533,3.22372 2.03966,4.30758 1.37783,-0.22812 2.91629,-0.75251 4.61613,-1.62392 0.0545,-0.0277 0.10908,-0.0558 0.16387,-0.0842 0.56226,-0.29181 1.65673,-0.85789 2.63504,-1.89376 0.97832,-1.03586 1.84794,-2.54313 1.9771,-4.79225 0.14212,-2.09467 -0.5075,-4.53303 -1.25041,-6.27588 -0.45324,-1.06329 -1.56995,-3.334556 -3.20742,-4.371635 -1.56271,-0.960918 -3.44682,-0.960405 -5.08648,-0.164105 -1.74838,0.849095 -2.49208,2.06209 -2.77783,3.20534 -0.24976,0.99977 -0.15376,1.95349 -0.089,2.61661 -0.774,-1.43826 -3.45451,-6.467129 -4.5503,-9.190603 z m -18.63086,12.076673 c -0.80052,1.2966 -1.55302,2.28193 -3.49138,4.13615 1.41075,0.0404 1.69721,0.44502 4.3733,3.72828 -0.67406,0.30553 -1.50857,0.70641 -2.6891,1.71659 -2.5723,2.20112 -3.15572,4.4802 -2.77227,6.47592 0.38346,1.99573 1.72219,3.7388 3.01344,5.07863 3.13814,3.2562 5.61248,4.00656 7.35244,3.93595 1.73997,-0.0706 2.78222,-0.99282 3.05387,-1.23008 1.52926,-1.33567 1.8526,-2.98764 1.0992,-4.81254 0.61607,0.72089 1.23173,1.4421 1.84699,2.16366 0.46139,-0.41776 0.91271,-0.86139 1.71507,-1.4891 0.28345,-0.22175 0.52375,-0.40896 0.75162,-0.54366 0.206,-0.1585 0.44276,-0.30185 0.69822,-0.45457 -1.03526,-0.50124 -2.75426,-2.05621 -5.81071,-6.02218 -2.97698,-3.86285 -8.02984,-10.38301 -9.14069,-12.68305 z m 93.5637,-22.935355 c -1.68279,0.537369 -3.80161,0.50148 -6.75437,0.270464 0,0 0.82148,0.326171 0.63386,1.434264 l -0.57364,3.387946 c -1.05563,-0.178884 -2.11429,-0.339177 -3.17537,-0.480863 -0.12931,0.78119 -0.25798,1.562476 -0.38601,2.343859 1.0337,0.137102 2.06501,0.292322 3.09332,0.465646 l -1.60361,9.518389 c -0.19449,1.15442 -0.19071,2.32638 0.18878,3.32674 0.37949,1.00036 1.12939,1.82486 2.45472,2.33577 0.88564,0.34203 2.17549,0.59841 3.31421,0.78336 1.13872,0.18494 2.12804,0.29387 2.40592,0.25483 0.15099,-0.4958 0.77438,-2.17429 1.14569,-2.68743 -1.16355,0.34912 -2.97869,0.3474 -4.29584,-0.28567 -1.17449,-0.5645 -1.08636,-2.15181 -0.80402,-3.40011 l 2.01208,-8.895865 c 1.91634,0.433496 3.81853,0.931157 5.7024,1.492889 l 0.67861,-2.274951 c -1.93547,-0.576937 -3.8893,-1.088068 -5.85732,-1.533301 l 0.99225,-4.387004 c 0.23414,-1.035177 0.82834,-1.668963 0.82834,-1.668963 z m -31.85866,3.511404 c -0.32931,0.185255 -0.65926,0.369082 -1.08782,0.55319 -0.76487,0.330514 -1.8456,0.651976 -3.7891,1.046518 0.46337,0.251513 0.86587,0.494738 1.23158,1.704944 0.63751,1.978969 1.74612,10.557369 1.93982,12.310339 0.19853,1.78513 0.12196,2.05435 -0.0186,2.59217 0.60858,-0.19099 1.11703,-0.29107 1.86926,-0.38618 0.29903,-0.0378 0.56806,-0.0636 0.81312,-0.0812 0,0 0,0 0,0 0.5197,-0.0389 0.93102,-0.0399 1.29384,-0.0341 -0.42501,-1.08496 -0.4587,-1.4491 -0.92266,-5.528012 -0.50066,-4.72045 -0.63803,-5.937715 -0.46505,-7.083741 0.14319,-1.113038 0.71322,-2.543965 2.84836,-2.688923 2.17637,-0.147757 2.43579,1.356711 2.52905,1.89689 0.13951,0.762805 0.22245,2.924322 0.28174,4.429757 l 0.13652,3.466046 c 0.0341,0.864793 0.07,3.357553 0.007,4.096803 -0.0389,0.54836 -0.0926,0.68135 -0.19798,1.10329 0.58775,-0.12398 0.97785,-0.19744 1.73054,-0.21371 1.28241,-0.0277 1.69103,0.0732 2.37767,0.14229 -0.42495,-0.93476 -0.41813,-2.06938 -0.44403,-3.15925 l 0.0385,-9.655857 c -0.0147,-0.961745 -0.019,-2.174675 -0.62438,-3.143373 -0.60541,-0.968697 -1.83183,-1.708599 -4.24184,-1.591172 -1.9291,0.094 -3.09465,0.757402 -3.80389,1.505391 -0.70925,0.747989 -0.97175,1.586682 -1.141,2.104985 l -0.36064,-3.387102 c 4e-5,-4e-6 8e-5,-8e-6 1.2e-4,-1.3e-5 z m 54.8698,11.249675 c -0.52048,-0.05011 -1.0402,-0.104567 -1.77869,-0.309083 -0.73849,-0.204517 -1.69379,-0.561368 -3.1058,-1.182705 0.23333,0.471975 0.42152,0.901968 0.0239,2.099373 -0.61798,1.980761 -4.64543,9.614781 -5.49539,11.155981 -0.86451,1.57021 -1.08204,1.74588 -1.50627,2.10411 0.60714,0.19307 1.08098,0.40346 1.75391,0.75858 0.83968,0.44311 1.37229,0.81072 1.81043,1.12812 0.26907,-1.13311 0.45061,-1.44956 2.40791,-5.04692 2.29503,-4.1422 2.88042,-5.2148 3.67763,-6.05223 0.75401,-0.82752 2.03441,-1.66982 3.85906,-0.57993 1.8599,1.11095 1.22221,2.49106 0.99292,2.98813 -0.31737,0.70634 -1.47267,2.53178 -2.27613,3.80395 l -1.84986,2.92898 c -0.46155,0.73079 -1.844,2.80135 -2.31625,3.37229 -0.34362,0.42814 -0.46421,0.5062 -0.79229,0.79147 0.30108,0.12824 0.54736,0.26853 0.81253,0.40648 0.2661,0.14804 0.55856,0.32431 0.88077,0.53692 0.80408,0.5306 1.30729,0.95264 1.72018,1.31472 0.0332,0.0279 0.0682,0.0424 0.10304,0.0716 0.11391,-0.72241 0.49065,-1.37129 0.89927,-2.03706 0.39424,-0.63246 0.86978,-1.36287 1.86746,-2.84829 2.6761,-3.91873 3.36039,-4.93406 4.23353,-5.69566 0.82915,-0.7557 2.18196,-1.47777 3.90032,-0.22912 1.75156,1.27276 0.99401,2.59279 0.72125,3.06891 -0.37917,0.67731 -1.69322,2.39858 -2.60736,3.59827 -0.70149,0.92071 -1.40299,1.84142 -2.10448,2.76213 -0.52513,0.68916 -2.08808,2.63485 -2.61077,3.16273 -0.38138,0.39683 -0.50924,0.46374 -0.86329,0.71866 0.54863,0.29448 0.90726,0.49608 1.52244,0.98073 1.0481,0.82571 1.31651,1.17221 1.83055,1.67744 0.24214,-1.00902 0.96329,-1.88808 1.62869,-2.75432 l 6.10992,-7.50047 c 0.59416,-0.75869 1.35319,-1.70714 1.49866,-2.83809 0.14547,-1.13094 -0.32638,-2.4625 -2.23167,-3.889 -1.52509,-1.14186 -2.82992,-1.37601 -3.84847,-1.25753 -1.01855,0.11847 -1.75965,0.58835 -2.22328,0.8742 -0.0199,-0.0136 -0.0398,-0.0271 -0.0596,-0.0406 0.34799,-0.73765 0.56174,-1.56681 0.31432,-2.45531 -0.24742,-0.88851 -0.9581,-1.84211 -2.46129,-2.77234 -1.62438,-1.00523 -2.94794,-1.12252 -3.95167,-0.9133 -1.00372,0.20921 -1.69733,0.74439 -2.13186,1.07115 l 1.64576,-2.972896 z m -78.80068,-5.665337 c -0.58693,0.515108 -1.06662,0.897422 -1.75117,1.320524 -0.68455,0.423102 -1.57492,0.88484 -2.95925,1.591961 0.61518,0.09467 1.00385,0.130404 1.62969,1.194917 0.83655,1.39362 3.62357,8.507241 4.56234,11.210181 0.68107,1.97541 0.64634,2.28531 0.57774,2.97096 0.6498,-0.37025 1.29573,-0.69119 2.25839,-1.05586 0.87656,-0.33204 1.33355,-0.43108 1.97074,-0.55665 -1.09735,-1.00536 -1.47284,-2.12036 -5.16199,-12.563223 -0.72838,-2.02071 -0.9374,-2.6838 -1.12649,-4.11281 z m 69.3374,1.089703 c -1.31848,-0.03461 -2.15622,-0.153117 -4.18224,-0.685815 -0.39145,-0.101613 -0.82712,-0.217137 -1.31928,-0.346511 0.4029,0.482088 0.67269,0.769635 0.42869,1.979318 -0.3065,1.59522 -2.99272,8.741688 -4.09677,11.378598 -0.81049,1.92383 -1.03774,2.13254 -1.53317,2.60098 0.23081,0.0489 0.45772,0.10217 0.69114,0.16436 0.48032,0.12333 0.98872,0.28335 1.61203,0.52558 0.8459,0.32874 1.23833,0.5582 1.77697,0.88782 -0.11274,-1.4708 0.35804,-2.54614 4.67781,-12.71949 0.82515,-1.978367 1.11762,-2.607659 1.94482,-3.78484 z m 34.13745,23.07557 c -1.39069,-1.34051 -2.77239,-1.98847 -4.04513,-2.18615 -1.27274,-0.19769 -2.43953,0.0533 -3.4516,0.50369 -2.02415,0.90079 -3.4433,2.5867 -3.94481,3.17266 -2.12113,2.47828 -3.00585,4.71365 -2.9356,6.73421 0.0702,2.02055 1.10154,3.83399 2.90692,5.5982 1.60321,1.56664 2.59997,2.12027 3.12927,2.43926 0.81408,-0.81984 1.46789,-1.18691 2.33188,-1.72322 -0.79541,-0.22806 -1.82092,-0.50808 -3.25719,-1.92885 -1.86596,-1.84583 -2.06393,-3.56402 -1.66016,-5.01062 0.40377,-1.4466 1.419,-2.59548 1.95026,-3.17843 2.31237,2.10676 4.54886,4.30215 6.70667,6.56766 0.47664,-0.42091 0.95349,-0.84157 1.43054,-1.26197 1.36192,-1.29167 2.57108,-2.72242 2.94578,-4.33987 0.37471,-1.61745 -0.0878,-3.44043 -2.10683,-5.38657 z M 511.51852,90.513869 c -3.66179,0.9446 -5.48247,2.564562 -6.36888,3.365897 0.64893,0.527045 1.19999,0.982333 1.93153,2.199929 1.03435,-1.471935 2.68658,-2.554712 4.56191,-3.048697 1.49964,-0.395023 2.36918,-0.137958 2.92231,0.509518 0.55314,0.647475 0.79795,1.68925 1.07964,2.906807 -0.6682,0.124062 -1.25171,0.19707 -2.19136,0.437207 -2.20415,0.56329 -3.92004,1.482553 -4.89212,2.756983 -0.97208,1.274427 -1.19573,2.897947 -0.51094,4.933617 0.64427,1.91524 1.88391,3.61057 3.8596,3.90774 0.8687,0.0985 1.65401,-0.105 1.89959,-0.17551 1.41064,-0.405 2.21937,-1.17265 2.72608,-2.03423 0.50671,-0.86159 0.70578,-1.81315 0.86088,-2.53948 0.28433,1.37918 0.51234,2.22082 0.85514,3.29545 0.54864,-0.15959 1.06505,-0.37124 1.99849,-0.56166 0.52677,-0.10746 1.06623,-0.11797 1.59913,-0.18261 -0.43938,-0.47151 -0.70359,-0.75531 -1.03675,-1.9656 -0.29071,-1.18251 -0.5273,-2.39922 -0.84877,-4.06536 -0.40124,-2.137808 -0.80168,-4.275773 -1.20135,-6.41389 -0.2304,-1.196537 -0.63062,-2.355412 -1.68484,-3.064433 -1.05421,-0.709021 -2.78109,-0.978298 -5.55939,-0.2616 3e-5,-2.6e-5 7e-5,-5.2e-5 1e-4,-7.8e-5 z m -36.26518,16.501221 c -1.60669,1.06745 -2.53379,2.27355 -2.99916,3.46999 -0.46537,1.19645 -0.47108,2.38615 -0.2498,3.46868 0.44255,2.16507 1.7785,3.91179 2.24115,4.52686 1.95673,2.6014 3.94412,3.94448 5.92662,4.3116 1.9825,0.36712 3.96701,-0.24496 6.06516,-1.60491 1.86319,-1.20765 2.61327,-2.04426 3.03635,-2.48397 -0.62044,-0.97451 -0.83608,-1.69095 -1.1702,-2.65004 -0.39336,0.71969 -0.88578,1.64854 -2.57331,2.7275 -2.1924,1.40175 -3.90571,1.22356 -5.22684,0.51733 -1.32113,-0.70622 -2.22186,-1.9425 -2.67537,-2.58561 2.54624,-1.7957 5.16054,-3.49393 7.83582,-5.08841 -0.3057,-0.5575 -0.61108,-1.11517 -0.91616,-1.67303 -0.96002,-1.6129 -2.08908,-3.1082 -3.58449,-3.82654 -1.49541,-0.71833 -3.37718,-0.65917 -5.70977,0.89055 z m 128.19783,11.3133 c 0.12123,0.0904 0.22229,0.21179 0.34184,0.32631 1.05085,1.00672 1.11943,2.05262 0.71811,3.02836 -0.40132,0.97573 -1.27028,1.88869 -2.10244,2.66895 -1.44295,-1.44263 -2.91956,-2.85339 -4.42909,-4.22742 1.7088,-1.82643 3.65259,-3.15205 5.47158,-1.7962 z m -127.73234,-9.10547 c 0.11418,-0.0986 0.25417,-0.17093 0.3915,-0.26273 1.20716,-0.80693 2.24166,-0.6479 3.10525,-0.045 0.86359,0.60295 1.56437,1.6487 2.14401,2.62941 -1.71645,1.08977 -3.40618,2.22191 -5.06733,3.39474 -1.4114,-2.05807 -2.28579,-4.23642 -0.57343,-5.71647 z m -11.39627,8.83164 c 0.96346,-0.81794 1.71269,-1.03133 2.30421,-1.18601 0.45058,0.53321 0.90102,1.06654 1.3513,1.59999 -0.006,0.0466 3.22543,4.05946 4.02393,5.14717 0.3189,0.44317 0.82848,1.13611 1.02611,1.91017 0.19763,0.77406 0.0859,1.62339 -0.83305,2.40873 -0.94376,0.80652 -1.96508,0.80547 -2.88115,0.51227 -0.91607,-0.2932 -1.72116,-0.88115 -2.19532,-1.25105 -1.05958,-0.81379 -1.78365,-1.61351 -2.1075,-1.97039 -0.51697,-0.56968 -1.48436,-1.66628 -1.92971,-2.97212 -0.44535,-1.30583 -0.361,-2.83858 1.24113,-4.19872 2e-5,-2e-5 3e-5,-3e-5 5e-5,-4e-5 z m 25.79725,-16.35732 c 1.25848,-0.63207 2.39532,-0.23539 3.33197,0.60149 0.93665,0.83688 1.6819,2.11226 2.2108,3.24563 0.63117,1.35251 1.22841,3.00461 1.2438,4.52281 0.0154,1.51819 -0.53932,2.8904 -2.24834,3.77058 -0.17006,0.0876 -0.36044,0.17253 -0.55431,0.2511 -0.34163,0.13947 -0.69403,0.25942 -0.96577,0.33646 -0.60218,-0.98752 -1.55177,-2.75231 -2.64459,-4.78717 -1.3051,-2.43011 -1.71351,-3.8438 -1.82167,-4.58915 -0.0862,-0.51547 -0.0807,-0.95902 -0.0156,-1.33876 0.23362,-1.36315 1.23222,-1.89671 1.46374,-2.01299 z m 23.63956,-2.924547 c 0.19868,-0.06357 0.36928,-0.09451 0.53081,-0.135149 0.60861,-0.153119 1.21853,-0.300248 1.8297,-0.441272 0.38786,1.982168 0.65209,3.375308 0.35821,4.598598 -0.34851,1.5671 -1.35128,2.2328 -2.17484,2.45616 -1.90453,0.51653 -2.77246,-0.88649 -3.22197,-2.39426 -0.37653,-1.26299 -0.0647,-2.17512 0.5265,-2.82591 0.59119,-0.650798 1.4562,-1.035609 2.15159,-1.258167 z"
         style="fill:#ffffff;display:inline" />
      <polygon
         style="fill:#d62766;display:inline"
         id="polygon3101"
         points="59.262,111.532 63.098,107.696 66.934,111.532 66.934,111.532 63.098,115.368 "
         transform="matrix(0.66297395,0.19962533,-0.19962533,0.66297395,550.75336,2.9091239)" />
      <text
         xml:space="preserve"
         style="font-size:12.53669071px;font-style:normal;font-weight:normal;text-align:center;text-anchor:middle;fill:#ffffff;fill-opacity:1;stroke:none;font-family:Bitstream Vera Sans"
         x="533.73743"
         y="128.10222"
         id="text3594"><tspan
           sodipodi:role="line"
           id="tspan3596"
           x="533.73743"
           y="128.10222">Dec</tspan></text>
      <text
         xml:space="preserve"
         style="font-size:10.33038521px;font-style:normal;font-weight:normal;fill:#ffffff;fill-opacity:1;stroke:none;font-family:Bitstream Vera Sans"
         x="578.4917"
         y="189.52878"
         id="text3611"><tspan
           sodipodi:role="line"
           id="tspan3613"
           x="578.4917"
           y="189.52878">Mar</tspan></text>
      <g
         transform="translate(312,12.5)"
         inkscape:transform-center-y="-11.815085"
         inkscape:transform-center-x="-11.965062"
         id="g5611">
        <path
           id="path3625"
           d="m 220.75802,174.42212 30.29424,-30.29424"
           style="fill:#ffffff;stroke:#ffffff;stroke-width:0.69999999;stroke-linecap:butt;stroke-linejoin:miter;stroke-miterlimit:4;stroke-opacity:1;stroke-dasharray:none;marker-start:none;marker-end:url(#TriangleOutLT)" />
        <path
           style="fill:#ffffff;stroke:#ffffff;stroke-width:6.5999999;stroke-linecap:butt;stroke-linejoin:miter;stroke-miterlimit:4;stroke-opacity:1;stroke-dasharray:none;marker-start:none;marker-end:none"
           d="m 217.45864,177.72149 32.24387,-32.24387"
           id="path4890" />
      </g>
      <g
         transform="matrix(0.09268868,-1.240808,1.240808,0.09268868,297.07168,443.24404)"
         id="g5627"
         inkscape:transform-center-x="13.365662"
         inkscape:transform-center-y="-15.987754">
        <path
           style="fill:#ffffff;stroke:#ffffff;stroke-width:0.32951176;stroke-linecap:butt;stroke-linejoin:miter;stroke-miterlimit:4;stroke-opacity:1;stroke-dasharray:none;marker-start:none;marker-end:url(#TriangleOutLT)"
           d="m 220.75802,174.42212 30.29424,-30.29424"
           id="path5629" />
        <path
           id="path5631"
           d="M 217.45863,177.72151 250.4423,144.72723"
           style="fill:#ffffff;stroke:#ffffff;stroke-width:3.13438034;stroke-linecap:butt;stroke-linejoin:miter;stroke-miterlimit:4;stroke-opacity:1;stroke-dasharray:none;marker-start:none;marker-end:none" />
      </g>
      <rect
         style="fill:#ffffff;fill-opacity:1;stroke:#ffffff;stroke-width:0.41;stroke-linejoin:round;stroke-miterlimit:4;stroke-opacity:1;stroke-dasharray:none;stroke-dashoffset:0"
         id="rect5635"
         width="2.5451005"
         height="5.0902009"
         x="532.68524"
         y="111.75892"
         inkscape:transform-center-y="-71.268349" />
      <rect
         transform="matrix(0.8660254,0.5,-0.5,0.8660254,0,0)"
         style="fill:#ffffff;fill-opacity:1;stroke:#ffffff;stroke-width:0.41;stroke-linejoin:round;stroke-miterlimit:4;stroke-opacity:1;stroke-dasharray:none;stroke-dashoffset:0"
         id="rect5637"
         width="2.5451005"
         height="5.0902009"
         x="553.93463"
         y="-180.08195"
         inkscape:transform-center-y="-71.268349" />
      <rect
         transform="matrix(0.5,0.8660254,-0.8660254,0.5,0,0)"
         style="fill:#ffffff;fill-opacity:1;stroke:#ffffff;stroke-width:0.41;stroke-linejoin:round;stroke-miterlimit:4;stroke-opacity:1;stroke-dasharray:none;stroke-dashoffset:0"
         id="rect5639"
         width="2.5451005"
         height="5.0902009"
         x="426.41672"
         y="-443.44827"
         inkscape:transform-center-y="-71.268349" />
      <rect
         transform="matrix(0,1,-1,0,0,0)"
         style="fill:#ffffff;fill-opacity:1;stroke:#ffffff;stroke-width:0.41;stroke-linejoin:round;stroke-miterlimit:4;stroke-opacity:1;stroke-dasharray:none;stroke-dashoffset:0"
         id="rect5641"
         width="2.5451005"
         height="5.0902009"
         x="184.29982"
         y="-607.77124"
         inkscape:transform-center-y="-71.268349" />
      <rect
         style="fill:#ffffff;fill-opacity:1;stroke:#ffffff;stroke-width:0.41;stroke-linejoin:round;stroke-miterlimit:4;stroke-opacity:1;stroke-dasharray:none;stroke-dashoffset:0"
         id="rect5643"
         width="2.5451005"
         height="5.0902009"
         x="-107.54106"
         y="-629.02063"
         transform="matrix(-0.5,0.8660254,-0.8660254,-0.5,0,0)"
         inkscape:transform-center-x="-71.268348" />
      <rect
         style="fill:#ffffff;fill-opacity:1;stroke:#ffffff;stroke-width:0.41;stroke-linejoin:round;stroke-miterlimit:4;stroke-opacity:1;stroke-dasharray:none;stroke-dashoffset:0"
         id="rect5645"
         width="2.5451005"
         height="5.0902009"
         x="-370.90738"
         y="-501.50272"
         transform="matrix(-0.8660254,0.5,-0.5,-0.8660254,0,0)"
         inkscape:transform-center-x="-71.268348" />
      <rect
         style="fill:#ffffff;fill-opacity:1;stroke:#ffffff;stroke-width:0.41;stroke-linejoin:round;stroke-miterlimit:4;stroke-opacity:1;stroke-dasharray:none;stroke-dashoffset:0"
         id="rect5647"
         width="2.5451005"
         height="5.0902009"
         x="-535.23035"
         y="-259.3858"
         transform="scale(-1,-1)"
         inkscape:transform-center-x="-71.268348" />
      <rect
         style="fill:#ffffff;fill-opacity:1;stroke:#ffffff;stroke-width:0.41;stroke-linejoin:round;stroke-miterlimit:4;stroke-opacity:1;stroke-dasharray:none;stroke-dashoffset:0"
         id="rect5649"
         width="2.5451005"
         height="5.0902009"
         x="-556.47974"
         y="32.455063"
         transform="matrix(-0.8660254,-0.5,0.5,-0.8660254,0,0)"
         inkscape:transform-center-x="-71.268348" />
      <rect
         style="fill:#ffffff;fill-opacity:1;stroke:#ffffff;stroke-width:0.41;stroke-linejoin:round;stroke-miterlimit:4;stroke-opacity:1;stroke-dasharray:none;stroke-dashoffset:0"
         id="rect5651"
         width="2.5451005"
         height="5.0902009"
         x="-428.96182"
         y="295.82138"
         transform="matrix(-0.5,-0.8660254,0.8660254,-0.5,0,0)"
         inkscape:transform-center-x="-71.268348" />
      <rect
         style="fill:#ffffff;fill-opacity:1;stroke:#ffffff;stroke-width:0.41;stroke-linejoin:round;stroke-miterlimit:4;stroke-opacity:1;stroke-dasharray:none;stroke-dashoffset:0"
         id="rect5653"
         width="2.5451005"
         height="5.0902009"
         x="-186.84492"
         y="460.14435"
         transform="matrix(0,-1,1,0,0,0)"
         inkscape:transform-center-x="-71.268348" />
      <rect
         style="fill:#ffffff;fill-opacity:1;stroke:#ffffff;stroke-width:0.41;stroke-linejoin:round;stroke-miterlimit:4;stroke-opacity:1;stroke-dasharray:none;stroke-dashoffset:0"
         id="rect5655"
         width="2.5451005"
         height="5.0902009"
         x="104.99596"
         y="481.39374"
         transform="matrix(0.5,-0.8660254,0.8660254,0.5,0,0)"
         inkscape:transform-center-x="-71.268348" />
      <rect
         style="fill:#ffffff;fill-opacity:1;stroke:#ffffff;stroke-width:0.41;stroke-linejoin:round;stroke-miterlimit:4;stroke-opacity:1;stroke-dasharray:none;stroke-dashoffset:0"
         id="rect5657"
         width="2.5451005"
         height="5.0902009"
         x="368.36227"
         y="353.87582"
         transform="matrix(0.8660254,-0.5,0.5,0.8660254,0,0)"
         inkscape:transform-center-x="-71.268348" />
      <rect
         inkscape:transform-center-y="-61.720197"
         inkscape:transform-center-x="35.63417"
         transform="matrix(0.8660254,-0.5,0.5,0.8660254,0,0)"
         y="353.87582"
         x="368.36227"
         height="5.0902009"
         width="2.5451005"
         id="rect5633"
         style="fill:#ffffff;fill-opacity:1;stroke:#ffffff;stroke-width:0.41;stroke-linejoin:round;stroke-miterlimit:4;stroke-opacity:1;stroke-dasharray:none;stroke-dashoffset:0" />
      <text
         id="text6075"
         y="250.82329"
         x="526.95343"
         style="font-size:10.33038521px;font-style:normal;font-weight:normal;fill:#ffffff;fill-opacity:1;stroke:none;font-family:Bitstream Vera Sans"
         xml:space="preserve"><tspan
           y="250.82329"
           x="526.95343"
           id="tspan6077"
           sodipodi:role="line">Jun</tspan></text>
      <text
         xml:space="preserve"
         style="font-size:10.33038521px;font-style:normal;font-weight:normal;fill:#ffffff;fill-opacity:1;stroke:none;font-family:Bitstream Vera Sans"
         x="467.35562"
         y="189.52878"
         id="text6079"><tspan
           sodipodi:role="line"
           id="tspan6081"
           x="467.35562"
           y="189.52878">Sep</tspan></text>
    </g>
    <g
       style="font-size:12.78252029px;font-style:normal;font-variant:normal;font-weight:normal;font-stretch:normal;text-align:start;line-height:125%;writing-mode:lr-tb;text-anchor:start;fill:#ffffff;fill-opacity:1;stroke:none;font-family:Courier 10 Pitch;-inkscape-font-specification:Courier 10 Pitch"
       id="text2862-9"
       inkscape:path-effect="#path-effect4096">
      <path
         d="m 503.41947,36.888776 -0.10332,1.326433 c -0.39061,-0.427106 -0.81693,-0.757208 -1.27959,-0.990565 -0.45855,-0.233011 -0.95534,-0.371508 -1.49112,-0.415803 -1.0551,-0.0872 -1.89038,0.168986 -2.50857,0.771228 -0.61785,0.598111 -0.98247,1.509903 -1.09127,2.736952 -0.10845,1.22291 0.0907,2.185002 0.60047,2.885544 0.51009,0.696397 1.30068,1.090985 2.36975,1.180109 0.54288,0.04526 1.06269,-0.01036 1.55863,-0.166736 0.50009,-0.156033 0.97856,-0.41473 1.43473,-0.775956 l -0.10235,1.313977 c -0.46649,0.264316 -0.95498,0.451148 -1.46491,0.560357 -0.50577,0.109545 -1.03508,0.141308 -1.58728,0.09515 -1.41816,-0.118553 -2.49752,-0.646198 -3.23426,-1.576762 -0.73638,-0.934706 -1.03432,-2.146638 -0.89926,-3.634313 0.13544,-1.491811 0.64564,-2.629733 1.52581,-3.416885 0.88054,-0.791281 2.01568,-1.127165 3.41033,-1.011858 0.55128,0.04559 1.06342,0.16236 1.53703,0.350609 0.47805,0.184448 0.91961,0.440537 1.32518,0.768523 z"
         style=""
         id="path4076"
         inkscape:original-d="m 503.02412,36.242477 0,1.329432 c -0.42443,-0.395285 -0.87798,-0.690714 -1.36064,-0.886288 -0.47852,-0.195557 -0.98824,-0.29334 -1.52916,-0.293349 -1.06521,9e-6 -1.88076,0.326645 -2.44665,0.97991 -0.5659,0.64912 -0.84885,1.589499 -0.84884,2.821143 -10e-6,1.227491 0.28294,2.167871 0.84884,2.821142 0.56589,0.649113 1.38144,0.973669 2.44665,0.973668 0.54092,10e-7 1.05064,-0.09778 1.52916,-0.293349 0.48266,-0.195564 0.93621,-0.490993 1.36064,-0.886288 l 0,1.316949 c -0.44107,0.299591 -0.90918,0.524284 -1.40433,0.674079 -0.491,0.149795 -1.01112,0.224692 -1.56037,0.224692 -1.41057,0 -2.52155,-0.43066 -3.33294,-1.291983 -0.81139,-0.865481 -1.21709,-2.045117 -1.21709,-3.53891 0,-1.497946 0.4057,-2.677582 1.21709,-3.538911 0.81139,-0.865474 1.92237,-1.298215 3.33294,-1.298225 0.55757,10e-6 1.08185,0.07491 1.57285,0.224693 0.49515,0.145643 0.9591,0.366175 1.39185,0.661595" />
      <path
         d="m 509.46012,41.566991 c 0.26422,0.109031 0.51354,0.321197 0.74848,0.636579 0.23907,0.315653 0.47156,0.743353 0.69803,1.283131 0.3755,0.874476 0.75344,1.748494 1.13389,2.62202 -0.45555,-0.02679 -0.91103,-0.05428 -1.36642,-0.08245 -0.35157,-0.820902 -0.701,-1.642203 -1.04834,-2.463877 -0.26872,-0.64339 -0.54137,-1.076561 -0.81924,-1.299549 -0.27372,-0.222704 -0.6599,-0.350832 -1.15902,-0.385192 -0.45755,-0.03149 -0.91504,-0.06363 -1.37249,-0.0964 l -0.2817,3.931936 c -0.42331,-0.03038 -0.84654,-0.06129 -1.26967,-0.09273 l 0.6896,-9.30113 c 0.93807,0.06929 1.87606,0.136031 2.81393,0.200061 1.05303,0.0719 1.82371,0.34465 2.31447,0.82228 0.49073,0.477646 0.70956,1.164863 0.65424,2.062828 -0.0361,0.58618 -0.2027,1.064225 -0.50076,1.4337 -0.29392,0.369745 -0.70569,0.612986 -1.235,0.728794 z m -2.8744,-4.122704 -0.2366,3.302577 c 0.52705,0.03773 1.05415,0.07463 1.58129,0.110672 0.60599,0.04144 1.07201,-0.06763 1.39718,-0.326 0.32958,-0.262244 0.51151,-0.665879 0.54665,-1.210386 0.0351,-0.544495 -0.0934,-0.963829 -0.3849,-1.258403 -0.28706,-0.298445 -0.7311,-0.467573 -1.33295,-0.508685 -0.52354,-0.03576 -1.04709,-0.07236 -1.57067,-0.109775 z"
         style=""
         id="path4078"
         inkscape:original-d="m 509.4029,40.47419 c 0.27045,0.09155 0.53259,0.287112 0.78642,0.586698 0.25797,0.299594 0.51595,0.71153 0.77394,1.23581 l 1.2795,2.546518 -1.3544,0 -1.19212,-2.390481 c -0.30791,-0.624144 -0.6075,-1.03816 -0.89877,-1.242052 -0.28711,-0.203884 -0.68032,-0.305828 -1.17963,-0.305831 l -1.37313,0 0,3.938364 -1.26077,0 0,-9.318507 2.84611,0 c 1.0652,9e-6 1.85995,0.222621 2.38424,0.667836 0.52427,0.445233 0.78641,1.11723 0.78642,2.015994 -1e-5,0.586703 -0.13732,1.073537 -0.41194,1.460502 -0.27047,0.386976 -0.66576,0.655359 -1.18587,0.805149 m -3.15819,-3.913398 0,3.307976 1.58534,0 c 0.60749,5e-6 1.0652,-0.139387 1.37312,-0.418178 0.31207,-0.282941 0.4681,-0.696957 0.46811,-1.242051 -1e-5,-0.545081 -0.15604,-0.954937 -0.46811,-1.229569 -0.30792,-0.278777 -0.76563,-0.41817 -1.37312,-0.418178 l -1.58534,0" />
      <path
         d="m 515.83285,46.965602 c -0.3699,0.815551 -0.71881,1.341974 -1.04466,1.579406 -0.32585,0.237427 -0.75128,0.342163 -1.27532,0.313327 -0.31062,-0.01709 -0.62119,-0.03452 -0.9317,-0.05228 l 0.055,-0.960561 c 0.22764,0.01302 0.4553,0.02587 0.683,0.03853 0.32045,0.01783 0.5734,-0.04353 0.75853,-0.183709 0.18513,-0.140182 0.4001,-0.48324 0.64392,-1.029298 0.0786,-0.171039 0.15709,-0.342098 0.23551,-0.513178 -0.83193,-2.341259 -1.64815,-4.685121 -2.4498,-7.031163 0.40299,0.02368 0.80597,0.04681 1.20893,0.06937 0.6214,1.861945 1.25195,3.722515 1.89219,5.581511 0.82525,-1.784679 1.64107,-3.57164 2.44689,-5.360835 0.40284,0.01836 0.80567,0.03611 1.20847,0.05324 -1.12411,2.502992 -2.26831,5.001582 -3.43098,7.495635 z"
         style=""
         id="path4080"
         inkscape:original-d="m 516.03133,45.492328 c -0.32456,0.832194 -0.64079,1.375201 -0.9487,1.629023 -0.30792,0.253817 -0.71985,0.380726 -1.23581,0.380729 l -0.9175,0 0,-0.961186 0.67408,0 c 0.31623,-1e-6 0.56173,-0.0749 0.73649,-0.224692 0.17476,-0.149797 0.36825,-0.503479 0.58046,-1.061049 l 0.20597,-0.524283 -2.82739,-6.878095 1.21709,0 2.18451,5.467523 2.18452,-5.467523 1.21708,0 -3.0708,7.639553" />
      <path
         d="m 526.47668,37.68411 -0.028,1.229618 c -0.46835,-0.239813 -0.9104,-0.421727 -1.32693,-0.545414 -0.41655,-0.12367 -0.81984,-0.191528 -1.21049,-0.203415 -0.67851,-0.02062 -1.20712,0.09479 -1.58688,0.348233 -0.37565,0.253604 -0.5729,0.625485 -0.59049,1.116469 -0.0148,0.411939 0.096,0.728466 0.33292,0.949231 0.24121,0.21676 0.70376,0.401637 1.38804,0.552101 0.25131,0.05991 0.50272,0.119549 0.75424,0.178926 0.93223,0.206214 1.61528,0.539139 2.04975,1.00302 0.43872,0.459825 0.65134,1.067739 0.63531,1.825057 -0.0191,0.902964 -0.33938,1.581426 -0.96428,2.033003 -0.6207,0.451678 -1.52466,0.662325 -2.70788,0.625684 -0.44634,-0.01382 -0.92056,-0.07929 -1.42202,-0.196735 -0.49726,-0.117289 -1.01132,-0.284088 -1.54153,-0.500575 l 0.0507,-1.298151 c 0.5039,0.307178 1.00128,0.542201 1.49128,0.70515 0.48999,0.162951 0.97478,0.251821 1.45348,0.266677 0.72644,0.02255 1.29134,-0.103579 1.6932,-0.376113 0.40186,-0.272532 0.60863,-0.671441 0.62172,-1.19575 0.0114,-0.457726 -0.12169,-0.819039 -0.39838,-1.084448 -0.27254,-0.265293 -0.72738,-0.471033 -1.36441,-0.619278 -0.25444,-0.05762 -0.50879,-0.115509 -0.76303,-0.173664 -0.93417,-0.21746 -1.6033,-0.535963 -2.0075,-0.951188 -0.4042,-0.415214 -0.59139,-0.979069 -0.56351,-1.690561 0.0323,-0.823817 0.34457,-1.461263 0.93347,-1.914333 0.59302,-0.452899 1.3904,-0.661739 2.39505,-0.630735 0.43055,0.0133 0.86804,0.06561 1.31289,0.15681 0.44484,0.09122 0.89909,0.221397 1.36327,0.390381 z"
         style=""
         id="path4082"
         inkscape:original-d="m 526.32351,35.830541 0,1.229568 c -0.47852,-0.228846 -0.92999,-0.399445 -1.3544,-0.5118 -0.42443,-0.112338 -0.83428,-0.168511 -1.22957,-0.16852 -0.68657,9e-6 -1.21709,0.13316 -1.59157,0.399454 -0.37033,0.26631 -0.5555,0.644959 -0.55549,1.135947 -10e-6,0.411943 0.12274,0.724016 0.36824,0.93622 0.24966,0.208054 0.71985,0.376574 1.41057,0.505558 l 0.76146,0.156037 c 0.94038,0.178927 1.63318,0.495161 2.07841,0.948703 0.44938,0.449389 0.67407,1.05273 0.67408,1.810024 -10e-6,0.902934 -0.30376,1.587414 -0.91126,2.053442 -0.60334,0.46603 -1.48963,0.699044 -2.65886,0.699044 -0.44107,0 -0.91126,-0.04993 -1.41057,-0.149795 -0.49516,-0.09986 -1.00904,-0.247578 -1.54164,-0.443144 l 0,-1.298224 c 0.5118,0.287108 1.01319,0.503479 1.50419,0.649112 0.49099,0.145635 0.97367,0.218452 1.44802,0.218451 0.71984,10e-7 1.27533,-0.141472 1.66647,-0.424419 0.39113,-0.282945 0.58669,-0.68656 0.5867,-1.210845 -1e-5,-0.457704 -0.14148,-0.815548 -0.42442,-1.073532 -0.27879,-0.257976 -0.73858,-0.451462 -1.37936,-0.580456 l -0.7677,-0.149795 c -0.94039,-0.18724 -1.62071,-0.480588 -2.04096,-0.880047 -0.42026,-0.399448 -0.63039,-0.954938 -0.63039,-1.666471 0,-0.823865 0.28919,-1.472977 0.86756,-1.947337 0.58254,-0.474342 1.38352,-0.711517 2.40297,-0.711527 0.43689,10e-6 0.88212,0.03954 1.33567,0.118588 0.45354,0.07907 0.91749,0.197656 1.39185,0.355764" />
      <path
         d="m 531.56689,40.591051 c -0.61177,-0.0046 -1.09757,0.231317 -1.45963,0.709672 -0.36202,0.474205 -0.54983,1.129048 -0.56108,1.965362 -0.0113,0.836321 0.15732,1.498329 0.50803,1.985136 0.35496,0.4827 0.8467,0.727173 1.47292,0.731654 0.61781,0.0044 1.10896,-0.23505 1.47098,-0.716637 0.36202,-0.481584 0.54227,-1.138783 0.54322,-1.97074 9.5e-4,-0.82779 -0.1772,-1.483017 -0.53204,-1.966649 -0.35483,-0.487781 -0.83477,-0.733169 -1.4424,-0.737798 z m 0.007,-0.973523 c 0.98905,0.0076 1.76377,0.3337 2.32982,0.982725 0.56603,0.649038 0.85322,1.546306 0.85639,2.694279 0.003,1.143821 -0.28052,2.043434 -0.85635,2.696627 -0.57584,0.649035 -1.37231,0.972398 -2.38398,0.965239 -1.01589,-0.0072 -1.80938,-0.341824 -2.37564,-0.999161 -0.562,-0.661436 -0.83075,-1.565399 -0.81124,-2.709668 0.0196,-1.148424 0.3178,-2.041996 0.88962,-2.682791 0.57595,-0.640721 1.35821,-0.954883 2.35138,-0.94725 z"
         style=""
         id="path4084"
         inkscape:original-d="m 531.51017,38.657924 c -0.61583,6e-6 -1.10267,0.241343 -1.46051,0.72401 -0.35784,0.478517 -0.53676,1.135951 -0.53676,1.972303 0,0.836359 0.17684,1.495873 0.53052,1.978544 0.35784,0.478514 0.84676,0.71777 1.46675,0.717769 0.61166,10e-7 1.09641,-0.241336 1.45426,-0.72401 0.35784,-0.482671 0.53676,-1.140105 0.53676,-1.972303 0,-0.82803 -0.17892,-1.483383 -0.53676,-1.966061 -0.35785,-0.486829 -0.8426,-0.730246 -1.45426,-0.730252 m 0,-0.973668 c 0.99863,7e-6 1.78297,0.324563 2.35303,0.973668 0.57005,0.649118 0.85507,1.547888 0.85508,2.696313 -1e-5,1.144271 -0.28503,2.043041 -0.85508,2.696313 -0.57006,0.649112 -1.3544,0.973668 -2.35303,0.973668 -1.0028,0 -1.78923,-0.324556 -2.35928,-0.973668 -0.56589,-0.653272 -0.84884,-1.552042 -0.84884,-2.696313 0,-1.148425 0.28295,-2.047195 0.84884,-2.696313 0.57005,-0.649105 1.35648,-0.973661 2.35928,-0.973668" />
      <path
         d="m 536.65716,37.45691 c 0.41268,-0.0036 0.82527,-0.008 1.23776,-0.0133 l 0.10999,8.251377 c 1.52656,-0.02062 3.05305,-0.05289 4.57932,-0.09749 l 0.0308,1.059577 c -1.95766,0.05732 -3.91542,0.09446 -5.87296,0.112841 z"
         style=""
         id="path4086"
         inkscape:original-d="m 536.66561,35.524709 1.26078,0 0,8.257458 4.53754,0 0,1.061049 -5.79832,0 0,-9.318507" />
      <path
         d="m 544.00855,45.028247 c 0.4421,-0.01517 0.88417,-0.0314 1.3262,-0.0487 l 0.0618,1.582357 c -0.4446,0.01743 -0.88921,0.03379 -1.33383,0.04908 z"
         style=""
         id="path4088"
         inkscape:original-d="m 543.89323,43.257884 1.31695,0 0,1.585332 -1.31695,0 0,-1.585332" />
      <path
         d="m 550.39704,40.131586 c -0.60859,0.03606 -1.07601,0.303074 -1.40505,0.803436 -0.32925,0.496223 -0.47393,1.160976 -0.43097,1.995187 0.043,0.834219 0.2539,1.483107 0.63574,1.945407 0.3858,0.45793 0.89311,0.669396 1.51889,0.632295 0.61735,-0.0366 1.09195,-0.308317 1.42075,-0.812773 0.3288,-0.504452 0.46376,-1.171789 0.40805,-2.001055 -0.0554,-0.825114 -0.27754,-1.465992 -0.6633,-1.923982 -0.38604,-0.462126 -0.87965,-0.674313 -1.48411,-0.638515 z m -0.0575,-0.970725 c 0.98309,-0.05821 1.77462,0.214019 2.38188,0.822118 0.60724,0.608113 0.95533,1.482484 1.03786,2.626492 0.0822,1.139871 -0.13852,2.056252 -0.669,2.746628 -0.53079,0.686233 -1.30533,1.062545 -2.31708,1.122537 -1.01597,0.06024 -1.83118,-0.2218 -2.43914,-0.840425 -0.60398,-0.622984 -0.92961,-1.506854 -0.98312,-2.648497 -0.0537,-1.145786 0.18633,-2.055249 0.7136,-2.730757 0.53138,-0.6757 1.28781,-1.039623 2.275,-1.098096 z"
         style=""
         id="path4090"
         inkscape:original-d="m 550.50919,38.657924 c -0.61583,6e-6 -1.10267,0.241343 -1.46051,0.72401 -0.35784,0.478517 -0.53677,1.135951 -0.53676,1.972303 -1e-5,0.836359 0.17684,1.495873 0.53052,1.978544 0.35784,0.478514 0.84676,0.71777 1.46675,0.717769 0.61165,10e-7 1.09641,-0.241336 1.45426,-0.72401 0.35784,-0.482671 0.53676,-1.140105 0.53676,-1.972303 0,-0.82803 -0.17892,-1.483383 -0.53676,-1.966061 -0.35785,-0.486829 -0.84261,-0.730246 -1.45426,-0.730252 m 0,-0.973668 c 0.99863,7e-6 1.78297,0.324563 2.35303,0.973668 0.57004,0.649118 0.85507,1.547888 0.85508,2.696313 -10e-6,1.144271 -0.28504,2.043041 -0.85508,2.696313 -0.57006,0.649112 -1.3544,0.973668 -2.35303,0.973668 -1.0028,0 -1.78923,-0.324556 -2.35928,-0.973668 -0.56589,-0.653272 -0.84884,-1.552042 -0.84884,-2.696313 0,-1.148425 0.28295,-2.047195 0.84884,-2.696313 0.57005,-0.649105 1.35648,-0.973661 2.35928,-0.973668" />
      <path
         d="m 559.45519,39.693807 c -0.13438,-0.06208 -0.27895,-0.102389 -0.43378,-0.120997 -0.15113,-0.02312 -0.31682,-0.02622 -0.49717,-0.0094 -0.63948,0.05976 -1.11239,0.314305 -1.42121,0.766691 -0.30507,0.447899 -0.42574,1.064816 -0.35916,1.851676 l 0.31015,3.665132 c -0.38938,0.03288 -0.77879,0.06482 -1.16823,0.09583 l -0.55522,-6.959918 c 0.37833,-0.03024 0.75657,-0.06138 1.1347,-0.09346 l 0.0915,1.080903 c 0.20245,-0.442603 0.48464,-0.781787 0.8469,-1.018447 0.3619,-0.240786 0.81352,-0.386151 1.35621,-0.437716 0.0776,-0.0074 0.16379,-0.0094 0.25883,-0.006 0.0946,-7.69e-4 0.20007,0.0037 0.31633,0.01322 0.04,0.390808 0.0799,0.781615 0.11995,1.172421"
         style=""
         id="path4092"
         inkscape:original-d="m 559.66541,38.926307 c -0.12899,-0.07489 -0.27047,-0.128984 -0.42442,-0.162278 -0.1498,-0.03744 -0.31624,-0.05617 -0.49931,-0.05617 -0.64912,6e-6 -1.14844,0.212216 -1.49796,0.636629 -0.34536,0.420264 -0.51804,1.025686 -0.51804,1.816267 l 0,3.682464 -1.15467,0 0,-6.990441 1.15467,0 0,1.086015 c 0.24134,-0.424413 0.55549,-0.738567 0.94246,-0.942461 0.38697,-0.208042 0.85716,-0.312066 1.41057,-0.312073 0.0791,7e-6 0.16644,0.0062 0.26215,0.01872 0.0957,0.0083 0.2018,0.02289 0.31831,0.04369 l 0.006,1.179637" />
      <path
         d="m 565.24465,41.410881 c -0.10107,-0.825854 -0.35053,-1.444724 -0.74529,-1.858095 -0.39066,-0.413852 -0.88891,-0.584902 -1.49822,-0.515565 -0.60522,0.06888 -1.05245,0.34755 -1.34451,0.838845 -0.28798,0.490869 -0.3903,1.149368 -0.30375,1.976402 0.0861,0.822908 0.32314,1.444189 0.71416,1.862444 0.39518,0.417815 0.90423,0.592888 1.52384,0.52284 0.6238,-0.07052 1.08102,-0.354898 1.36862,-0.850161 0.29177,-0.495758 0.38571,-1.154979 0.28515,-1.97671 z m 1.48419,2.544249 c 0.15078,1.180448 -0.004,2.091923 -0.47084,2.732045 -0.4663,0.64425 -1.25977,1.033713 -2.37427,1.158597 -0.41263,0.04623 -0.80538,0.05775 -1.17778,0.03488 -0.37196,-0.01874 -0.73659,-0.07257 -1.09347,-0.16137 l -0.1145,-1.110433 c 0.36121,0.146829 0.71407,0.245716 1.05794,0.29676 0.34386,0.05104 0.68977,0.05724 1.03715,0.01855 0.76679,-0.0854 1.31821,-0.349205 1.65138,-0.78683 0.33366,-0.433495 0.45072,-1.045189 0.3542,-1.833883 l -0.069,-0.563649 c -0.1882,0.437865 -0.45734,0.780416 -0.80702,1.026789 -0.34968,0.246374 -0.78595,0.399382 -1.30732,0.457597 -0.86617,0.09672 -1.60001,-0.15458 -2.19457,-0.749747 -0.59455,-0.595166 -0.9418,-1.430087 -1.0483,-2.501538 -0.10691,-1.075582 0.0677,-1.963562 0.51676,-2.666103 0.44909,-0.702529 1.08997,-1.098489 1.92883,-1.193002 0.50493,-0.05688 0.94986,-0.0062 1.33645,0.153104 0.38658,0.159348 0.72119,0.428712 1.00437,0.808866 l -0.12886,-1.052969 c 0.37447,-0.04607 0.74882,-0.09313 1.12305,-0.141199 z"
         style=""
         id="path4094"
         inkscape:original-d="m 565.25776,41.266857 c 0,-0.832191 -0.17268,-1.477142 -0.51804,-1.934855 -0.3412,-0.457701 -0.8218,-0.686555 -1.44178,-0.686561 -0.61582,6e-6 -1.09642,0.22886 -1.44177,0.686561 -0.34121,0.457713 -0.51181,1.102664 -0.5118,1.934855 -10e-6,0.828037 0.17059,1.470907 0.5118,1.928612 0.34535,0.457709 0.82595,0.686562 1.44177,0.686561 0.61998,10e-7 1.10058,-0.228852 1.44178,-0.686561 0.34536,-0.457705 0.51804,-1.100575 0.51804,-1.928612 m 1.14843,2.708795 c 0,1.190039 -0.26423,2.074246 -0.79266,2.652623 -0.52845,0.582534 -1.33776,0.873802 -2.42793,0.873805 -0.40362,-3e-6 -0.78435,-0.03121 -1.14219,-0.09362 -0.35785,-0.05826 -0.70529,-0.149798 -1.04233,-0.274624 l 0,-1.117223 c 0.33704,0.183082 0.66992,0.318314 0.99864,0.405696 0.32871,0.08738 0.66367,0.131069 1.00487,0.13107 0.75314,-10e-7 1.31695,-0.197648 1.69144,-0.592939 0.37448,-0.391132 0.56173,-0.984071 0.56173,-1.778817 l 0,-0.567974 c -0.23718,0.411938 -0.54093,0.71985 -0.91125,0.923737 -0.37033,0.203888 -0.81348,0.305832 -1.32943,0.305832 -0.85717,0 -1.54789,-0.326636 -2.07217,-0.97991 -0.52428,-0.653272 -0.78642,-1.518754 -0.78642,-2.596449 0,-1.08185 0.26214,-1.949413 0.78642,-2.602691 0.52428,-0.653267 1.215,-0.979903 2.07217,-0.97991 0.51595,7e-6 0.9591,0.101951 1.32943,0.305831 0.37032,0.203895 0.67407,0.511807 0.91125,0.923737 l 0,-1.061049 1.14843,0 0,6.122877" />
    </g>
  </g>
</svg>
