<?xml version="1.0" encoding="UTF-8" standalone="no"?>
<!-- Created with Inkscape (http://www.inkscape.org/) -->

<svg
   xmlns:dc="http://purl.org/dc/elements/1.1/"
   xmlns:cc="http://creativecommons.org/ns#"
   xmlns:rdf="http://www.w3.org/1999/02/22-rdf-syntax-ns#"
   xmlns:svg="http://www.w3.org/2000/svg"
   xmlns="http://www.w3.org/2000/svg"
   xmlns:sodipodi="http://sodipodi.sourceforge.net/DTD/sodipodi-0.dtd"
   xmlns:inkscape="http://www.inkscape.org/namespaces/inkscape"
   version="1.0"
   width="748.73621"
   height="400.42914"
   id="svg2"
   inkscape:version="0.47 r22583"
   sodipodi:docname="ls.svg">
  <metadata
     id="metadata8">
    <rdf:RDF>
      <cc:Work
         rdf:about="">
        <dc:format>image/svg+xml</dc:format>
        <dc:type
           rdf:resource="http://purl.org/dc/dcmitype/StillImage" />
        <dc:title></dc:title>
      </cc:Work>
    </rdf:RDF>
  </metadata>
  <sodipodi:namedview
     pagecolor="#ffffff"
     bordercolor="#666666"
     borderopacity="1"
     objecttolerance="10"
     gridtolerance="10"
     guidetolerance="10"
     inkscape:pageopacity="0"
     inkscape:pageshadow="2"
     inkscape:window-width="1680"
     inkscape:window-height="975"
     id="namedview6"
     showgrid="false"
     inkscape:zoom="1.6669836"
     inkscape:cx="332.07131"
     inkscape:cy="212.89548"
     inkscape:window-x="0"
     inkscape:window-y="25"
     inkscape:window-maximized="1"
     inkscape:current-layer="svg2" />
  <defs
     id="defs4">
    <inkscape:perspective
       sodipodi:type="inkscape:persp3d"
       inkscape:vp_x="0 : 200.21457 : 1"
       inkscape:vp_y="0 : 1000 : 0"
       inkscape:vp_z="748.73621 : 200.21457 : 1"
       inkscape:persp3d-origin="374.3681 : 133.47638 : 1"
       id="perspective10" />
    <inkscape:perspective
       id="perspective2946"
       inkscape:persp3d-origin="374.3681 : 133.47638 : 1"
       inkscape:vp_z="748.73621 : 200.21457 : 1"
       inkscape:vp_y="0 : 1000 : 0"
       inkscape:vp_x="0 : 200.21457 : 1"
       sodipodi:type="inkscape:persp3d" />
    <inkscape:perspective
       id="perspective2971"
       inkscape:persp3d-origin="0.5 : 0.33333333 : 1"
       inkscape:vp_z="1 : 0.5 : 1"
       inkscape:vp_y="0 : 1000 : 0"
       inkscape:vp_x="0 : 0.5 : 1"
       sodipodi:type="inkscape:persp3d" />
    <inkscape:perspective
       id="perspective3017"
       inkscape:persp3d-origin="0.5 : 0.33333333 : 1"
       inkscape:vp_z="1 : 0.5 : 1"
       inkscape:vp_y="0 : 1000 : 0"
       inkscape:vp_x="0 : 0.5 : 1"
       sodipodi:type="inkscape:persp3d" />
  </defs>
  <g
     transform="translate(-26.92418,-23.19062)"
     id="layer1">
    <path
       d="M 250.26523,411.55698 C 186.30357,412.07453 134.53511,399.97996 131.95978,397.40459 C 130.54405,395.98888 130.30997,183.90836 129.51928,184.17191 L 113.90754,222.73116 C 113.90754,222.73116 90.62823,223.24337 71.12291,217.09707 C 51.840609,211.02105 35.071547,201.00542 36.098376,199.70415 C 37.360654,198.10454 71.170271,88.753015 96.171201,70.187262 C 105.57256,63.205788 194.63293,44.255896 196.62709,46.113728 C 197.74104,47.151545 218.88712,66.926802 248.72564,66.292847 C 278.87734,65.658891 301.57466,46.709736 301.57466,46.709736 C 301.57466,46.709736 373.68439,59.418737 392.7816,71.666132 C 410.08461,82.76287 439.09602,165.94796 450.08362,201.85572 C 446.19492,204.40929 438.08969,208.95744 416.21834,215.29717 C 394.347,221.63693 382.33213,222.25081 376.46752,222.31826 C 375.81666,219.88926 367.66491,203.25411 364.70001,193.10373 C 362.5068,185.59522 360.88248,183.27491 360.88248,187.6505 C 360.88248,188.86343 359.95386,215.21154 358.81891,246.20185 L 357.52058,400.63386 C 357.52058,400.63386 315.1127,411.03942 250.26523,411.55698 z M 441.48453,396.94974 C 441.48453,349.8868 441.50111,222.85131 441.50111,209.54933 C 448.30706,206.27317 448.2498,206.18183 453.52796,203.13448 C 441.60121,166.21039 423.27054,113.69611 408.88425,88.298532 C 405.06418,81.554582 408.42054,85.429229 402.13182,76.040685 C 405.18483,70.357088 405.73822,65.634901 412.04777,63.31847 C 425.24994,58.471544 487.22607,43.03032 507.52044,41.097226 C 519.89235,45.928459 529.14538,48.81802 563.3605,48.645261 C 597.35418,48.472503 612.54022,40.931187 612.54022,40.931187 C 612.54022,40.931187 691.34412,54.585066 704.46043,65.377785 C 718.79463,77.172627 756.73051,189.48185 759.41982,199.51851 C 758.50848,201.18574 747.78883,206.56137 727.51867,212.15592 C 707.10298,217.79064 686.80381,217.56189 686.80381,217.56189 C 686.80381,217.56189 673.37168,181.13912 673.36469,181.49228 L 669.06782,398.75271 C 669.06782,398.75271 624.3585,411.67545 564.36656,412.00126 C 504.3729,412.32707 458.58491,405.11376 441.48453,396.94974 z "
       style="fill:none;fill-opacity:1;stroke:#000001;stroke-width:0.98820847;stroke-opacity:1"
       id="path2222" />
  </g>
  <path
     style="fill:#000000;fill-opacity:1;stroke:#000000;stroke-width:0.55129516;stroke-miterlimit:4;stroke-opacity:1;stroke-dasharray:1.65388551, 1.65388551;stroke-dashoffset:0"
     d="m 186.53898,386.45444 c -28.38081,-1.85416 -62.25875,-6.83751 -76.18551,-11.20668 l -4.49915,-1.41149 -0.39304,-9.5737 c -0.21617,-5.26554 -0.68738,-50.87586 -1.04713,-101.35626 -0.35974,-50.4804 -0.81992,-94.15721 -1.02261,-97.05957 -0.239,-3.42256 -0.59977,-5.19995 -1.02657,-5.05768 -0.36193,0.12065 -4.079523,8.6496 -8.26131,18.95323 -4.181787,10.30362 -7.71334,18.84395 -7.847888,18.9785 -0.451156,0.45116 -18.729858,-0.91354 -24.493067,-1.82867 -12.906081,-2.04932 -23.480618,-5.35485 -36.19808,-11.31528 -6.427464,-3.01243 -13.742273,-7.18911 -14.779573,-8.43898 -0.488395,-0.58848 0.578441,-4.32172 4.22889,-14.79839 19.681948,-56.48659 34.987493,-90.770497 48.035876,-107.598772 3.480898,-4.489254 5.552134,-6.422546 8.611005,-8.037515 7.955903,-4.200419 51.823527,-15.195913 85.073767,-21.323885 11.83291,-2.180788 11.60407,-2.210732 17.62197,2.305784 5.89031,4.420743 14.50499,9.082443 21.65324,11.717303 24.42112,9.001681 52.70783,3.737107 78.36542,-14.584961 0.46795,-0.334159 7.46508,0.856952 18.69399,3.182253 33.38994,6.914443 58.53744,14.021069 68.92775,19.478833 3.75351,1.971616 5.5065,3.37111 8.09846,6.465363 11.23747,13.415135 27.26317,50.050737 45.09194,103.082567 2.93942,8.74334 5.71679,17.14691 6.17193,18.67461 l 0.82753,2.77763 -5.02145,2.45468 c -16.43371,8.03346 -47.41367,16.45218 -62.62739,17.01884 l -4.46821,0.16643 -4.37102,-10.19806 c -2.40406,-5.60894 -5.46439,-13.46632 -6.80074,-17.46085 -2.75957,-8.24875 -3.69731,-9.93761 -4.87358,-8.77726 -1.45296,1.43327 -2.76794,52.13062 -3.52022,135.71729 -0.39048,43.38675 -0.88599,79.05559 -1.10114,79.2641 -0.88788,0.86047 -22.34805,4.53233 -37.88405,6.482 -31.32187,3.9307 -74.58656,5.29425 -104.98004,3.30859 l 0,0 z"
     id="path2858" />
  <path
     style="fill:#000000;fill-opacity:1;stroke:#000000;stroke-width:0.55129516;stroke-miterlimit:4;stroke-opacity:1;stroke-dasharray:1.65388551, 1.65388551;stroke-dashoffset:0"
     d="m 503.27875,387.37877 c -34.75297,-1.79569 -64.10484,-5.98726 -80.68466,-11.52212 -2.96943,-0.9913 -5.87138,-2.05236 -6.44877,-2.35792 -0.9929,-0.52545 -1.0498,-5.59345 -1.0498,-93.50814 l 0,-92.95258 3.74929,-1.88214 c 2.0621,-1.03517 4.87198,-2.53502 6.24416,-3.33299 l 2.49488,-1.45085 -5.86055,-17.52169 C 411.51814,132.33928 402.71637,108.54131 394.71987,89.839217 390.82022,80.718785 379.18063,57.122534 377.1903,54.302551 l -1.1597,-1.643109 2.23301,-4.249416 c 1.22815,-2.337179 3.13699,-4.938926 4.24188,-5.781661 2.45359,-1.871449 10.48972,-4.352476 31.6902,-9.783852 26.7226,-6.846092 59.55567,-13.791836 65.1951,-13.791836 0.96622,0 4.50921,0.917274 7.8733,2.038386 10.68422,3.560604 24.47606,5.133406 45.17198,5.151349 20.63577,0.01789 41.58465,-2.774131 51.31297,-6.838885 2.03314,-0.849498 3.04519,-0.713613 20.07413,2.695301 42.6447,8.536764 66.44886,15.332814 72.82653,20.791865 3.07882,2.635358 5.78857,6.843259 10.53166,16.354341 6.94812,13.932733 16.36882,37.06427 27.36309,67.187226 6.18644,16.95006 16.69095,48.05481 16.69095,49.4233 0,0.83334 -7.96199,4.72316 -14.6972,7.18029 -16.03612,5.85027 -31.92582,9.14094 -49.86065,10.32589 l -6.06897,0.40098 -1.79539,-4.72074 c -0.98747,-2.5964 -4.04146,-10.73337 -6.78666,-18.08216 -2.76461,-7.40075 -5.27759,-13.26656 -5.63308,-13.14877 -0.78714,0.26082 -0.55176,-8.70351 -3.00949,114.61317 -1.117,56.04519 -2.25599,102.11374 -2.53109,102.37455 -0.80024,0.75867 -18.16471,4.59442 -29.59465,6.53734 -13.47126,2.28992 -27.07189,4.02264 -40.56731,5.16827 -12.77451,1.08442 -53.19943,1.60877 -67.41216,0.87439 l 0,0 z"
     id="path2860" />
  <text
     xml:space="preserve"
     style="font-size:32.50064087px;font-style:normal;font-variant:normal;font-weight:normal;font-stretch:normal;text-align:start;line-height:125%;writing-mode:lr-tb;text-anchor:start;fill:#ffffff;fill-opacity:1;stroke:none;font-family:Courier 10 Pitch;-inkscape-font-specification:Courier 10 Pitch"
     x="131.16118"
     y="150.8894"
     id="text2862"
     sodipodi:linespacing="125%"><tspan
       sodipodi:role="line"
       id="tspan2864"
       x="131.16118"
       y="150.8894">$ ls</tspan></text>
  <text
     xml:space="preserve"
     style="font-size:12.78252029px;font-style:normal;font-variant:normal;font-weight:normal;font-stretch:normal;text-align:start;line-height:125%;writing-mode:lr-tb;text-anchor:start;fill:#ffffff;fill-opacity:1;stroke:none;font-family:Courier 10 Pitch;-inkscape-font-specification:Courier 10 Pitch"
     x="492.36792"
     y="45.160881"
     id="text2862-9"
     sodipodi:linespacing="125%"><tspan
       sodipodi:role="line"
       id="tspan2864-4"
       x="492.36792"
       y="45.160881">CRySoL.org</tspan></text>
  <text
     xml:space="preserve"
     style="font-size:29.56196022px;font-style:normal;font-variant:normal;font-weight:normal;font-stretch:normal;text-align:start;line-height:125%;writing-mode:lr-tb;text-anchor:start;fill:#ffffff;fill-opacity:1;stroke:none;font-family:Courier 10 Pitch;-inkscape-font-specification:Courier 10 Pitch"
     x="132.24734"
     y="192.09818"
     id="text2862-3"
     sodipodi:linespacing="125%"><tspan
       sodipodi:role="line"
       id="tspan2864-3"
       x="132.24734"
       y="192.09818">SegFault</tspan></text>
</svg>
