<?xml version="1.0" encoding="UTF-8" standalone="no"?>
<!-- Created with Inkscape (http://www.inkscape.org/) -->
<svg
   xmlns:svg="http://www.w3.org/2000/svg"
   xmlns="http://www.w3.org/2000/svg"
   version="1.0"
   width="748.73621"
   height="400.42914"
   id="svg2">
  <defs
     id="defs4" />
  <g
     transform="translate(-26.92418,-23.19062)"
     id="layer1">
    <path
       d="M 250.26523,411.55698 C 186.30357,412.07453 134.53511,399.97996 131.95978,397.40459 C 130.54405,395.98888 130.30997,183.90836 129.51928,184.17191 L 113.90754,222.73116 C 113.90754,222.73116 90.62823,223.24337 71.12291,217.09707 C 51.840609,211.02105 35.071547,201.00542 36.098376,199.70415 C 37.360654,198.10454 71.170271,88.753015 96.171201,70.187262 C 105.57256,63.205788 194.63293,44.255896 196.62709,46.113728 C 197.74104,47.151545 218.88712,66.926802 248.72564,66.292847 C 278.87734,65.658891 301.57466,46.709736 301.57466,46.709736 C 301.57466,46.709736 373.68439,59.418737 392.7816,71.666132 C 410.08461,82.76287 439.09602,165.94796 450.08362,201.85572 C 446.19492,204.40929 438.08969,208.95744 416.21834,215.29717 C 394.347,221.63693 382.33213,222.25081 376.46752,222.31826 C 375.81666,219.88926 367.66491,203.25411 364.70001,193.10373 C 362.5068,185.59522 360.88248,183.27491 360.88248,187.6505 C 360.88248,188.86343 359.95386,215.21154 358.81891,246.20185 L 357.52058,400.63386 C 357.52058,400.63386 315.1127,411.03942 250.26523,411.55698 z M 441.48453,396.94974 C 441.48453,349.8868 441.50111,222.85131 441.50111,209.54933 C 448.30706,206.27317 448.2498,206.18183 453.52796,203.13448 C 441.60121,166.21039 423.27054,113.69611 408.88425,88.298532 C 405.06418,81.554582 408.42054,85.429229 402.13182,76.040685 C 405.18483,70.357088 405.73822,65.634901 412.04777,63.31847 C 425.24994,58.471544 487.22607,43.03032 507.52044,41.097226 C 519.89235,45.928459 529.14538,48.81802 563.3605,48.645261 C 597.35418,48.472503 612.54022,40.931187 612.54022,40.931187 C 612.54022,40.931187 691.34412,54.585066 704.46043,65.377785 C 718.79463,77.172627 756.73051,189.48185 759.41982,199.51851 C 758.50848,201.18574 747.78883,206.56137 727.51867,212.15592 C 707.10298,217.79064 686.80381,217.56189 686.80381,217.56189 C 686.80381,217.56189 673.37168,181.13912 673.36469,181.49228 L 669.06782,398.75271 C 669.06782,398.75271 624.3585,411.67545 564.36656,412.00126 C 504.3729,412.32707 458.58491,405.11376 441.48453,396.94974 z "
       style="fill:none;fill-opacity:1;stroke:#000001;stroke-width:0.98820847;stroke-opacity:1"
       id="path2222" />
  </g>
</svg>
