<?xml version="1.0" encoding="UTF-8" standalone="no"?>
<!-- Created with Inkscape (http://www.inkscape.org/) -->

<svg
   xmlns:dc="http://purl.org/dc/elements/1.1/"
   xmlns:cc="http://creativecommons.org/ns#"
   xmlns:rdf="http://www.w3.org/1999/02/22-rdf-syntax-ns#"
   xmlns:svg="http://www.w3.org/2000/svg"
   xmlns="http://www.w3.org/2000/svg"
   xmlns:sodipodi="http://sodipodi.sourceforge.net/DTD/sodipodi-0.dtd"
   xmlns:inkscape="http://www.inkscape.org/namespaces/inkscape"
   version="1.0"
   width="748.73621"
   height="400.42914"
   id="svg2"
   inkscape:version="0.47 r22583"
   sodipodi:docname="trivial.svg">
  <metadata
     id="metadata8">
    <rdf:RDF>
      <cc:Work
         rdf:about="">
        <dc:format>image/svg+xml</dc:format>
        <dc:type
           rdf:resource="http://purl.org/dc/dcmitype/StillImage" />
        <dc:title></dc:title>
      </cc:Work>
    </rdf:RDF>
  </metadata>
  <sodipodi:namedview
     pagecolor="#ffffff"
     bordercolor="#666666"
     borderopacity="1"
     objecttolerance="10"
     gridtolerance="10"
     guidetolerance="10"
     inkscape:pageopacity="0"
     inkscape:pageshadow="2"
     inkscape:window-width="1600"
     inkscape:window-height="853"
     id="namedview6"
     showgrid="false"
     inkscape:zoom="1.8101934"
     inkscape:cx="342.69272"
     inkscape:cy="265.62625"
     inkscape:window-x="0"
     inkscape:window-y="24"
     inkscape:window-maximized="1"
     inkscape:current-layer="svg2" />
  <defs
     id="defs4">
    <inkscape:perspective
       sodipodi:type="inkscape:persp3d"
       inkscape:vp_x="0 : 200.21457 : 1"
       inkscape:vp_y="0 : 1000 : 0"
       inkscape:vp_z="748.73621 : 200.21457 : 1"
       inkscape:persp3d-origin="374.3681 : 133.47638 : 1"
       id="perspective10" />
    <inkscape:perspective
       id="perspective2940"
       inkscape:persp3d-origin="0.5 : 0.33333333 : 1"
       inkscape:vp_z="1 : 0.5 : 1"
       inkscape:vp_y="0 : 1000 : 0"
       inkscape:vp_x="0 : 0.5 : 1"
       sodipodi:type="inkscape:persp3d" />
    <inkscape:perspective
       id="perspective3041"
       inkscape:persp3d-origin="0.5 : 0.33333333 : 1"
       inkscape:vp_z="1 : 0.5 : 1"
       inkscape:vp_y="0 : 1000 : 0"
       inkscape:vp_x="0 : 0.5 : 1"
       sodipodi:type="inkscape:persp3d" />
  </defs>
  <g
     transform="translate(-26.92418,-23.19062)"
     id="layer1"
     style="fill:#000000">
    <path
       d="M 250.26523,411.55698 C 186.30357,412.07453 134.53511,399.97996 131.95978,397.40459 C 130.54405,395.98888 130.30997,183.90836 129.51928,184.17191 L 113.90754,222.73116 C 113.90754,222.73116 90.62823,223.24337 71.12291,217.09707 C 51.840609,211.02105 35.071547,201.00542 36.098376,199.70415 C 37.360654,198.10454 71.170271,88.753015 96.171201,70.187262 C 105.57256,63.205788 194.63293,44.255896 196.62709,46.113728 C 197.74104,47.151545 218.88712,66.926802 248.72564,66.292847 C 278.87734,65.658891 301.57466,46.709736 301.57466,46.709736 C 301.57466,46.709736 373.68439,59.418737 392.7816,71.666132 C 410.08461,82.76287 439.09602,165.94796 450.08362,201.85572 C 446.19492,204.40929 438.08969,208.95744 416.21834,215.29717 C 394.347,221.63693 382.33213,222.25081 376.46752,222.31826 C 375.81666,219.88926 367.66491,203.25411 364.70001,193.10373 C 362.5068,185.59522 360.88248,183.27491 360.88248,187.6505 C 360.88248,188.86343 359.95386,215.21154 358.81891,246.20185 L 357.52058,400.63386 C 357.52058,400.63386 315.1127,411.03942 250.26523,411.55698 z M 441.48453,396.94974 C 441.48453,349.8868 441.50111,222.85131 441.50111,209.54933 C 448.30706,206.27317 448.2498,206.18183 453.52796,203.13448 C 441.60121,166.21039 423.27054,113.69611 408.88425,88.298532 C 405.06418,81.554582 408.42054,85.429229 402.13182,76.040685 C 405.18483,70.357088 405.73822,65.634901 412.04777,63.31847 C 425.24994,58.471544 487.22607,43.03032 507.52044,41.097226 C 519.89235,45.928459 529.14538,48.81802 563.3605,48.645261 C 597.35418,48.472503 612.54022,40.931187 612.54022,40.931187 C 612.54022,40.931187 691.34412,54.585066 704.46043,65.377785 C 718.79463,77.172627 756.73051,189.48185 759.41982,199.51851 C 758.50848,201.18574 747.78883,206.56137 727.51867,212.15592 C 707.10298,217.79064 686.80381,217.56189 686.80381,217.56189 C 686.80381,217.56189 673.37168,181.13912 673.36469,181.49228 L 669.06782,398.75271 C 669.06782,398.75271 624.3585,411.67545 564.36656,412.00126 C 504.3729,412.32707 458.58491,405.11376 441.48453,396.94974 z "
       style="fill:#000000;fill-opacity:1;stroke:#000001;stroke-width:0.98820847000000001;stroke-opacity:1"
       id="path2222" />
  </g>
  <rect
     style="fill:#ffffff;fill-opacity:1;stroke:none"
     id="rect3051"
     width="202.1283"
     height="149.91182"
     x="120.69811"
     y="84.108589" />
  <path
     style="fill:#000000"
     d="m 118.46359,159.0645 0,-76.61319 103.29869,0 103.29868,0 0,76.61319 0,76.61319 -103.29868,0 -103.29869,0 0,-76.61319 z m 186.83463,49.8657 c 0.69157,-0.73327 1.11401,-1.47839 1.00268,-1.76852 -0.16221,-0.42273 -0.29715,-0.40655 -0.86029,0.10308 -0.49081,0.44419 -0.9682,0.54445 -1.80054,0.37822 -3.43077,-0.68519 -5.91101,-0.89646 -6.26786,-0.53393 -0.27,0.2743 -0.20469,0.50514 0.23473,0.82976 0.71792,0.53036 4.59468,1.34878 5.05152,1.06643 0.17373,-0.10736 0.41494,0.11694 0.53602,0.49845 0.31302,0.98624 0.74337,0.86892 2.10374,-0.57349 z m -62.83846,-3.82824 c 0.27866,-1.78428 0.1795,-2.47985 -0.3535,-2.47985 -0.60511,0 -1.40589,0.62761 -1.40589,1.10186 0,0.15151 0.27116,0.29586 0.60257,0.32078 0.33142,0.0249 0.0709,0.14115 -0.579,0.25826 -0.92565,0.16679 -1.23787,0.42434 -1.44142,1.18896 -0.48009,1.80348 -0.0453,2.04288 1.62418,0.89426 0.83342,-0.57341 1.5323,-1.15133 1.55306,-1.28427 z m -2.72888,-4.47163 c 0.66844,-3.26927 0.75438,-4.10581 0.38371,-3.73514 -0.24239,0.24239 -1.46358,5.81753 -1.47441,6.73121 -0.0146,1.23488 0.53348,-0.27079 1.0907,-2.99608 z m -51.44513,2.14443 c 1.10518,-0.77411 0.94517,-1.11589 -0.52596,-1.12356 -2.99112,-0.0156 -3.06747,-0.19601 -1.11907,-2.64454 0.7535,-0.94691 1.37165,-2.08458 1.37366,-2.52816 0.002,-0.44358 0.31355,-1.20048 0.69232,-1.682 0.37876,-0.48152 0.68865,-1.09033 0.68865,-1.35293 0,-0.26259 0.3896,-0.65495 0.86577,-0.87191 0.58934,-0.26852 0.80595,-0.58296 0.6784,-0.98482 -0.111,-0.34973 0.0305,-0.67397 0.34718,-0.79549 0.42341,-0.16248 0.45364,-0.33469 0.14537,-0.8283 -0.32198,-0.51557 -0.0855,-1.13732 1.36952,-3.60071 0.96729,-1.63765 1.7587,-3.26589 1.7587,-3.61831 0,-0.35243 0.68729,-2.04465 1.52731,-3.7605 l 1.52731,-3.11973 0.38636,-5.64502 c 0.51035,-7.45679 0.99635,-13.32174 1.20962,-14.59757 0.17094,-1.02258 0.16694,-1.02085 -0.39726,0.17216 -0.36025,0.76175 -0.6711,2.72539 -0.84487,5.3371 -0.41557,6.24573 -0.51742,6.74894 -2.21185,10.92803 -0.86481,2.13297 -2.12602,5.4276 -2.80267,7.32141 -0.67665,1.8938 -1.82788,4.63312 -2.55829,6.08736 -0.7304,1.45425 -1.86585,3.94337 -2.52321,5.53139 -0.65736,1.58802 -1.9048,4.41617 -2.77207,6.28476 l -1.57687,3.39747 1.28401,1.31494 c 1.38662,1.42002 2.27772,1.6196 3.47794,0.77893 z m 85.4702,-11.68767 c 0,-0.35716 -0.35878,-0.51649 -1.163,-0.51649 -1.19424,0 -2.09361,-0.70677 -2.10294,-1.65259 -0.003,-0.28945 -0.19887,-0.59125 -0.4356,-0.67069 -0.88019,-0.29533 -0.46668,1.75122 0.51649,2.5562 1.10684,0.90625 3.18505,1.09127 3.18505,0.28357 z m -0.0861,-3.70154 c -0.0789,-0.23672 -0.58249,-0.43041 -1.11906,-0.43041 -0.53658,0 -1.04016,0.19369 -1.11907,0.43041 -0.0974,0.29216 0.26207,0.43041 1.11907,0.43041 0.85699,0 1.21645,-0.13825 1.11906,-0.43041 z m -6.12278,-1.37731 c -0.006,-0.23673 -0.23845,-0.73119 -0.5165,-1.0988 -0.3721,-0.49196 -0.50554,-1.6508 -0.50554,-4.39019 0,-2.047 -0.14104,-3.72181 -0.31342,-3.72181 -0.17238,0 -0.42313,1.31706 -0.55722,2.92679 -0.17283,2.07481 -0.37638,2.9268 -0.69925,2.9268 -0.25049,0 -0.55121,-0.15495 -0.66825,-0.34433 -0.11704,-0.18938 -0.4459,-0.34433 -0.7308,-0.34433 -0.3769,0 -0.48859,0.30453 -0.41009,1.11804 0.091,0.94296 0.40206,1.29342 1.98648,2.23813 2.05997,1.22826 2.43098,1.33424 2.41459,0.6897 z m 8.08097,-0.34433 c 0.09,-0.42611 0.33398,-2.94401 0.54224,-5.59535 0.67543,-8.59869 1.6718,-16.82238 2.4209,-19.98125 0.40287,-1.69883 1.33527,-6.18775 2.07201,-9.97536 0.73674,-3.78762 1.6492,-8.02269 2.02768,-9.41126 0.60036,-2.20258 1.04132,-5.00593 1.5403,-9.79229 0.13322,-1.27791 -0.67208,-2.73921 -1.14231,-2.07284 -0.40916,0.57985 -4.77973,4.12796 -6.30402,5.11773 -1.72974,1.12318 -1.68347,0.92994 -1.6431,6.86177 0.0103,1.51505 -0.13787,4.07169 -0.32929,5.68143 -0.60822,5.11476 -1.02928,12.88595 -1.4176,26.16379 -0.23227,7.94185 -0.51656,13.07471 -0.73902,13.34274 -0.28263,0.34055 -0.0156,0.43563 1.22355,0.43563 1.36577,0 1.60772,-0.10719 1.74866,-0.77474 z m -55.75897,-4.13195 c 0.18761,-1.77399 0.0986,-2.45152 -0.50647,-3.85671 -0.67685,-1.57181 -0.68363,-1.65902 -0.087,-1.11907 0.35589,0.32207 0.75108,0.58559 0.8782,0.58559 0.46516,0 0.21379,-1.30685 -0.40501,-2.10562 -0.34988,-0.45165 -0.74513,-1.26688 -0.87832,-1.81163 -0.19967,-0.81669 -0.14654,-0.95377 0.30285,-0.78132 0.37769,0.14493 0.65333,-0.0758 0.89785,-0.71892 0.27673,-0.72783 0.20006,-1.32733 -0.35535,-2.77869 -0.8508,-2.22329 -0.88871,-3.03144 -0.16128,-3.43853 0.44395,-0.24844 0.51635,-0.7541 0.38454,-2.68566 -0.22145,-3.24542 -0.51986,-4.27579 -1.5771,-5.44572 -0.49711,-0.55009 -0.71469,-0.89238 -0.48352,-0.76066 0.56028,0.31926 0.7396,-0.62476 0.85925,-4.52336 l 0.0977,-3.18521 -1.4634,1.7e-4 -1.4634,1.7e-4 0,1.30152 c 0,2.37336 -1.04963,9.83457 -1.90841,13.56584 -0.46542,2.02216 -0.8448,4.11396 -0.84305,4.64844 0.002,0.53448 0.93142,2.96718 2.06597,5.406 1.13454,2.43882 2.05481,4.60809 2.04503,4.8206 -0.01,0.21251 -0.90073,-1.3542 -1.97989,-3.48158 -1.07917,-2.12738 -2.11706,-3.84711 -2.30644,-3.82161 -0.30689,0.0413 -2.23814,4.81059 -2.23814,5.52715 0,0.48937 2.02525,-0.73356 2.41221,-1.45659 0.20166,-0.3768 0.61299,-0.6851 0.91407,-0.6851 0.42947,0 0.50105,0.23186 0.33221,1.07603 -0.11836,0.59182 -0.2152,1.2851 -0.2152,1.54064 0,0.25554 -0.48828,0.71711 -1.08508,1.02573 -0.59679,0.30861 -1.52232,1.03983 -2.05673,1.62494 -1.1659,1.2765 -1.50479,1.08589 -1.04299,-0.58661 0.18792,-0.68059 0.22118,-1.23744 0.0739,-1.23744 -0.14727,0 -0.83793,0.81348 -1.53482,1.80773 l -1.26705,1.80773 2.50947,0.25545 c 1.38021,0.1405 3.28422,0.48383 4.23112,0.76296 2.30187,0.67855 2.87583,0.78846 4.36279,0.83546 l 1.26383,0.0399 0.22759,-2.15206 z m 8.89149,0.87258 c 0.59713,-0.83924 0.79376,-1.39607 0.57148,-1.61834 -0.18637,-0.18638 -0.33887,-0.74174 -0.33887,-1.23413 0,-0.49239 -0.18165,-1.07691 -0.40368,-1.29894 -0.57129,-0.57129 -0.59967,-2.15296 -0.0582,-3.24483 0.2532,-0.51058 0.42538,-1.20785 0.38263,-1.54949 -0.0427,-0.34163 0.0487,-2.26817 0.20324,-4.28118 0.23629,-3.07809 0.19262,-3.83088 -0.27468,-4.73453 -0.52593,-1.01704 -0.52141,-1.07449 0.0845,-1.07449 0.98007,0 1.11843,-0.34138 0.56899,-1.40387 -0.63112,-1.22046 -0.62921,-1.37767 0.0137,-1.13095 0.38561,0.14797 0.5165,-0.0537 0.5165,-0.79598 l 0,-0.99417 -2.75419,0.52692 c -3.22971,0.6179 -3.03015,0.008 -2.19684,6.71096 0.4214,3.38955 0.51002,6.07268 0.36151,10.94633 l -0.19672,6.45617 1.30514,0 c 1.11314,0 1.43905,-0.18822 2.21549,-1.27948 z m 10.21815,-0.45991 c 0,-0.15497 -0.17201,-0.71795 -0.38225,-1.25107 -0.35517,-0.90066 -0.40224,-0.92054 -0.66446,-0.28067 -0.15521,0.37876 -0.29309,1.02279 -0.3064,1.43116 -0.0188,0.57754 0.12881,0.7025 0.66445,0.56242 0.37877,-0.0991 0.68866,-0.30688 0.68866,-0.46184 z m 28.90672,-15.90747 c 0.22365,-1.56239 0.86127,-5.37976 1.41692,-8.48304 0.55567,-3.10327 1.0103,-6.2072 1.0103,-6.89762 0,-0.69041 0.2436,-2.10254 0.54133,-3.13806 0.29773,-1.03553 0.67696,-2.94081 0.84272,-4.23397 0.16577,-1.29316 0.61158,-2.87692 0.99069,-3.51946 0.37911,-0.64254 0.79425,-1.75377 0.92253,-2.4694 0.12828,-0.71563 0.47607,-1.57896 0.77287,-1.91851 0.49685,-0.56842 0.47907,-0.63319 -0.22432,-0.81713 l -0.76393,-0.19978 0.86935,-1.13978 c 0.47815,-0.62688 0.86936,-1.51852 0.86936,-1.98142 0,-1.07963 0.35004,-1.34832 3.27113,-2.51101 2.54742,-1.01396 4.76814,-2.19764 4.54384,-2.42194 -0.0737,-0.0737 -0.69513,0.10046 -1.38095,0.38702 -1.90024,0.79397 -1.98378,0.59212 -0.15001,-0.36244 1.29123,-0.67216 1.63556,-1.0335 1.63556,-1.71642 0,-0.47577 -0.23154,-0.95388 -0.51452,-1.06247 -0.28298,-0.10859 -0.41399,-0.36009 -0.29113,-0.55889 0.12732,-0.206 0.0589,-0.25978 -0.1591,-0.12505 -0.21037,0.13001 -0.30473,0.43902 -0.2097,0.68669 0.095,0.24766 -0.10541,0.66881 -0.44544,0.93588 -0.55963,0.43953 -0.57486,0.43015 -0.16064,-0.099 0.28957,-0.3699 0.34803,-0.78035 0.15921,-1.11777 -0.24018,-0.42917 -0.61505,-0.15662 -1.92101,1.39666 -0.89244,1.06143 -1.62261,2.14548 -1.62261,2.409 0,0.26351 -0.15892,0.47912 -0.35317,0.47912 -0.42056,0 0.2539,-1.26185 1.90303,-3.5604 1.15525,-1.61018 2.18914,-4.17824 1.82767,-4.53971 -0.0969,-0.0969 -0.62527,0.0572 -1.17424,0.34228 -0.76301,0.39627 -1.02813,0.418 -1.12549,0.0922 -0.25912,-0.86707 -2.96624,-3.35276 -3.64587,-3.34766 -1.2983,0.01 -1.64752,0.50433 -1.51582,2.14686 0.091,1.13455 0.009,1.50385 -0.3063,1.38273 -0.51756,-0.19872 -0.57004,-2.28626 -0.0805,-3.20104 0.5245,-0.98004 2.67075,-1.51587 4.2857,-1.06996 0.72901,0.20129 1.4531,0.28711 1.60908,0.19071 0.15598,-0.0964 0.97185,0.51297 1.81303,1.35416 1.53161,1.53161 3.55137,5.28264 5.05444,9.38695 0.79223,2.16328 1.63624,3.0784 3.15314,3.4188 0.51849,0.11635 1.24215,0.59221 1.60812,1.05747 0.36597,0.46525 0.74686,0.71411 0.84643,0.55301 0.21612,-0.3497 -0.1758,-1.51969 -2.62754,-7.84381 l -1.86035,-4.79869 0.1538,-3.30746 c 0.34522,-7.42382 -2.51844,-11.19516 -9.13025,-12.02421 -2.38572,-0.29914 -2.96551,-0.25683 -4.71149,0.34388 -1.09505,0.37675 -2.52396,1.01439 -3.17536,1.41698 -1.56364,0.96638 -3.13073,3.76553 -3.42451,6.11689 -0.18422,1.47443 -0.49273,2.1586 -1.45231,3.22074 -1.04862,1.1607 -1.42442,2.1014 -2.69681,6.75069 -0.81312,2.97113 -1.48377,5.75809 -1.49033,6.19324 -0.0119,0.78553 1.25023,2.21434 2.57054,2.91014 0.37876,0.19961 0.0221,-0.28799 -0.79257,-1.08355 -0.96157,-0.939 -1.41994,-1.65193 -1.30653,-2.03212 0.0961,-0.32211 0.7325,-2.81991 1.41425,-5.55066 0.68175,-2.73076 1.39837,-5.26178 1.59249,-5.6245 0.19412,-0.36272 0.87781,-0.87879 1.51932,-1.14683 1.48735,-0.62145 2.26048,-0.62574 1.44674,-0.008 -0.83258,0.63202 -0.75399,0.83144 0.25189,0.63916 0.46995,-0.0898 1.26697,-0.0598 1.77115,0.0667 0.91451,0.22953 0.91496,0.23129 0.18862,0.74004 -1.01744,0.71264 -1.74111,3.17106 -1.06912,3.63197 0.35053,0.24042 0.1925,0.27948 -0.5468,0.13514 -0.93094,-0.18175 -1.08375,-0.0866 -1.45927,0.90824 -0.2307,0.61119 -0.3051,1.19673 -0.16533,1.30119 0.13977,0.10446 0.28297,0.65478 0.31824,1.22292 l 0.0641,1.03299 -0.37217,-1.11907 c -0.20469,-0.61549 -0.5047,-1.11907 -0.66669,-1.11907 -0.37286,0 -0.37147,0.0208 0.0896,1.34352 0.4803,1.37779 1.41571,1.30046 1.72452,-0.14257 0.12109,-0.56583 0.2385,-0.75762 0.26091,-0.42621 0.0475,0.70238 0.42139,0.77285 1.00485,0.18938 0.78029,-0.78028 0.41144,0.0885 -0.95845,2.25759 -0.7544,1.19452 -1.76156,2.34951 -2.23813,2.56665 -0.47658,0.21714 -0.8665,0.55307 -0.8665,0.74651 0,0.51024 1.37274,0.43316 1.40152,-0.0787 0.0133,-0.23673 0.12952,-0.17188 0.25825,0.1441 0.12872,0.31599 0.82074,1.03954 1.53781,1.6079 1.07111,0.84898 1.194,1.06192 0.68866,1.19327 -0.48906,0.12712 -0.46008,0.16807 0.14141,0.19983 0.41608,0.022 1.42474,0.39524 2.24145,0.82949 l 1.48493,0.78954 -3.04086,-0.0789 c -1.67248,-0.0434 -3.48552,-0.17661 -4.02899,-0.29598 -0.54346,-0.11937 -1.29891,-0.0507 -1.67878,0.15261 -0.37986,0.20329 -2.10247,0.43695 -3.82801,0.51924 -4.08887,0.19498 -6.90578,0.80278 -7.65931,1.65263 -0.69638,0.78538 -0.80424,2.53051 -0.17217,2.78556 0.27406,0.11059 0.22684,0.18355 -0.13,0.20086 -0.78767,0.0382 -1.51236,0.94217 -0.91736,1.14429 0.28643,0.0973 0.0463,0.48791 -0.67428,1.09708 -0.61549,0.5203 -1.11907,1.1555 -1.11907,1.41156 0,0.25606 -0.17803,0.57558 -0.39561,0.71006 -0.7823,0.48349 -6.00424,2.25859 -7.39092,2.51241 -0.77905,0.14259 -1.95274,0.57568 -2.60821,0.96242 -0.65547,0.38674 -2.09542,0.81606 -3.19989,0.95406 -1.10448,0.13799 -2.21627,0.33077 -2.47065,0.42838 -1.23482,0.47384 0.18471,3.89142 1.61634,3.89142 0.86363,0 1.302,0.89725 1.57556,3.22482 0.1742,1.48215 0.0973,2.11573 -0.33707,2.77872 -0.30949,0.47235 -0.56271,0.94174 -0.56271,1.04309 0,0.41689 0.99721,0.13938 1.81734,-0.50574 1.15466,-0.90826 1.45662,-2.77566 0.7996,-4.94487 l -0.50737,-1.6751 0.77514,0.7282 c 1.0313,0.96886 1.24724,0.91984 1.24724,-0.28314 0,-0.95625 0.0633,-1.00107 1.16138,-0.82287 0.64955,0.10541 1.25985,0.0291 1.38483,-0.1731 0.15035,-0.24326 0.63895,-0.18797 1.49328,0.169 0.86503,0.36143 1.78299,0.46249 2.8796,0.31702 1.53384,-0.20348 3.75511,-1.07324 3.75511,-1.47037 0,-0.10262 -0.5726,-0.71107 -1.27244,-1.3521 -1.44567,-1.32417 -1.0727,-1.49758 0.97459,-0.45313 1.32489,0.67591 1.42994,0.68199 2.05226,0.11879 0.90404,-0.81814 0.84206,-1.01929 -0.63534,-2.06187 -1.31222,-0.92602 -1.21581,-0.9464 1.11906,-0.23655 0.62918,0.19128 0.64429,0.1553 0.17487,-0.41651 -0.47597,-0.57979 -0.45393,-0.60688 0.29928,-0.36781 0.48751,0.15473 1.13961,0.0833 1.62862,-0.17842 0.67033,-0.35875 0.74015,-0.52731 0.39208,-0.94671 -0.36081,-0.43475 -0.2965,-0.47479 0.43465,-0.27059 0.78162,0.2183 0.8044,0.19632 0.25555,-0.24653 -0.76423,-0.61664 -0.7769,-0.97206 -0.0243,-0.68328 0.49833,0.19122 0.48643,0.099 -0.0861,-0.66759 -0.36537,-0.48921 -1.05168,-1.14545 -1.52513,-1.45832 -0.84579,-0.55892 -0.83075,-0.56515 0.86082,-0.3566 0.94691,0.11675 1.96166,0.28147 2.25501,0.36605 0.36324,0.10474 0.77633,-0.34631 1.29508,-1.41406 0.73901,-1.5211 0.80293,-1.56401 2.14355,-1.43907 2.30715,0.21503 2.39797,0.81819 0.19213,1.27612 -2.17351,0.45122 -2.33497,1.07518 -0.20427,0.78939 1.30468,-0.17499 1.37725,-0.13698 1.37725,0.72143 0,0.85267 0.0966,0.90566 1.63556,0.8977 0.89956,-0.005 2.55057,-0.31455 3.6689,-0.68866 1.11833,-0.3741 2.04921,-0.68019 2.06861,-0.68019 0.0194,0 -0.0687,1.74316 -0.1958,3.8737 -0.23887,4.00446 -1.30916,12.69976 -2.19331,17.81902 -0.56525,3.27282 -0.66669,6.54225 -0.20298,6.54225 0.1676,0 0.48771,-1.27832 0.71136,-2.84071 z m -16.78945,-23.92401 c 0.41615,-0.50143 1.86619,-0.58837 2.15014,-0.12892 0.10482,0.16959 -0.41774,0.36636 -1.16123,0.43726 -1.06284,0.10136 -1.27423,0.0354 -0.98891,-0.30834 z m 4.10017,-2.34984 c -0.64414,-0.27956 -1.08533,-0.59413 -0.98042,-0.69904 0.26833,-0.26834 3.01242,0.59201 3.01242,0.94448 0,0.41912 -0.69392,0.3353 -2.032,-0.24544 z m 14.42784,-3.61701 c 0,-0.61452 0.14344,-0.96466 0.34433,-0.8405 0.18938,0.11705 0.34433,0.59103 0.34433,1.05331 0,0.46228 -0.15495,0.8405 -0.34433,0.8405 -0.18938,0 -0.34433,-0.47399 -0.34433,-1.05331 z m 2.58247,-3.63039 c -0.37877,-0.29141 -0.65178,-0.66828 -0.60671,-0.83747 0.0451,-0.1692 -0.11862,-0.23067 -0.36375,-0.13661 -0.24514,0.0941 -0.90181,-0.22121 -1.45927,-0.70063 l -1.01356,-0.87166 2.78332,-3.4e-4 c 1.53083,-2.3e-4 2.86917,0.0854 2.97409,0.19034 0.20129,0.20128 -1.15793,2.90832 -1.4533,2.89441 -0.0947,-0.004 -0.48206,-0.24654 -0.86082,-0.53796 z m -4.29317,-4.18277 c 0.006,-0.14204 0.23845,-0.55902 0.5165,-0.92663 0.48484,-0.64103 0.50554,-0.63045 0.50554,0.25824 0,0.59412 -0.18534,0.92664 -0.51649,0.92664 -0.28407,0 -0.51157,-0.11621 -0.50555,-0.25825 z m 1.83936,-1.36341 c 0.12225,-0.8919 0.39592,-1.78285 0.60815,-1.97989 0.28253,-0.2623 0.32876,0.0106 0.17264,1.01908 -0.11726,0.75752 -0.21492,1.64847 -0.217,1.97989 -0.002,0.33142 -0.1798,0.60258 -0.39492,0.60258 -0.26806,0 -0.32119,-0.51029 -0.16887,-1.62166 z m 1.37596,0.84692 c 0.11419,-0.42611 0.20974,-1.3558 0.21232,-2.06598 0.003,-0.71018 0.15965,-1.29123 0.34903,-1.29123 0.3735,0 0.4754,2.70108 0.13533,3.58729 -0.32391,0.8441 -0.93083,0.64365 -0.69668,-0.23008 z m 1.38534,0.23008 c 0.11495,-0.29956 0.209,-0.9285 0.209,-1.39763 0,-0.48098 0.15017,-0.76018 0.34433,-0.64018 0.18938,0.11704 0.34433,0.74598 0.34433,1.39764 0,0.85868 -0.15232,1.18483 -0.55334,1.18483 -0.3631,0 -0.48147,-0.18725 -0.34432,-0.54466 z m 1.24199,0.20033 c 0,-0.18938 0.15494,-0.34433 0.34433,-0.34433 0.18938,0 0.34432,0.15495 0.34432,0.34433 0,0.18938 -0.15494,0.34433 -0.34432,0.34433 -0.18939,0 -0.34433,-0.15495 -0.34433,-0.34433 z m 0.78625,-1.4634 c -2.6763,-3.55095 -2.82325,-4.64118 -0.31377,-2.32803 1.6177,1.49114 3.06172,3.58574 2.71266,3.9348 -0.49801,0.49801 -1.13321,0.0725 -2.39889,-1.60677 z m 4.28686,0.73201 c 0.23357,-0.23532 0.51141,-0.34111 0.61743,-0.2351 0.10601,0.10602 -0.0851,0.29855 -0.42468,0.42786 -0.49073,0.18686 -0.53028,0.14731 -0.19275,-0.19276 z m -7.0573,-5.17815 c -0.40163,-0.40163 -0.1565,-1.6657 0.32302,-1.6657 0.17847,0 0.2222,-0.16551 0.0972,-0.3678 -0.12503,-0.20229 -0.44406,-0.28463 -0.70898,-0.18297 -0.56443,0.21659 -0.65422,-0.33493 -0.10936,-0.67167 0.20477,-0.12656 0.78583,0.15148 1.29124,0.61786 0.50541,0.46637 1.1999,0.94705 1.54332,1.06816 0.34342,0.12112 0.52796,0.37626 0.41009,0.56698 -0.24938,0.40351 -1.42629,0.4671 -1.63802,0.0885 -0.0794,-0.14204 -0.10213,-0.0774 -0.0504,0.14367 0.12642,0.54062 -0.72436,0.83667 -1.15806,0.40296 z m 4.39449,0.0853 c -0.69235,-0.19813 -0.49018,-0.28694 1.03299,-0.45381 1.04159,-0.1141 2.2037,-0.31067 2.58246,-0.43681 0.60357,-0.20101 0.58822,-0.14069 -0.12422,0.48814 -0.82204,0.72555 -1.92,0.85213 -3.49123,0.40248 z m -6.97266,-0.94603 c 0.23672,-0.0955 0.62409,-0.0955 0.86082,0 0.23673,0.0955 0.043,0.17367 -0.43041,0.17367 -0.47345,0 -0.66714,-0.0782 -0.43041,-0.17367 z m 2.27828,-5.36731 c 0.0359,-0.23672 0.19653,-0.64064 0.35691,-0.89758 0.24077,-0.38574 0.34069,-0.38775 0.5732,-0.0115 0.15757,0.25496 0.12005,0.65027 -0.0852,0.89758 -0.4678,0.56367 -0.92961,0.56998 -0.8449,0.0115 z m 1.59542,-0.34319 c 0,-0.24943 0.41363,-0.48774 0.91918,-0.52958 1.01364,-0.0839 0.99608,-0.0134 -0.14444,0.58 -0.61531,0.32014 -0.77474,0.30976 -0.77474,-0.0504 z m 2.49638,-0.84107 c 0.33142,-0.0866 0.87374,-0.0866 1.20515,0 0.33142,0.0866 0.0603,0.15747 -0.60257,0.15747 -0.66283,0 -0.93399,-0.0709 -0.60258,-0.15747 z m -53.12428,45.0862 c 0.13605,-2.62231 -0.10144,-4.72755 -0.60138,-5.33099 -0.3307,-0.39917 -0.3565,-0.90699 -0.10333,-2.03375 0.19878,-0.88464 0.21069,-1.62848 0.029,-1.81019 -0.16964,-0.16965 -0.21999,-0.75071 -0.11188,-1.29123 0.24042,-1.20211 -0.61122,-1.37146 -1.37966,-0.27435 -0.55356,0.79031 -0.47872,4.79445 0.11899,6.36654 0.18636,0.49018 0.24078,1.50448 0.12092,2.25402 -0.16685,1.0434 -0.0737,1.52212 0.39735,2.04266 0.76161,0.84157 1.48844,0.87829 1.52999,0.0773 z m 7.86711,-3.16895 c 0.0595,-0.81783 -0.0401,-1.63522 -0.22128,-1.81641 -0.51284,-0.51285 -1.8353,0.34971 -1.71258,1.11701 0.0572,0.3578 -0.18673,0.86387 -0.54212,1.1246 -0.53684,0.39384 -0.57878,0.59998 -0.24787,1.21829 0.36715,0.68603 0.485,0.70901 1.50699,0.29385 0.9765,-0.39667 1.12159,-0.62767 1.21686,-1.93734 z m -56.99209,-3.23592 c 0.61237,-0.25587 1.63186,-1.05571 2.26553,-1.77742 1.03759,-1.18175 1.13651,-1.47493 0.99489,-2.94877 -0.11096,-1.15477 -0.53174,-2.17736 -1.42934,-3.4736 l -1.27209,-1.83704 1.90817,2.03649 c 1.77439,1.89373 2.93514,2.40931 1.97965,0.87931 -0.22956,-0.36757 -0.41738,-0.83239 -0.41738,-1.03292 0,-0.45756 2.00426,-0.1173 4.13195,0.70147 0.85221,0.32794 1.83987,0.49164 2.1948,0.36377 0.57879,-0.20853 0.52935,-0.33008 -0.47949,-1.17897 -1.35133,-1.13707 -4.21448,-2.62998 -5.04386,-2.62998 -0.37403,0 -0.4747,-0.12026 -0.26969,-0.32218 0.37207,-0.36646 4.00118,0.30157 5.2338,0.96341 0.52091,0.2797 0.77474,0.29524 0.77474,0.0474 0,-0.25768 0.20036,-0.26133 0.66602,-0.0121 0.36631,0.19604 0.93738,0.35644 1.26904,0.35644 0.33166,0 0.96103,0.33633 1.3986,0.74741 0.97921,0.91992 1.4271,0.59888 0.70404,-0.50465 -0.94093,-1.43604 0.59946,-0.91051 2.34098,0.79867 1.47922,1.45174 2.06943,1.53467 1.05573,0.14835 -0.3582,-0.48987 -0.39126,-0.83895 -0.12633,-1.33397 0.28876,-0.53955 0.20795,-0.79266 -0.41381,-1.29613 -1.04789,-0.84853 -0.52788,-0.79051 0.91668,0.10228 0.6478,0.40037 1.2543,0.65147 1.34776,0.55801 0.21975,-0.21976 -2.14011,-2.03182 -3.47728,-2.67008 l -1.03299,-0.49308 1.37732,-0.12043 c 2.27314,-0.19876 4.11469,0.24122 6.15692,1.47098 1.81582,1.09344 2.46942,1.19902 1.51516,0.24475 -0.32998,-0.32998 -0.16444,-0.3688 0.77474,-0.18166 l 1.19439,0.238 -1.11907,-1.27651 c -1.26419,-1.44204 -1.38914,-1.75951 -0.51649,-1.31229 1.04544,0.53578 2.57537,0.81045 2.33339,0.41892 -0.1468,-0.23752 0.0453,-0.25869 0.57372,-0.0632 1.07044,0.39594 1.63483,0.14693 2.03146,-0.89629 0.18244,-0.47986 0.4215,-0.78267 0.53125,-0.67293 0.10974,0.10975 0.60741,-0.17866 1.10591,-0.6409 0.49851,-0.46224 1.22212,-0.84044 1.60803,-0.84044 0.98791,0 2.23219,-0.95251 2.23219,-1.70877 0,-0.55557 0.10938,-0.586 0.85813,-0.23872 0.47198,0.21891 0.85935,0.57233 0.86082,0.78538 0.005,0.76213 1.75134,0.40801 2.32805,-0.47215 0.52321,-0.79853 0.52177,-0.8898 -0.0203,-1.28616 -0.32088,-0.23464 -0.58343,-0.64856 -0.58343,-0.91982 0,-0.53984 -2.44689,-1.32469 -4.12992,-1.32469 -0.5616,0 -1.64603,-0.25006 -2.40986,-0.55568 -1.33702,-0.53497 -1.49793,-0.52164 -4.31869,0.35783 -2.63129,0.8204 -3.03296,1.06129 -3.94072,2.36341 -0.55594,0.79744 -1.21344,1.73599 -1.46111,2.08566 -0.28609,0.40391 -1.04487,0.70279 -2.08055,0.81953 -1.57012,0.17697 -1.63023,0.2248 -1.63023,1.2972 l 0,1.11345 -3.35721,0.24189 c -1.84646,0.13304 -3.89953,0.2833 -4.56236,0.33393 -0.66283,0.0506 -1.74747,0.26089 -2.4103,0.46727 -2.05153,0.63877 -4.52646,1.11769 -7.57524,1.46589 -4.55371,0.52007 -5.33462,0.46152 -5.80569,-0.43525 -0.61555,-1.17181 -2.10801,-3.15448 -2.56752,-3.41084 -0.22395,-0.12494 -1.56929,0.15224 -2.98964,0.61595 -1.42036,0.4637 -3.03575,0.91033 -3.58975,0.9925 -0.554,0.0822 -1.09632,0.26952 -1.20515,0.41635 -0.10883,0.14684 -0.76695,0.52991 -1.46248,0.85128 -1.23526,0.57074 -1.25612,0.612 -0.89844,1.77742 0.2014,0.6562 0.26831,1.44813 0.1487,1.75984 -0.1896,0.4941 -0.37188,0.44896 -1.42227,-0.35221 -0.78388,-0.59789 -1.41655,-0.83712 -1.81089,-0.68474 -0.51805,0.20019 -0.40602,0.41764 0.77123,1.49702 1.47722,1.35441 2.21638,2.85875 2.48604,5.05957 0.17226,1.4059 1.23426,2.92679 2.0437,2.92679 0.60648,0 0.9791,-1.61631 0.50447,-2.18821 -0.20889,-0.25169 -0.28952,-0.54789 -0.17918,-0.65823 0.37568,-0.37568 -0.23954,-1.59388 -0.91286,-1.80759 -0.80018,-0.25396 -0.86987,-0.95022 -0.15455,-1.54389 0.28407,-0.23575 0.51649,-0.72289 0.51649,-1.08253 0,-0.36278 0.38203,-0.82794 0.85813,-1.04486 0.6251,-0.28482 0.76258,-0.50613 0.50627,-0.81496 -0.20152,-0.24283 -0.25555,-1.02624 -0.12645,-1.83362 0.22333,-1.39659 0.24176,-1.41181 1.99012,-1.64374 1.88614,-0.2502 2.15872,-0.18709 2.00893,0.46516 -0.14686,0.63956 1.90957,1.53831 3.25466,1.42242 1.11146,-0.0958 1.26446,0.0134 2.01868,1.43952 0.44884,0.84873 0.90162,1.82663 1.00618,2.17313 0.15481,0.51306 0.39787,0.58518 1.30945,0.38854 0.61565,-0.13281 1.171,-0.37757 1.23413,-0.54392 0.50713,-1.33638 2.12336,2.42946 2.12336,4.94747 0,3.38843 -2.21781,4.45486 -4.37249,2.10251 -1.28056,-1.39805 -1.78342,-1.33834 -1.17145,0.13909 0.7884,1.90336 3.05492,2.62343 5.30213,1.68449 z m -17.31426,-10.41388 c 0.006,-1.28792 0.34576,-2.54975 0.68644,-2.54975 0.14657,0 0.33025,0.54606 0.40817,1.21348 0.10084,0.86383 -0.0371,1.37527 -0.47883,1.77501 -0.58428,0.52876 -0.62021,0.50316 -0.61578,-0.43874 z m 69.20541,7.95228 c 0,-0.56244 -1.88102,-0.74998 -2.20845,-0.22019 -0.28671,0.46392 0.16977,0.73669 1.23286,0.73669 0.63764,0 0.97559,-0.17892 0.97559,-0.5165 z m -59.22985,-0.77474 c -0.003,-0.5208 -0.15224,-1.17932 -0.33187,-1.4634 -0.29032,-0.4591 -0.38262,-0.4591 -0.83075,0 -0.70225,0.71947 -0.33791,2.41031 0.51938,2.41031 0.4792,0 0.64714,-0.24722 0.64324,-0.94691 z m 35.41393,-0.78487 c 1.787,0.49633 3.02315,0.43831 3.63195,-0.17049 0.57565,-0.57566 9.52283,-1.99086 10.41708,-1.6477 0.28406,0.109 0.85465,0.0339 1.26798,-0.1668 0.41333,-0.20075 1.98979,-0.53586 3.50325,-0.74469 2.36907,-0.32691 2.8053,-0.30646 3.13692,0.14706 0.21185,0.28973 0.60053,0.52441 0.86372,0.52151 0.38649,-0.004 0.3918,-0.0603 0.0276,-0.29127 -0.34062,-0.21601 -0.23969,-0.42442 0.41245,-0.85172 0.5798,-0.3799 0.93821,-0.44472 1.0911,-0.19733 0.12523,0.20262 0.59815,0.27542 1.05094,0.16178 0.45539,-0.1143 0.82326,-0.0534 0.82326,0.13632 0,0.52484 -1.64054,1.48258 -2.07724,1.21269 -0.25794,-0.15942 -0.34858,0.0788 -0.27339,0.71851 0.12355,1.05108 0.97331,1.60591 0.97331,0.63549 0,-0.71604 0.96225,-1.86353 1.56269,-1.86353 0.23264,0 0.49501,-0.27548 0.58306,-0.61219 0.10347,-0.39568 0.79622,-0.78541 1.95878,-1.10199 2.79705,-0.76166 3.1852,-2.57811 0.60436,-2.82828 -1.00956,-0.0978 -1.10074,-0.21164 -1.18876,-1.4833 -0.0524,-0.75752 -0.26671,-1.71549 -0.47617,-2.12882 -0.21448,-0.42325 -0.26192,-1.02487 -0.10861,-1.37732 0.3253,-0.74781 0.23067,-1.49763 -0.26511,-2.10067 -0.2891,-0.35164 -0.51549,-0.2989 -1.10855,0.25824 -1.06619,1.00164 -1.88515,0.91667 -0.93305,-0.0968 0.77259,-0.82239 1.02353,-2.30203 0.39041,-2.30203 -0.19705,0 -0.7781,0.27737 -1.29123,0.61637 -3.15226,2.08259 -4.35832,2.60496 -5.40679,2.34181 -0.51207,-0.12852 -2.06982,-1.31153 -3.46166,-2.62891 -1.39184,-1.31739 -2.71406,-2.39524 -2.93825,-2.39524 -0.50042,0 -0.36137,1.01128 0.98418,7.15774 0.55087,2.51641 0.86674,4.65863 0.70191,4.76049 -0.16482,0.10187 -0.25682,0.43352 -0.20446,0.73701 0.0795,0.46057 -0.75968,0.67071 -5.07648,1.27118 -3.68084,0.512 -5.44452,0.62344 -6.11808,0.38656 -0.76733,-0.26986 -1.30497,-0.15696 -2.84158,0.59666 -1.04236,0.51122 -2.2404,0.9316 -2.6623,0.93419 -1.54018,0.009 -2.3166,0.40216 -2.3166,1.17174 0,1.21093 0.57357,1.53085 2.12117,1.18313 0.86881,-0.19522 1.84735,-0.18018 2.64221,0.0406 z m -3.04173,-1.02285 c 0.47345,-0.15163 1.09324,-0.28876 1.37731,-0.30474 0.45911,-0.0258 0.45911,0.008 0,0.30474 -0.28407,0.18358 -0.90386,0.32071 -1.37731,0.30473 l -0.86083,-0.0291 0.86083,-0.27567 z m 4.3308,-0.30115 c -0.25823,-0.41782 1.54766,-0.79053 4.6039,-0.95019 1.41054,-0.0737 2.65012,-0.24839 2.75463,-0.38822 0.10451,-0.13984 1.35111,-0.30488 2.77022,-0.36677 1.41911,-0.0619 2.48617,-0.0185 2.37123,0.0965 -0.23054,0.23055 -8.67375,1.48599 -9.77204,1.45303 -0.37876,-0.0114 -1.10527,0.0873 -1.61446,0.21935 -0.50919,0.13201 -1.01026,0.10336 -1.11348,-0.0637 z m 12.88564,-2.30109 c 0,-0.2732 0.15495,-0.49673 0.34433,-0.49673 0.18938,0 0.34433,0.17393 0.34433,0.38649 0,0.25727 0.14392,0.27514 0.43041,0.0535 0.72918,-0.56422 1.70083,-0.82411 1.42748,-0.38182 -0.17697,0.28634 0.20076,0.33362 1.37719,0.17237 1.08187,-0.14829 1.54772,-0.10357 1.40062,0.13445 -0.12123,0.19615 -1.02017,0.33724 -1.99764,0.31354 -0.97748,-0.0237 -2.12587,0.0375 -2.55198,0.13593 -0.52813,0.12205 -0.77474,0.0209 -0.77474,-0.31769 z m 4.99277,-0.84842 -1.03298,-0.25548 1.03298,-0.0615 c 0.56815,-0.0338 1.80773,-0.13743 2.75464,-0.23026 1.15708,-0.11344 1.60785,-0.055 1.37462,0.17838 -0.46955,0.46975 -2.85852,0.68315 -4.12926,0.36885 z m 8.34998,0.12365 c 0.23673,-0.0955 0.6241,-0.0955 0.86082,0 0.23673,0.0955 0.043,0.17368 -0.43041,0.17368 -0.47345,0 -0.66714,-0.0782 -0.43041,-0.17368 z m -8.1183,-3.78815 c 0.19159,-0.69385 0.26315,-1.6875 0.15903,-2.2081 -0.21902,-1.09508 0.42815,-1.82189 1.31813,-1.48038 0.44908,0.17233 0.53121,0.44245 0.34205,1.12501 -0.13691,0.49403 -0.26289,1.55677 -0.27996,2.36164 -0.0287,1.35208 -0.10166,1.46339 -0.95932,1.46339 -0.90261,0 -0.91863,-0.0349 -0.57993,-1.26156 z m 4.07244,7.63165 c 0,-0.66643 -0.67596,-1.01126 -1.11727,-0.56995 -0.26191,0.26191 -0.24193,0.52122 0.069,0.89589 0.48542,0.5849 1.04825,0.40989 1.04825,-0.32594 z m -60.09875,-3.18504 c -0.74944,-1.79513 -1.08727,-2.05984 -1.7645,-1.38261 -0.52747,0.52748 -0.50498,0.58353 0.31695,0.78982 0.54687,0.13726 0.96437,0.53939 1.09328,1.05304 0.11471,0.45704 0.36265,0.83098 0.55096,0.83098 0.192,0 0.10561,-0.56716 -0.19669,-1.29123 z m -32.21029,-3.26485 c 2.45414,0.0782 3.0078,-0.008 3.61545,-0.56557 0.79028,-0.72463 9.70482,-2.61684 10.63919,-2.25829 0.28961,0.11113 0.88731,1.6e-4 1.32822,-0.24661 0.4409,-0.24676 2.1187,-0.70734 3.72844,-1.0235 2.65016,-0.52049 2.98395,-0.52419 3.53148,-0.0391 0.33258,0.29467 0.70704,0.43342 0.83213,0.30833 0.12509,-0.1251 0.008,-0.23089 -0.26036,-0.2351 -0.29646,-0.005 -0.15014,-0.26814 0.37302,-0.67175 0.52939,-0.40839 1.15494,-0.59099 1.62471,-0.47423 0.42013,0.10442 1.57757,-0.0187 2.57209,-0.27358 1.71056,-0.4384 1.75298,-0.47526 0.7856,-0.68252 -0.94605,-0.20268 -0.91949,-0.22249 0.3547,-0.26453 2.05122,-0.0677 2.84254,-0.3653 3.04667,-1.14591 0.26155,-1.00016 -0.60084,-1.70829 -1.92501,-1.58069 -0.86032,0.0829 -1.14729,0.2886 -1.23169,0.88284 -0.11777,0.82923 -1.09512,1.09555 -1.09512,0.2984 0,-0.88709 -2.41046,-1.19596 -3.1968,-0.40962 -0.32111,0.32111 -1.58057,0.55459 -3.63504,0.67386 -1.72902,0.10038 -3.49457,0.37224 -3.92343,0.60414 -1.34008,0.72463 -13.44562,3.0231 -14.09411,2.67604 -0.67273,-0.36004 -1.1039,-0.23662 -3.871,1.10802 -1.11919,0.54386 -2.30736,0.98883 -2.64039,0.98883 -1.17337,0 -1.69481,0.41743 -1.69481,1.35677 0,1.22366 0.25523,1.43914 1.34235,1.13335 0.49269,-0.13859 2.19985,-0.21042 3.79371,-0.15962 z m -3.75874,-0.94839 c 0.28407,-0.18622 0.89095,-0.34095 1.34862,-0.34385 1.10517,-0.007 0.82505,0.18878 -0.65996,0.46128 -0.84789,0.15558 -1.05204,0.12077 -0.68866,-0.11743 z m 4.82411,-0.57004 c 0.005,-0.42463 2.8423,-1.5587 3.0739,-1.22866 0.10655,0.15182 1.24691,0.0309 2.53415,-0.26875 1.28723,-0.29963 2.21692,-0.67717 2.06597,-0.83898 -0.15095,-0.16181 0.14682,-0.19319 0.66171,-0.0697 0.51489,0.12345 1.66305,0.0616 2.55145,-0.13753 0.88841,-0.1991 1.74065,-0.23662 1.89388,-0.0834 0.3548,0.3548 -9.08826,2.30579 -10.00279,2.06664 -0.37553,-0.0982 -0.72895,-0.0515 -0.78538,0.10376 -0.1432,0.39409 -1.99719,0.81891 -1.99289,0.45665 z m 13.24665,-3.2329 c -0.0889,-0.1439 0.0698,-0.35049 0.35282,-0.45908 0.28298,-0.10859 0.51451,-0.0233 0.51451,0.18945 0,0.2196 0.27228,0.14048 0.62969,-0.18297 0.69387,-0.62794 1.60718,-0.78061 1.25432,-0.20967 -0.14948,0.24186 0.38112,0.29883 1.61524,0.17341 1.54233,-0.15673 1.67175,-0.13055 0.80486,0.16281 -0.56814,0.19227 -1.49783,0.33096 -2.06597,0.30819 -0.56814,-0.0228 -1.11046,-0.006 -1.20515,0.0375 -0.48475,0.22195 -1.75915,0.20882 -1.90032,-0.0196 z m 3.71522,-1.23049 c 0.11442,-0.11442 0.4114,-0.12665 0.65996,-0.0272 0.27468,0.10992 0.19309,0.19151 -0.20803,0.20803 -0.36298,0.0149 -0.56635,-0.0664 -0.45193,-0.18085 z m 1.97272,-0.13713 c -0.42959,-0.27693 -0.40062,-0.3383 0.17216,-0.36474 0.37876,-0.0175 1.34719,-0.1052 2.15206,-0.19493 0.80487,-0.0897 1.46339,-0.0261 1.46339,0.14129 0,0.16744 -0.19368,0.32576 -0.43041,0.35183 -0.23672,0.0261 -0.97273,0.12662 -1.63556,0.22345 -0.66283,0.0968 -1.43757,0.0262 -1.72164,-0.1569 z m 91.04816,4.51043 c -0.4133,-1.03295 -0.9909,-1.67536 -2.08038,-2.31384 -1.5299,-0.89657 -2.03972,-2.17097 -1.10068,-2.75133 0.28017,-0.17315 0.19946,-0.33337 -0.25824,-0.51261 -0.5588,-0.21883 -0.51362,-0.26462 0.2811,-0.28493 1.55494,-0.0397 1.07073,-0.71246 -0.51649,-0.71756 -2.55099,-0.008 -2.88769,-0.21159 -2.73518,-1.65229 l 0.13442,-1.26981 -1.15173,1.12446 c -1.10968,1.0834 -1.13263,1.15883 -0.62869,2.06597 0.37298,0.6714 0.94066,1.03459 1.97866,1.2659 0.80059,0.17841 1.45561,0.50313 1.45561,0.72161 0,0.25076 -1.08603,0.0174 -2.94545,-0.63284 -2.30506,-0.80611 -3.03497,-0.93925 -3.35721,-0.61234 -0.61928,0.62825 0.37537,1.21141 4.20017,2.46253 3.88058,1.26936 5.6612,2.32097 6.42239,3.79294 0.77767,1.50385 0.98723,1.02745 0.3017,-0.68586 z m 55.83754,-2.02739 2.09539,0.10026 -0.46445,1.11907 c -0.69189,1.66712 0.23719,1.49546 1.39774,-0.25825 0.50131,-0.75752 1.06422,-1.37731 1.25091,-1.37731 0.8748,0 0.11728,-0.63596 -2.32945,-1.95561 -2.46698,-1.33058 -11.38389,-4.58664 -12.56078,-4.58664 -0.28235,0 -1.09546,-0.39503 -1.80693,-0.87785 -1.48547,-1.00806 -2.03026,-0.9216 -0.71447,0.11341 0.53569,0.42137 0.87896,1.03754 0.87896,1.57773 0,1.02027 4.19261,6.07328 5.03915,6.07328 0.28346,0 0.83859,-0.17297 1.23361,-0.38438 0.63117,-0.33779 0.68651,-0.30649 0.45652,0.25825 -0.75904,1.86377 -0.91001,2.94102 -0.48408,3.45423 0.3784,0.45595 0.66981,0.26635 2.17473,-1.41498 l 1.73777,-1.94147 2.09538,0.10026 z m -58.28618,-8.07755 c -0.083,-1.75178 -0.28308,-3.88231 -0.44464,-4.73453 -0.24413,-1.28771 -0.10067,-2.24751 0.84917,-5.68142 0.62861,-2.27257 1.01442,-4.26784 0.85735,-4.43392 -0.15707,-0.16608 -0.14942,-0.66011 0.017,-1.09784 0.31048,-0.81663 -0.10344,-1.07811 -2.59103,-1.63677 -0.6344,-0.14248 -0.62939,-0.15781 0.0637,-0.1946 0.41378,-0.022 1.17127,0.11934 1.68332,0.31402 0.51204,0.19468 0.9958,0.28915 1.07501,0.20994 0.17658,-0.17658 -1.2916,-5.44688 -1.62577,-5.83603 -0.13194,-0.15364 -0.52688,0.82716 -0.87765,2.17958 -0.49754,1.91827 -0.8298,2.56341 -1.51116,2.93411 -0.55614,0.30258 -0.67617,0.4802 -0.33045,0.48898 0.72105,0.0183 0.46531,2.07976 -0.25801,2.07976 -0.27376,0 -0.42603,0.11621 -0.3384,0.25824 0.0876,0.14204 0.33332,1.99948 0.54598,4.12766 0.21265,2.12817 0.47656,4.10376 0.58648,4.39019 0.12247,0.31917 0.004,0.52079 -0.30594,0.52079 -0.66471,0 -1.0392,3.51674 -0.72943,6.8498 l 0.22744,2.44708 1.62897,0 1.62896,0 -0.15088,-3.18504 z m -2.01934,-16.12738 c -0.12724,-0.20589 -0.0589,-0.54677 0.15185,-0.75753 0.28137,-0.28137 0.38319,-0.1819 0.38319,0.37433 0,0.83139 -0.17886,0.95949 -0.53504,0.3832 z m -21.55224,14.75004 c 0.64313,-3.20476 2.01107,-7.51399 2.78134,-8.76168 1.16421,-1.88581 2.22541,-2.34355 5.42005,-2.3379 1.79113,0.003 3.00038,0.16241 3.26838,0.43041 0.68715,0.68715 0.93218,0.50388 1.15765,-0.86585 0.33442,-2.03163 0.81468,-2.78591 1.6369,-2.57089 0.71321,0.18651 0.71322,0.18665 0.013,0.44569 -0.88162,0.32613 -1.14256,1.58805 -1.14256,5.52545 0,3.285 -0.58402,4.2483 -0.75675,1.24819 -0.0896,-1.55705 -0.20828,-1.82256 -0.85551,-1.9147 -0.79532,-0.11323 -2.86402,0.79613 -2.86402,1.25895 0,0.15041 0.47779,0.80496 1.06174,1.45456 1.71184,1.90426 1.90485,2.61954 0.23721,0.87909 -1.62381,-1.6947 -2.37189,-1.90217 -4.3599,-1.20914 -1.01291,0.3531 -1.05014,0.41819 -0.48179,0.84228 0.53251,0.39736 0.70125,0.35719 1.24571,-0.29659 l 0.62976,-0.7562 -0.22734,1.03228 c -0.28883,1.3115 -0.25387,1.28835 -1.32876,0.87968 -1.49047,-0.56667 -2.35536,0.0377 -3.58166,2.50298 -0.61799,1.24233 -1.21645,2.72295 -1.32991,3.29025 l -0.20629,1.03146 2.19072,-0.64816 c 2.32972,-0.6893 7.30452,-1.65992 9.16339,-1.78787 1.11529,-0.0768 1.11915,-0.0834 1.14327,-1.98367 0.0291,-2.29462 0.60166,-1.42344 0.64025,0.97422 0.0223,1.38671 0.0844,1.48743 0.79895,1.29594 0.4261,-0.11419 0.98073,-0.20974 1.23251,-0.21233 0.31557,-0.003 0.39848,-0.29883 0.26689,-0.9516 -0.39557,-1.96239 -0.57152,-6.97266 -0.24487,-6.97266 0.18179,0 0.4014,0.27116 0.488,0.60257 0.0866,0.33142 0.17545,-0.66566 0.19742,-2.21572 0.022,-1.55006 -0.11117,-3.21575 -0.29587,-3.70153 -0.18577,-0.48863 -0.1997,-0.88324 -0.0312,-0.88324 0.56506,0 -0.62362,-3.53944 -1.60793,-4.78777 -0.5973,-0.75751 -2.00684,-1.75918 -3.6318,-2.58089 -5.05366,-2.55552 -10.06254,-2.00088 -13.41748,1.48575 l -1.63556,1.69976 0.0205,-1.26563 c 0.0113,-0.6961 0.14282,-2.00921 0.2923,-2.91803 0.14947,-0.90882 0.16247,-1.52861 0.0289,-1.37732 -0.32812,0.3716 -1.07139,5.95588 -0.8421,6.32687 0.10016,0.16207 -0.13364,0.91361 -0.51956,1.67009 -0.38594,0.75647 -0.70169,1.61945 -0.70169,1.91773 0,0.45856 0.11966,0.4768 0.77474,0.11808 1.10844,-0.60699 11.19078,-0.8334 13.65577,-0.30667 2.69422,0.57572 3.13026,0.71676 3.13026,1.01249 0,0.48481 -6.00478,-0.0119 -6.30111,-0.52118 -0.15145,-0.26031 -0.51905,-0.47328 -0.8169,-0.47328 -0.42468,0 -0.45536,0.10384 -0.14219,0.48119 0.33147,0.3994 0.0568,0.52095 -1.61583,0.71508 -1.10835,0.12864 -2.17284,0.33821 -2.36553,0.46571 -0.30682,0.20303 -0.64175,3.09171 -1.37195,11.83257 -0.18399,2.20241 -0.0434,3.03324 0.51343,3.03324 0.14031,0 0.44946,-0.96843 0.68699,-2.15206 z m 11.6278,-2.16537 c -0.11809,-0.30772 -0.20489,-0.74051 -0.19288,-0.96175 0.012,-0.22124 0.17028,-0.0311 0.35173,0.42248 0.18144,0.4536 0.26823,0.88639 0.19287,0.96175 -0.0754,0.0754 -0.23364,-0.11475 -0.35172,-0.42248 z m 3.83297,-8.59491 c -0.0905,-0.47345 -0.0311,-0.86082 0.13202,-0.86082 0.16312,0 0.29658,0.38737 0.29658,0.86082 0,0.47345 -0.0594,0.86082 -0.13202,0.86082 -0.0726,0 -0.20608,-0.38737 -0.29658,-0.86082 z m -1.57025,-1.03299 c -0.007,-0.56814 0.0644,-0.84224 0.15873,-0.60912 0.0943,0.23312 0.10006,0.69796 0.0128,1.03298 -0.0873,0.33503 -0.16447,0.14429 -0.17149,-0.42386 z m 1.31019,-0.8405 c 0,-0.20055 0.15495,-0.36465 0.34433,-0.36465 0.18938,0 0.34433,0.0683 0.34433,0.15185 0,0.0835 -0.15495,0.2476 -0.34433,0.36465 -0.18938,0.11704 -0.34433,0.0487 -0.34433,-0.15185 z m -16.0902,-4.01597 c 0.11441,-0.11442 0.4114,-0.12665 0.65996,-0.0272 0.27468,0.10992 0.19309,0.19151 -0.20803,0.20803 -0.36298,0.0149 -0.56635,-0.0664 -0.45193,-0.18085 z m 5.16493,0 c 0.11442,-0.11442 0.4114,-0.12665 0.65996,-0.0272 0.27469,0.10992 0.1931,0.19151 -0.20803,0.20803 -0.36298,0.0149 -0.56635,-0.0664 -0.45193,-0.18085 z m -8.91114,14.84201 c 0.11666,-1.70442 0.36533,-4.41601 0.5526,-6.02575 0.57532,-4.94537 0.59117,-4.87796 -1.11768,-4.75432 l -1.4634,0.10588 -0.0321,2.4103 c -0.0177,1.32567 0.0314,1.98419 0.10895,1.4634 0.21992,-1.47636 0.72008,-1.11492 0.95298,0.68866 0.11616,0.89955 0.26561,1.90487 0.33212,2.23404 0.0665,0.32916 -0.1514,0.94896 -0.48423,1.37732 -0.33283,0.42835 -0.8572,1.24367 -1.16527,1.81182 l -0.56011,1.03298 0.14758,-2.06597 0.14758,-2.06597 -0.43852,2.4103 c -0.24119,1.32566 -0.34488,2.60088 -0.23042,2.8338 0.33742,0.68671 2.54165,2.18354 2.80023,1.90156 0.13067,-0.1425 0.33302,-1.65362 0.44968,-3.35805 z m 20.7711,-2.84688 c -0.0786,-0.5174 -0.14127,-0.011 -0.13933,1.12524 0.002,1.13628 0.0662,1.55962 0.14284,0.94074 0.0766,-0.61888 0.0751,-1.54857 -0.004,-2.06598 z m 46.78271,-7.25699 c -0.29669,-0.57373 -0.71083,-1.14908 -0.92032,-1.27855 -0.20949,-0.12947 -0.0194,0.39264 0.42234,1.16024 0.91912,1.59701 1.31076,1.69005 0.49798,0.11831 z m -64.93385,-14.85997 c 0,-0.5247 0.22956,-0.68866 0.96412,-0.68866 0.53027,0 1.11262,0.14849 1.29412,0.32999 0.42593,0.42593 1.34937,-0.12988 1.04202,-0.62718 -0.25695,-0.41576 -3.05998,-0.16337 -4.09723,0.36891 -0.49664,0.25486 -0.54096,0.42166 -0.21608,0.81311 0.57717,0.69545 1.01305,0.61104 1.01305,-0.19617 z"
     id="path3049" />
  <path
     style="fill:#ffffff;fill-opacity:1"
     d="m 291.17434,154.35674 c -0.2999,-0.0811 -0.55626,-0.32489 -0.89994,-0.85598 -0.15153,-0.23415 -0.24238,-0.3985 -0.3344,-0.60494 -0.23953,-0.53734 -0.38287,-1.12353 -0.41228,-1.68632 -0.007,-0.13011 0.0118,-0.53324 0.0298,-0.64634 0.0757,-0.47622 0.2336,-0.84477 0.50207,-1.17193 0.0752,-0.0917 0.26634,-0.2663 0.36416,-0.33272 0.31145,-0.21153 0.65266,-0.31867 1.00885,-0.31681 0.22932,0.001 0.37912,0.0444 0.86162,0.24799 0.23431,0.0989 0.31234,0.12376 0.40158,0.12788 0.0721,0.003 0.082,0.002 0.20984,-0.0348 0.0738,-0.0212 0.19483,-0.0574 0.26881,-0.0811 0.49442,-0.15825 0.74635,-0.19486 1.02941,-0.14923 0.55282,0.089 0.95157,0.32632 1.22821,0.73078 0.0215,0.0314 0.039,0.0588 0.0389,0.0607 -9e-5,0.002 -0.0305,0.022 -0.0677,0.0443 -0.30918,0.1861 -0.54098,0.44007 -0.66676,0.73046 -0.0756,0.17459 -0.11025,0.3212 -0.12561,0.53215 -0.0218,0.30444 0.0153,0.55265 0.12073,0.79926 0.0722,0.16903 0.16338,0.30834 0.29726,0.45457 0.12757,0.13932 0.32037,0.28989 0.45992,0.35916 0.0231,0.0115 0.0429,0.0219 0.0442,0.0232 0.003,0.004 -0.0824,0.20685 -0.13393,0.31995 -0.10057,0.22019 -0.27658,0.51434 -0.43478,0.72647 -0.31134,0.41751 -0.57325,0.66848 -0.80353,0.77 -0.28204,0.12428 -0.51528,0.10206 -0.94964,-0.0915 -0.35356,-0.15735 -0.56504,-0.19977 -0.84901,-0.17032 -0.14437,0.015 -0.25085,0.0406 -0.45952,0.1108 -0.28678,0.0964 -0.4134,0.1237 -0.56612,0.1222 -0.0785,-5.5e-4 -0.11137,-0.004 -0.16204,-0.0182 z m 1.51943,-5.65662 -0.0358,-0.005 0.006,-0.13377 c 0.0111,-0.24419 0.063,-0.42781 0.18023,-0.63701 0.14193,-0.25351 0.36035,-0.48565 0.58268,-0.61928 0.24739,-0.14874 0.52555,-0.24329 0.7534,-0.25617 l 0.0503,-0.002 0.001,0.0785 c 0.003,0.12794 -0.0251,0.31206 -0.0688,0.45543 -0.0829,0.27212 -0.26608,0.55488 -0.49664,0.76645 -0.22411,0.20565 -0.46544,0.32377 -0.71735,0.35112 -0.0775,0.009 -0.20223,0.01 -0.25586,0.002 z"
     id="path3047" />
</svg>
